<svg width="66" height="61" viewBox="0 0 66 61" fill="none" xmlns="http://www.w3.org/2000/svg">
<mask id="mask0_2431_21815" style="mask-type:luminance" maskUnits="userSpaceOnUse" x="9" y="13" width="49" height="41">
<path d="M32.3346 51.6668H13.668C12.7397 51.6668 11.8495 51.2981 11.1931 50.6417C10.5367 49.9853 10.168 49.0951 10.168 48.1668V17.8335C10.168 16.9052 10.5367 16.015 11.1931 15.3586C11.8495 14.7022 12.7397 14.3335 13.668 14.3335H53.3346C54.2629 14.3335 55.1531 14.7022 55.8095 15.3586C56.4659 16.015 56.8346 16.9052 56.8346 17.8335V35.1958" stroke="white" stroke-width="2" stroke-linecap="round" stroke-linejoin="round"/>
<path d="M10.168 17.8335C10.168 16.9052 10.5367 16.015 11.1931 15.3586C11.8495 14.7022 12.7397 14.3335 13.668 14.3335H53.3346C54.2629 14.3335 55.1531 14.7022 55.8095 15.3586C56.4659 16.015 56.8346 16.9052 56.8346 17.8335V28.3335H10.168V17.8335Z" fill="#555555" stroke="white" stroke-width="2"/>
<path d="M45.1667 43.5L40.5 48.1667L45.1667 52.8333M52.1667 43.5L56.8333 48.1667L52.1667 52.8333" stroke="white" stroke-width="2" stroke-linecap="round" stroke-linejoin="round"/>
<path d="M14.8333 21.3337C14.8333 20.045 15.878 19.0003 17.1667 19.0003C18.4553 19.0003 19.5 20.045 19.5 21.3337C19.5 22.6223 18.4553 23.667 17.1667 23.667C15.878 23.667 14.8333 22.6223 14.8333 21.3337Z" fill="white"/>
<path d="M21.8333 21.3337C21.8333 20.045 22.878 19.0003 24.1667 19.0003C25.4553 19.0003 26.5 20.045 26.5 21.3337C26.5 22.6223 25.4553 23.667 24.1667 23.667C22.878 23.667 21.8333 22.6223 21.8333 21.3337Z" fill="white"/>
</mask>
<g mask="url(#mask0_2431_21815)">
<path d="M5.5 5H61.5V61H5.5V5Z" fill="#4D80C9"/>
</g>
<path d="M59.4016 34.4C59.2016 34.6 59.0016 35 59.0016 35.3C59.0016 35.6 59.1016 35.9 59.4016 36.2C59.9016 36.7 60.7016 36.7 61.2016 36.2C61.4016 36 61.6016 35.6 61.6016 35.3C61.6016 35 61.5016 34.7 61.2016 34.4C60.9016 34.1 60.6016 34 60.3016 34C60.0016 34 59.6016 34.2 59.4016 34.4Z" fill="#5F84BE"/>
<path d="M61.8016 23.6C63.9016 23.6 65.6016 21.9 65.6016 19.8C65.6016 17.7 63.9016 16 61.8016 16C59.7016 16 58.0016 17.7 58.0016 19.8C58.0016 21.9 59.7016 23.6 61.8016 23.6ZM61.8016 18.6C62.5016 18.6 63.1016 19.2 63.1016 19.9C63.1016 20.6 62.5016 21.2 61.8016 21.2C61.1016 21.2 60.5016 20.6 60.5016 19.9C60.5016 19.1 61.1016 18.6 61.8016 18.6Z" fill="#5F84BE"/>
<path d="M54.4047 8.8C56.8047 8.8 58.8047 6.79999 58.8047 4.39999C58.8047 1.99999 56.8047 0 54.4047 0C52.0047 0 50.0047 1.99999 50.0047 4.39999C49.9047 6.79999 51.9047 8.8 54.4047 8.8ZM54.4047 2.5C55.4047 2.5 56.3047 3.29999 56.3047 4.39999C56.3047 5.49999 55.5047 6.3 54.4047 6.3C53.3047 6.3 52.5047 5.49999 52.5047 4.39999C52.5047 3.29999 53.4047 2.5 54.4047 2.5Z" fill="#5F84BE"/>
<path d="M1.76741 23.9998L3.53516 25.7676L1.76741 27.5353L-0.000343621 25.7676L1.76741 23.9998Z" fill="#5F84BE"/>
<path d="M0.866425 39.9361C0.666425 40.1361 0.4664 40.5361 0.4664 40.8361C0.4664 41.1361 0.566425 41.4361 0.866425 41.7361C1.36642 42.2361 2.16641 42.2361 2.66641 41.7361C2.86641 41.5361 3.06641 41.1361 3.06641 40.8361C3.06641 40.5361 2.96641 40.2361 2.66641 39.9361C2.36641 39.6361 2.06642 39.5361 1.76642 39.5361C1.46642 39.5361 1.06642 39.7361 0.866425 39.9361Z" fill="#5F84BE"/>
<path d="M9.86642 54.9361C9.66642 55.1361 9.4664 55.5361 9.4664 55.8361C9.4664 56.1361 9.56642 56.4361 9.86642 56.7361C10.3664 57.2361 11.1664 57.2361 11.6664 56.7361C11.8664 56.5361 12.0664 56.1361 12.0664 55.8361C12.0664 55.5361 11.9664 55.2361 11.6664 54.9361C11.3664 54.6361 11.0664 54.5361 10.7664 54.5361C10.4664 54.5361 10.0664 54.7361 9.86642 54.9361Z" fill="#5F84BE"/>
</svg>
