<svg width="59" height="60" viewBox="0 0 59 60" fill="none" xmlns="http://www.w3.org/2000/svg">
<path d="M11.2674 3.88557L13.0352 5.65332L11.2674 7.42107L9.49966 5.65332L11.2674 3.88557Z" fill="#5F84BE"/>
<path d="M28.9354 3.74299L30.7031 5.51074L28.9354 7.27849L27.1676 5.51074L28.9354 3.74299Z" fill="#5F84BE"/>
<path d="M45.8664 12.4C45.6664 12.6 45.4664 13 45.4664 13.3C45.4664 13.6 45.5664 13.9 45.8664 14.2C46.3664 14.7 47.1664 14.7 47.6664 14.2C47.8664 14 48.0664 13.6 48.0664 13.3C48.0664 13 47.9664 12.7 47.6664 12.4C47.3664 12.1 47.0664 12 46.7664 12C46.4664 12 46.0664 12.2 45.8664 12.4Z" fill="#5F84BE"/>
<path d="M54.7664 15.1C56.8664 15.1 58.5664 13.4 58.5664 11.3C58.5664 9.2 56.8664 7.5 54.7664 7.5C52.6664 7.5 50.9664 9.2 50.9664 11.3C50.9664 13.4 52.6664 15.1 54.7664 15.1ZM54.7664 10.1C55.4664 10.1 56.0664 10.7 56.0664 11.4C56.0664 12.1 55.4664 12.7 54.7664 12.7C54.0664 12.7 53.4664 12.1 53.4664 11.4C53.4664 10.6 54.0664 10.1 54.7664 10.1Z" fill="#5F84BE"/>
<path d="M45.3695 8.8C47.7695 8.8 49.7695 6.79999 49.7695 4.39999C49.7695 1.99999 47.7695 0 45.3695 0C42.9695 0 40.9695 1.99999 40.9695 4.39999C40.8695 6.79999 42.8695 8.8 45.3695 8.8ZM45.3695 2.5C46.3695 2.5 47.2695 3.29999 47.2695 4.39999C47.2695 5.49999 46.4695 6.3 45.3695 6.3C44.2695 6.3 43.4695 5.49999 43.4695 4.39999C43.4695 3.29999 44.3695 2.5 45.3695 2.5Z" fill="#5F84BE"/>
<mask id="mask0_2431_21832" style="mask-type:luminance" maskUnits="userSpaceOnUse" x="3" y="12" width="50" height="40">
<path d="M28.0013 50.6668H8.16797C7.23971 50.6668 6.34947 50.2981 5.6931 49.6417C5.03672 48.9853 4.66797 48.0951 4.66797 47.1668V16.8335C4.66797 15.9052 5.03672 15.015 5.6931 14.3586C6.34947 13.7022 7.23971 13.3335 8.16797 13.3335H47.8346C48.7629 13.3335 49.6531 13.7022 50.3095 14.3586C50.9659 15.015 51.3346 15.9052 51.3346 16.8335V30.9023" stroke="white" stroke-width="2" stroke-linecap="round" stroke-linejoin="round"/>
<path d="M4.66797 16.8335C4.66797 15.9052 5.03672 15.015 5.6931 14.3586C6.34947 13.7022 7.23971 13.3335 8.16797 13.3335H47.8346C48.7629 13.3335 49.6531 13.7022 50.3095 14.3586C50.9659 15.015 51.3346 15.9052 51.3346 16.8335V27.3335H4.66797V16.8335Z" fill="#555555" stroke="white" stroke-width="2"/>
<path d="M9.33333 20.3337C9.33333 19.045 10.378 18.0003 11.6667 18.0003C12.9553 18.0003 14 19.045 14 20.3337C14 21.6223 12.9553 22.667 11.6667 22.667C10.378 22.667 9.33333 21.6223 9.33333 20.3337Z" fill="white"/>
<path d="M16.3333 20.3337C16.3333 19.045 17.378 18.0003 18.6667 18.0003C19.9553 18.0003 21 19.045 21 20.3337C21 21.6223 19.9553 22.667 18.6667 22.667C17.378 22.667 16.3333 21.6223 16.3333 20.3337Z" fill="white"/>
</mask>
<g mask="url(#mask0_2431_21832)">
<path d="M0 4H56V60H0V4Z" fill="#4D80C9"/>
</g>
<path d="M37.925 40.9016L37.9281 40.9031C37.9766 40.6078 38 40.3063 38 40.0078C38 39.7406 37.9797 39.4719 37.9422 39.2094C37.9797 39.4703 37.9984 39.7344 37.9984 39.9984C37.9984 40.3016 37.9734 40.6047 37.925 40.9016ZM26.0453 38.2203C26.0375 38.2141 26.0312 38.2078 26.0234 38.2C26.0344 38.2109 26.0453 38.2219 26.0578 38.2328L27.0813 39.1062V39.1047L26.0453 38.2203ZM34.4297 34.8453H34.4313L34.1891 33.5359C34.1859 33.5203 34.1828 33.5062 34.1781 33.4922C34.1797 33.5 34.1828 33.5094 34.1844 33.5172L34.4297 34.8453ZM35.2734 43.3844L35.7641 42.9812L37.2141 43.4953C37.4797 43.1375 37.7031 42.7531 37.8797 42.3453L36.7125 41.3469L36.8156 40.7203C36.8547 40.4844 36.875 40.2422 36.875 40C36.875 39.7578 36.8547 39.5156 36.8156 39.2797L36.7141 38.6562L37.8813 37.6578C37.7031 37.2516 37.4813 36.8656 37.2156 36.5078L35.7656 37.0219L35.275 36.6188C34.9016 36.3125 34.4844 36.0719 34.0359 35.9031L33.4406 35.6797L33.1609 34.1641C32.7196 34.1141 32.2741 34.1141 31.8328 34.1641L31.5531 35.6828L30.9609 35.9062C30.5156 36.075 30.1016 36.3156 29.7312 36.6203L29.2406 37.025L27.7813 36.5062C27.5156 36.8641 27.2922 37.2484 27.1156 37.6562L28.2953 38.6641L28.1937 39.2891C28.1547 39.5219 28.1359 39.7609 28.1359 40C28.1359 40.2375 28.1562 40.4781 28.1937 40.7109L28.2953 41.3359L27.1156 42.3438C27.2938 42.75 27.5156 43.1359 27.7813 43.4937L29.2406 42.975L29.7312 43.3797C30.1016 43.6844 30.5156 43.925 30.9609 44.0938L31.5516 44.3203L31.8312 45.8391C32.2719 45.8891 32.7203 45.8891 33.1594 45.8391L33.4391 44.3234L34.0344 44.1C34.4844 43.9313 34.9 43.6906 35.2734 43.3844ZM32.5062 42.5984C32.0297 42.5984 31.5813 42.4766 31.1891 42.2625C30.3313 41.7969 29.7484 40.8891 29.7484 39.8438C29.7484 38.325 30.9797 37.0938 32.4984 37.0938C33.5437 37.0938 34.4516 37.6766 34.9172 38.5344C35.1313 38.925 35.2531 39.3734 35.2531 39.8516C35.2531 41.3688 34.0234 42.5984 32.5062 42.5984ZM27.7359 44.7C27.65 44.7297 27.5609 44.7359 27.4766 44.7188C27.5656 44.7375 27.6594 44.7344 27.75 44.7031L29.0219 44.25C29.0203 44.2484 29.0172 44.2469 29.0156 44.2453L27.7359 44.7ZM38.9484 38.2203L37.925 39.0953C37.925 39.0984 37.9266 39.1031 37.9266 39.1062L38.9484 38.2328C39.0594 38.1375 39.1219 38 39.1234 37.8578C39.1188 37.9953 39.0563 38.1281 38.9484 38.2203Z" fill="#C4D5ED"/>
<path d="M39.1227 42.103C39.1305 42.1765 39.1227 42.2515 39.0961 42.3233L39.082 42.364C38.7996 43.1511 38.3777 43.881 37.8367 44.5187L37.8086 44.5515C37.743 44.6289 37.6555 44.6846 37.5575 44.7112C37.4595 44.7377 37.3558 44.7337 37.2602 44.6999L35.9898 44.2483C35.5238 44.6323 34.9974 44.9364 34.432 45.1483L34.1867 46.4765C34.1682 46.5764 34.1197 46.6683 34.0477 46.7401C33.9757 46.8118 33.8836 46.8599 33.7836 46.878L33.7414 46.8858C33.333 46.9597 32.9189 46.9968 32.5039 46.9968H32.5086C32.9258 46.9968 33.343 46.9593 33.7492 46.8858L33.7914 46.878C33.8914 46.8599 33.9835 46.8118 34.0555 46.7401C34.1275 46.6683 34.176 46.5764 34.1945 46.4765L34.4398 45.1499C35.0055 44.9374 35.5273 44.6358 35.9961 44.2515L37.2648 44.703C37.3605 44.7369 37.4642 44.7408 37.5622 44.7143C37.6602 44.6878 37.7477 44.6321 37.8133 44.5546L37.8414 44.5218C38.3852 43.8796 38.8023 43.1562 39.0852 42.3702L39.0992 42.3296C39.1242 42.2562 39.132 42.178 39.1227 42.103Z" fill="#C4D5ED"/>
<path d="M35.25 39.8438C35.25 39.3703 35.1297 38.9234 34.9187 38.5344C34.4531 37.6766 33.5453 37.0938 32.5 37.0938C30.9813 37.0938 29.75 38.325 29.75 39.8438C29.75 40.8891 30.3328 41.7969 31.1906 42.2625C31.5797 42.4734 32.025 42.5938 32.5 42.5938C34.0188 42.5938 35.25 41.3625 35.25 39.8438ZM30.75 39.8438C30.75 39.3766 30.9328 38.9375 31.2625 38.6062C31.5937 38.275 32.0328 38.0938 32.5 38.0938C32.9672 38.0938 33.4063 38.275 33.7375 38.6062C33.9003 38.7686 34.0294 38.9615 34.1173 39.1738C34.2053 39.3862 34.2504 39.6139 34.25 39.8438C34.25 40.3109 34.0672 40.75 33.7375 41.0813C33.5752 41.244 33.3823 41.3731 33.1699 41.4611C32.9575 41.549 32.7299 41.5941 32.5 41.5938C32.0328 41.5938 31.5937 41.4109 31.2625 41.0813C31.0997 40.9189 30.9706 40.726 30.8827 40.5137C30.7947 40.3013 30.7496 40.0736 30.75 39.8438Z" fill="#4D80C9"/>
<path d="M33.782 46.878C33.882 46.8599 33.9742 46.8118 34.0462 46.7401C34.1182 46.6683 34.1667 46.5764 34.1852 46.4765L34.4305 45.1483C34.9959 44.9364 35.5223 44.6323 35.9883 44.2483L37.2586 44.6999C37.3543 44.7337 37.458 44.7377 37.5559 44.7112C37.6539 44.6846 37.7415 44.6289 37.807 44.5515L37.8352 44.5187C38.3789 43.8765 38.7977 43.1515 39.0805 42.364L39.0945 42.3233C39.1211 42.2515 39.1289 42.1765 39.1211 42.103C39.107 41.9796 39.0477 41.8624 38.9492 41.7765L37.9289 40.903L37.9258 40.9015C37.9742 40.6046 37.9992 40.3015 37.9992 39.9983C37.9992 39.7343 37.9805 39.4687 37.943 39.2093C37.9383 39.1749 37.932 39.1405 37.9273 39.1062C37.9273 39.103 37.9258 39.0983 37.9258 39.0952L38.9492 38.2202C39.057 38.128 39.1195 37.9952 39.1242 37.8577C39.1258 37.7952 39.1164 37.7312 39.0945 37.6702L39.0805 37.6296C38.7987 36.8421 38.3768 36.1121 37.8352 35.4749L37.807 35.4421C37.7413 35.3648 37.6537 35.3093 37.5558 35.2828C37.4579 35.2563 37.3543 35.2601 37.2586 35.2937L35.9883 35.7452C35.5195 35.3608 34.9977 35.0577 34.432 34.8452H34.4305L34.1852 33.5171C34.1836 33.5093 34.182 33.4999 34.1789 33.4921C34.1564 33.3976 34.1068 33.3117 34.0364 33.2449C33.9659 33.178 33.8776 33.1331 33.782 33.1155L33.7398 33.1077C32.9258 32.9608 32.0695 32.9608 31.2555 33.1077L31.2133 33.1155C31.1133 33.1336 31.0212 33.1818 30.9491 33.2535C30.8771 33.3252 30.8287 33.4172 30.8102 33.5171L30.5633 34.8515C30.0022 35.064 29.4796 35.367 29.0164 35.7483L27.7367 35.2937C27.641 35.2598 27.5373 35.2559 27.4394 35.2824C27.3414 35.3089 27.2538 35.3646 27.1883 35.4421L27.1602 35.4749C26.6191 36.1126 26.1973 36.8425 25.9148 37.6296L25.9008 37.6702C25.8682 37.761 25.8626 37.8593 25.8844 37.9532C25.9063 38.0472 25.9549 38.1328 26.0242 38.1999C26.032 38.2062 26.0383 38.214 26.0461 38.2202L27.082 39.1046V39.1062C27.0336 39.3999 27.0102 39.6983 27.0102 39.9968C27.0102 40.2968 27.0336 40.5968 27.082 40.889L26.0461 41.7733C25.9689 41.8394 25.9137 41.9274 25.8877 42.0257C25.8617 42.1239 25.8663 42.2278 25.9008 42.3233L25.9148 42.364C26.1977 43.1515 26.6164 43.878 27.1602 44.5187L27.1883 44.5515C27.2648 44.6405 27.3664 44.6983 27.4773 44.7187C27.5617 44.7343 27.6508 44.7296 27.7367 44.6999L29.0164 44.2452C29.018 44.2468 29.0211 44.2483 29.0227 44.2499C29.4867 44.6296 30.0039 44.9312 30.5633 45.1421L30.8102 46.4765C30.8287 46.5764 30.8771 46.6683 30.9491 46.7401C31.0212 46.8118 31.1133 46.8599 31.2133 46.878L31.2555 46.8858C31.6633 46.9593 32.0805 46.9968 32.4977 46.9968H32.5023C32.918 46.9968 33.3352 46.9593 33.7398 46.8858L33.782 46.878ZM33.1602 45.839C32.7189 45.889 32.2733 45.889 31.832 45.839L31.5523 44.3202L30.9617 44.0937C30.5164 43.9249 30.1023 43.6843 29.732 43.3796L29.2414 42.9749L27.782 43.4937C27.5164 43.1358 27.2945 42.7499 27.1164 42.3437L28.2961 41.3358L28.1945 40.7108C28.157 40.478 28.1367 40.2374 28.1367 39.9999C28.1367 39.7608 28.1555 39.5218 28.1945 39.289L28.2961 38.664L27.1164 37.6562C27.293 37.2483 27.5164 36.864 27.782 36.5062L29.2414 37.0249L29.732 36.6202C30.1023 36.3155 30.5164 36.0749 30.9617 35.9062L31.5539 35.6827L31.8336 34.164C32.2727 34.114 32.7211 34.114 33.1617 34.164L33.4414 35.6796L34.0367 35.903C34.4852 36.0718 34.9023 36.3124 35.2758 36.6187L35.7664 37.0218L37.2164 36.5077C37.482 36.8655 37.7039 37.2515 37.882 37.6577L36.7148 38.6562L36.8164 39.2796C36.8555 39.5155 36.8758 39.7577 36.8758 39.9999C36.8758 40.2421 36.8555 40.4843 36.8164 40.7202L36.7133 41.3468L37.8805 42.3452C37.7035 42.7529 37.4802 43.1387 37.2148 43.4952L35.7648 42.9812L35.2742 43.3843C34.9008 43.6905 34.4852 43.9312 34.0352 44.0999L33.4398 44.3233L33.1602 45.839Z" fill="#4D80C9"/>
<path d="M51.925 50.9016L51.9281 50.9031C51.9766 50.6078 52 50.3063 52 50.0078C52 49.7406 51.9797 49.4719 51.9422 49.2094C51.9797 49.4703 51.9984 49.7344 51.9984 49.9984C51.9984 50.3016 51.9734 50.6047 51.925 50.9016ZM40.0453 48.2203C40.0375 48.2141 40.0312 48.2078 40.0234 48.2C40.0344 48.2109 40.0453 48.2219 40.0578 48.2328L41.0813 49.1062V49.1047L40.0453 48.2203ZM48.4297 44.8453H48.4313L48.1891 43.5359C48.1859 43.5203 48.1828 43.5062 48.1781 43.4922C48.1797 43.5 48.1828 43.5094 48.1844 43.5172L48.4297 44.8453ZM49.2734 53.3844L49.7641 52.9812L51.2141 53.4953C51.4797 53.1375 51.7031 52.7531 51.8797 52.3453L50.7125 51.3469L50.8156 50.7203C50.8547 50.4844 50.875 50.2422 50.875 50C50.875 49.7578 50.8547 49.5156 50.8156 49.2797L50.7141 48.6562L51.8813 47.6578C51.7031 47.2516 51.4813 46.8656 51.2156 46.5078L49.7656 47.0219L49.275 46.6188C48.9016 46.3125 48.4844 46.0719 48.0359 45.9031L47.4406 45.6797L47.1609 44.1641C46.7196 44.1141 46.2741 44.1141 45.8328 44.1641L45.5531 45.6828L44.9609 45.9062C44.5156 46.075 44.1016 46.3156 43.7312 46.6203L43.2406 47.025L41.7813 46.5062C41.5156 46.8641 41.2922 47.2484 41.1156 47.6562L42.2953 48.6641L42.1937 49.2891C42.1547 49.5219 42.1359 49.7609 42.1359 50C42.1359 50.2375 42.1562 50.4781 42.1937 50.7109L42.2953 51.3359L41.1156 52.3438C41.2938 52.75 41.5156 53.1359 41.7813 53.4937L43.2406 52.975L43.7312 53.3797C44.1016 53.6844 44.5156 53.925 44.9609 54.0938L45.5516 54.3203L45.8312 55.8391C46.2719 55.8891 46.7203 55.8891 47.1594 55.8391L47.4391 54.3234L48.0344 54.1C48.4844 53.9313 48.9 53.6906 49.2734 53.3844ZM46.5062 52.5984C46.0297 52.5984 45.5813 52.4766 45.1891 52.2625C44.3313 51.7969 43.7484 50.8891 43.7484 49.8438C43.7484 48.325 44.9797 47.0938 46.4984 47.0938C47.5437 47.0938 48.4516 47.6766 48.9172 48.5344C49.1313 48.925 49.2531 49.3734 49.2531 49.8516C49.2531 51.3688 48.0234 52.5984 46.5062 52.5984ZM41.7359 54.7C41.65 54.7297 41.5609 54.7359 41.4766 54.7188C41.5656 54.7375 41.6594 54.7344 41.75 54.7031L43.0219 54.25C43.0203 54.2484 43.0172 54.2469 43.0156 54.2453L41.7359 54.7ZM52.9484 48.2203L51.925 49.0953C51.925 49.0984 51.9266 49.1031 51.9266 49.1062L52.9484 48.2328C53.0594 48.1375 53.1219 48 53.1234 47.8578C53.1188 47.9953 53.0563 48.1281 52.9484 48.2203Z" fill="#C4D5ED"/>
<path d="M53.1227 52.103C53.1305 52.1765 53.1227 52.2515 53.0961 52.3233L53.082 52.364C52.7996 53.1511 52.3777 53.881 51.8367 54.5187L51.8086 54.5515C51.743 54.6289 51.6555 54.6846 51.5575 54.7112C51.4595 54.7377 51.3558 54.7337 51.2602 54.6999L49.9898 54.2483C49.5238 54.6323 48.9974 54.9364 48.432 55.1483L48.1867 56.4765C48.1682 56.5764 48.1197 56.6683 48.0477 56.7401C47.9757 56.8118 47.8836 56.8599 47.7836 56.878L47.7414 56.8858C47.333 56.9597 46.9189 56.9968 46.5039 56.9968H46.5086C46.9258 56.9968 47.343 56.9593 47.7492 56.8858L47.7914 56.878C47.8914 56.8599 47.9835 56.8118 48.0555 56.7401C48.1275 56.6683 48.176 56.5764 48.1945 56.4765L48.4398 55.1499C49.0055 54.9374 49.5273 54.6358 49.9961 54.2515L51.2648 54.703C51.3605 54.7369 51.4642 54.7408 51.5622 54.7143C51.6602 54.6878 51.7477 54.6321 51.8133 54.5546L51.8414 54.5218C52.3852 53.8796 52.8023 53.1562 53.0852 52.3702L53.0992 52.3296C53.1242 52.2562 53.132 52.178 53.1227 52.103Z" fill="#C4D5ED"/>
<path d="M49.25 49.8438C49.25 49.3703 49.1297 48.9234 48.9187 48.5344C48.4531 47.6766 47.5453 47.0938 46.5 47.0938C44.9813 47.0938 43.75 48.325 43.75 49.8438C43.75 50.8891 44.3328 51.7969 45.1906 52.2625C45.5797 52.4734 46.025 52.5938 46.5 52.5938C48.0188 52.5938 49.25 51.3625 49.25 49.8438ZM44.75 49.8438C44.75 49.3766 44.9328 48.9375 45.2625 48.6062C45.5937 48.275 46.0328 48.0938 46.5 48.0938C46.9672 48.0938 47.4063 48.275 47.7375 48.6062C47.9003 48.7686 48.0294 48.9615 48.1173 49.1738C48.2053 49.3862 48.2504 49.6139 48.25 49.8438C48.25 50.3109 48.0672 50.75 47.7375 51.0813C47.5752 51.244 47.3823 51.3731 47.1699 51.4611C46.9575 51.549 46.7299 51.5941 46.5 51.5938C46.0328 51.5938 45.5937 51.4109 45.2625 51.0813C45.0997 50.9189 44.9706 50.726 44.8827 50.5137C44.7947 50.3013 44.7496 50.0736 44.75 49.8438Z" fill="#4D80C9"/>
<path d="M47.782 56.878C47.882 56.8599 47.9742 56.8118 48.0462 56.7401C48.1182 56.6683 48.1667 56.5764 48.1852 56.4765L48.4305 55.1483C48.9959 54.9364 49.5223 54.6323 49.9883 54.2483L51.2586 54.6999C51.3543 54.7337 51.458 54.7377 51.5559 54.7112C51.6539 54.6846 51.7415 54.6289 51.807 54.5515L51.8352 54.5187C52.3789 53.8765 52.7977 53.1515 53.0805 52.364L53.0945 52.3233C53.1211 52.2515 53.1289 52.1765 53.1211 52.103C53.107 51.9796 53.0477 51.8624 52.9492 51.7765L51.9289 50.903L51.9258 50.9015C51.9742 50.6046 51.9992 50.3015 51.9992 49.9983C51.9992 49.7343 51.9805 49.4687 51.943 49.2093C51.9383 49.1749 51.932 49.1405 51.9273 49.1062C51.9273 49.103 51.9258 49.0983 51.9258 49.0952L52.9492 48.2202C53.057 48.128 53.1195 47.9952 53.1242 47.8577C53.1258 47.7952 53.1164 47.7312 53.0945 47.6702L53.0805 47.6296C52.7987 46.8421 52.3768 46.1121 51.8352 45.4749L51.807 45.4421C51.7413 45.3648 51.6537 45.3093 51.5558 45.2828C51.4579 45.2563 51.3543 45.2601 51.2586 45.2937L49.9883 45.7452C49.5195 45.3608 48.9977 45.0577 48.432 44.8452H48.4305L48.1852 43.5171C48.1836 43.5093 48.182 43.4999 48.1789 43.4921C48.1564 43.3976 48.1068 43.3117 48.0364 43.2449C47.9659 43.178 47.8776 43.1331 47.782 43.1155L47.7398 43.1077C46.9258 42.9608 46.0695 42.9608 45.2555 43.1077L45.2133 43.1155C45.1133 43.1336 45.0212 43.1818 44.9491 43.2535C44.8771 43.3252 44.8287 43.4172 44.8102 43.5171L44.5633 44.8515C44.0022 45.064 43.4796 45.367 43.0164 45.7483L41.7367 45.2937C41.641 45.2598 41.5373 45.2559 41.4394 45.2824C41.3414 45.3089 41.2538 45.3646 41.1883 45.4421L41.1602 45.4749C40.6191 46.1126 40.1973 46.8425 39.9148 47.6296L39.9008 47.6702C39.8682 47.761 39.8626 47.8593 39.8844 47.9532C39.9063 48.0472 39.9549 48.1328 40.0242 48.1999C40.032 48.2062 40.0383 48.214 40.0461 48.2202L41.082 49.1046V49.1062C41.0336 49.3999 41.0102 49.6983 41.0102 49.9968C41.0102 50.2968 41.0336 50.5968 41.082 50.889L40.0461 51.7733C39.9689 51.8394 39.9137 51.9274 39.8877 52.0257C39.8617 52.1239 39.8663 52.2278 39.9008 52.3233L39.9148 52.364C40.1977 53.1515 40.6164 53.878 41.1602 54.5187L41.1883 54.5515C41.2648 54.6405 41.3664 54.6983 41.4773 54.7187C41.5617 54.7343 41.6508 54.7296 41.7367 54.6999L43.0164 54.2452C43.018 54.2468 43.0211 54.2483 43.0227 54.2499C43.4867 54.6296 44.0039 54.9312 44.5633 55.1421L44.8102 56.4765C44.8287 56.5764 44.8771 56.6683 44.9491 56.7401C45.0212 56.8118 45.1133 56.8599 45.2133 56.878L45.2555 56.8858C45.6633 56.9593 46.0805 56.9968 46.4977 56.9968H46.5023C46.918 56.9968 47.3352 56.9593 47.7398 56.8858L47.782 56.878ZM47.1602 55.839C46.7189 55.889 46.2733 55.889 45.832 55.839L45.5523 54.3202L44.9617 54.0937C44.5164 53.9249 44.1023 53.6843 43.732 53.3796L43.2414 52.9749L41.782 53.4937C41.5164 53.1358 41.2945 52.7499 41.1164 52.3437L42.2961 51.3358L42.1945 50.7108C42.157 50.478 42.1367 50.2374 42.1367 49.9999C42.1367 49.7608 42.1555 49.5218 42.1945 49.289L42.2961 48.664L41.1164 47.6562C41.293 47.2483 41.5164 46.864 41.782 46.5062L43.2414 47.0249L43.732 46.6202C44.1023 46.3155 44.5164 46.0749 44.9617 45.9062L45.5539 45.6827L45.8336 44.164C46.2727 44.114 46.7211 44.114 47.1617 44.164L47.4414 45.6796L48.0367 45.903C48.4852 46.0718 48.9023 46.3124 49.2758 46.6187L49.7664 47.0218L51.2164 46.5077C51.482 46.8655 51.7039 47.2515 51.882 47.6577L50.7148 48.6562L50.8164 49.2796C50.8555 49.5155 50.8758 49.7577 50.8758 49.9999C50.8758 50.2421 50.8555 50.4843 50.8164 50.7202L50.7133 51.3468L51.8805 52.3452C51.7035 52.7529 51.4802 53.1387 51.2148 53.4952L49.7648 52.9812L49.2742 53.3843C48.9008 53.6905 48.4852 53.9312 48.0352 54.0999L47.4398 54.3233L47.1602 55.839Z" fill="#4D80C9"/>
</svg>
