<svg width="61" height="61" viewBox="0 0 61 61" fill="none" xmlns="http://www.w3.org/2000/svg">
<mask id="mask0_2431_21825" style="mask-type:luminance" maskUnits="userSpaceOnUse" x="13" y="11" width="32" height="39">
<path d="M41.3441 12H15.8229C15.3395 12 14.8758 12.1921 14.5339 12.5339C14.1921 12.8758 14 13.3395 14 13.8229V46.6358C14 47.1193 14.1921 47.583 14.5339 47.9248C14.8758 48.2667 15.3395 48.4587 15.8229 48.4587H41.3441C41.8275 48.4587 42.2912 48.2667 42.6331 47.9248C42.9749 47.583 43.167 47.1193 43.167 46.6358V13.8229C43.167 13.3395 42.9749 12.8758 42.6331 12.5339C42.2912 12.1921 41.8275 12 41.3441 12Z" fill="#555555" stroke="white" stroke-width="2" stroke-linecap="round" stroke-linejoin="round"/>
<path d="M22.2031 35.6981H34.9637M22.2031 41.1669H28.5834M34.0522 20.2031L26.7605 27.4949L23.1146 23.849" stroke="white" stroke-width="2" stroke-linecap="round" stroke-linejoin="round"/>
</mask>
<g mask="url(#mask0_2431_21825)">
<path d="M6.71094 8.35449H50.4614V52.105H6.71094V8.35449Z" fill="#4D80C9"/>
</g>
<path d="M1.76741 19.9998L3.53516 21.7676L1.76741 23.5353L-0.000343621 21.7676L1.76741 19.9998Z" fill="#5F84BE"/>
<path d="M7.76741 4.99983L9.53516 6.76758L7.76741 8.53533L5.99966 6.76758L7.76741 4.99983Z" fill="#5F84BE"/>
<path d="M54.4016 34.4C54.2016 34.6 54.0016 35 54.0016 35.3C54.0016 35.6 54.1016 35.9 54.4016 36.2C54.9016 36.7 55.7016 36.7 56.2016 36.2C56.4016 36 56.6016 35.6 56.6016 35.3C56.6016 35 56.5016 34.7 56.2016 34.4C55.9016 34.1 55.6016 34 55.3016 34C55.0016 34 54.6016 34.2 54.4016 34.4Z" fill="#5F84BE"/>
<path d="M56.8016 23.6C58.9016 23.6 60.6016 21.9 60.6016 19.8C60.6016 17.7 58.9016 16 56.8016 16C54.7016 16 53.0016 17.7 53.0016 19.8C53.0016 21.9 54.7016 23.6 56.8016 23.6ZM56.8016 18.6C57.5016 18.6 58.1016 19.2 58.1016 19.9C58.1016 20.6 57.5016 21.2 56.8016 21.2C56.1016 21.2 55.5016 20.6 55.5016 19.9C55.5016 19.1 56.1016 18.6 56.8016 18.6Z" fill="#5F84BE"/>
<path d="M49.4047 8.8C51.8047 8.8 53.8047 6.79999 53.8047 4.39999C53.8047 1.99999 51.8047 0 49.4047 0C47.0047 0 45.0047 1.99999 45.0047 4.39999C44.9047 6.79999 46.9047 8.8 49.4047 8.8ZM49.4047 2.5C50.4047 2.5 51.3047 3.29999 51.3047 4.39999C51.3047 5.49999 50.5047 6.3 49.4047 6.3C48.3047 6.3 47.5047 5.49999 47.5047 4.39999C47.5047 3.29999 48.4047 2.5 49.4047 2.5Z" fill="#5F84BE"/>
</svg>
