<svg width="60" height="57" viewBox="0 0 60 57" fill="none" xmlns="http://www.w3.org/2000/svg">
<path d="M13.1024 11.2998H31.8023L34.1024 16.2998L37.5023 23.8998L40.4023 30.2998H24.5023C21.4023 27.8998 17.5023 26.4998 13.4023 26.4998C12.5023 26.4998 11.7023 26.5998 10.8023 26.6998L13.1024 11.2998Z" fill="#E2F3FF"/>
<path d="M43.103 46.5998C43.603 43.4998 46.003 41.0998 49.003 40.3998C49.503 40.2998 50.003 40.2998 50.303 40.2998C53.903 40.0998 57.403 42.6998 58.003 46.5998C58.803 51.0998 55.303 55.4998 50.503 55.4998C46.403 55.4998 42.903 52.0998 42.903 47.8998C43.003 47.3998 43.003 46.9998 43.103 46.5998Z" fill="white"/>
<path d="M14.7031 31.5C8.10312 31.5 2.70312 36.9 2.70312 43.5C2.70312 50.1 8.10312 55.5 14.7031 55.5C21.3031 55.5 26.7031 50.1 26.7031 43.5C26.7031 36.8 21.3031 31.5 14.7031 31.5Z" fill="white"/>
<path d="M20.3023 16.2998L19.0023 23.8998H30.4023L27.9023 16.2998H20.3023Z" fill="white"/>
<path d="M48.0008 25.1998V28.2998C48.0008 29.2998 48.8008 30.1998 49.9008 30.1998C51.0008 30.1998 51.8008 29.3998 51.8008 28.2998V25.1998C51.8008 24.1998 51.0008 23.2998 49.9008 23.2998C49.4008 23.2998 48.9008 23.4998 48.6008 23.7998C48.2008 24.1998 48.0008 24.5998 48.0008 25.1998Z" fill="white"/>
<path d="M41.1031 1.2002C39.4031 1.2002 38.0031 2.6002 38.0031 4.3002C38.0031 6.0002 39.4031 7.40019 41.1031 7.40019C42.8031 7.40019 44.2031 6.0002 44.2031 4.3002C44.2031 2.6002 42.9031 1.2002 41.1031 1.2002Z" fill="white"/>
<path d="M50.5015 8.7998C49.1015 8.7998 48.0015 9.8998 48.0015 11.2998C48.0015 12.6998 49.1015 13.7998 50.5015 13.7998C51.9015 13.7998 53.0015 12.6998 53.0015 11.2998C53.1015 9.8998 52.0015 8.7998 50.5015 8.7998Z" fill="white"/>
<path d="M50.5015 45.3999C49.1015 45.3999 48.0015 46.4999 48.0015 47.8999C48.0015 49.2999 49.1015 50.3999 50.5015 50.3999C51.9015 50.3999 53.0015 49.2999 53.0015 47.8999C53.1015 46.4999 52.0015 45.3999 50.5015 45.3999Z" fill="white"/>
<path d="M14.7015 38.5C12.0015 38.5 9.80154 40.7 9.80154 43.4C9.80154 46.1 12.0015 48.3 14.7015 48.3C17.4015 48.3 19.6016 46.1 19.6016 43.4C19.6016 40.7 17.4015 38.5 14.7015 38.5Z" fill="white"/>
<path d="M24.5039 30.2998C26.3039 31.6998 27.8039 33.3998 29.0039 35.2998H29.1039H58.0039V34.9998C58.0039 32.3998 55.9039 30.2998 53.3039 30.2998H49.8039H40.4039H24.5039Z" fill="white"/>
<path d="M7.00178 3.88557L8.76953 5.65332L7.00178 7.42107L5.23403 5.65332L7.00178 3.88557Z" fill="#5F84BE"/>
<path d="M24.6698 3.74299L26.4375 5.51074L24.6698 7.27849L22.902 5.51074L24.6698 3.74299Z" fill="#5F84BE"/>
<path d="M41.6008 12.4C41.4008 12.6 41.2008 13 41.2008 13.3C41.2008 13.6 41.3008 13.9 41.6008 14.2C42.1008 14.7 42.9008 14.7 43.4008 14.2C43.6008 14 43.8008 13.6 43.8008 13.3C43.8008 13 43.7008 12.7 43.4008 12.4C43.1008 12.1 42.8008 12 42.5008 12C42.2008 12 41.8008 12.2 41.6008 12.4Z" fill="#5F84BE"/>
<path d="M10.2023 12.6H13.1024C13.8024 12.6 14.4023 12 14.4023 11.3C14.4023 10.6 13.8024 10 13.1024 10H10.2023C9.50233 10 8.90234 10.6 8.90234 11.3C8.90234 12 9.50233 12.6 10.2023 12.6Z" fill="#5F84BE"/>
<path d="M31.8031 12.6H35.4031C36.1031 12.6 36.7031 12 36.7031 11.3C36.7031 10.6 36.1031 10 35.4031 10H31.8031C31.1031 10 30.5031 10.6 30.5031 11.3C30.6031 12 31.1031 12.6 31.8031 12.6Z" fill="#5F84BE"/>
<path d="M14.7023 56.6998C22.0023 56.6998 27.9023 50.7998 27.9023 43.4998C27.9023 36.1998 22.0023 30.2998 14.7023 30.2998C7.40233 30.2998 1.50235 36.1998 1.50235 43.4998C1.40235 50.6998 7.30233 56.6998 14.7023 56.6998ZM14.7023 32.7998C20.6023 32.7998 25.4023 37.5998 25.4023 43.4998C25.4023 49.2998 20.6023 54.1998 14.7023 54.1998C8.90233 54.1998 4.00235 49.3998 4.00235 43.4998C4.00235 37.5998 8.70233 32.7998 14.7023 32.7998Z" fill="#5F84BE"/>
<path d="M14.7023 49.5998C18.1023 49.5998 20.9023 46.7998 20.9023 43.4998C20.9023 40.0998 18.1023 37.2998 14.7023 37.2998C11.3023 37.2998 8.50235 40.0998 8.50235 43.4998C8.40235 46.8998 11.2023 49.5998 14.7023 49.5998ZM14.7023 39.6998C16.7023 39.6998 18.3023 41.2998 18.3023 43.2998C18.3023 45.2998 16.7023 46.8998 14.7023 46.8998C12.7023 46.8998 11.1024 45.2998 11.1024 43.2998C11.1024 41.2998 12.6023 39.6998 14.7023 39.6998Z" fill="#5F84BE"/>
<path d="M24.5019 31.5001H40.4019C40.8019 31.5001 41.2019 31.3001 41.5019 30.9001C41.7019 30.5001 41.8019 30.1001 41.6019 29.7001L32.9019 10.8001C32.7019 10.4001 32.3019 10.1001 31.8019 10.1001H13.0019C12.4019 10.1001 11.9019 10.6001 11.8019 11.2001L9.50191 26.5001C9.40192 26.9001 9.60191 27.3001 9.8019 27.6001C10.1019 27.9001 10.5019 28.0001 10.9019 28.0001C11.7019 27.9001 12.5019 27.8001 13.3019 27.8001C17.1019 27.8001 20.7019 29.0001 23.7019 31.3001C23.9019 31.4001 24.2019 31.5001 24.5019 31.5001ZM38.5019 28.9001H24.9019C21.6019 26.4001 17.5019 25.1001 13.3019 25.1001C12.9019 25.1001 12.6019 25.1001 12.2019 25.1001L14.1019 12.5001H30.9019L38.5019 28.9001Z" fill="#5F84BE"/>
<path d="M49.9039 31.5002C51.6039 31.5002 53.0039 30.1002 53.0039 28.4002V25.3002C53.0039 23.6002 51.6039 22.2002 49.9039 22.2002C49.1039 22.2002 48.3039 22.5002 47.7039 23.1002C47.1039 23.7002 46.8039 24.5002 46.8039 25.3002V28.4002C46.7039 30.1002 48.2039 31.5002 49.9039 31.5002ZM49.9039 24.5002C50.2039 24.5002 50.5039 24.8002 50.5039 25.1002V28.2002C50.5039 28.5002 50.2039 28.8002 49.9039 28.8002C49.6039 28.8002 49.3039 28.5002 49.3039 28.2002V25.1002C49.3039 24.9002 49.4039 24.7002 49.5039 24.7002C49.5039 24.6002 49.7039 24.5002 49.9039 24.5002Z" fill="#5F84BE"/>
<path d="M49.9031 24.4998C50.6031 24.4998 51.2031 23.8998 51.2031 23.1998V20.0998C51.2031 19.3998 50.6031 18.7998 49.9031 18.7998H48.0031C47.3031 18.7998 46.7031 19.3998 46.7031 20.0998C46.7031 20.7998 47.3031 21.3998 48.0031 21.3998H48.6031V23.2998C48.6031 23.9998 49.2031 24.4998 49.9031 24.4998Z" fill="#5F84BE"/>
<path d="M1.30078 56.7001H50.5008C51.2008 56.7001 51.8008 56.1001 51.8008 55.4001C51.8008 54.7001 51.2008 54.1001 50.5008 54.1001H1.30078C0.60078 54.1001 0.000793457 54.7001 0.000793457 55.4001C0.100792 56.1001 0.700783 56.7001 1.30078 56.7001Z" fill="#5F84BE"/>
<path d="M36.6024 40.3002H41.6024C42.3024 40.3002 42.9023 39.7002 42.9023 39.0002C42.9023 38.3002 42.3024 37.7002 41.6024 37.7002H36.6024C35.9024 37.7002 35.3023 38.3002 35.3023 39.0002C35.3023 39.7002 36.0024 40.3002 36.6024 40.3002Z" fill="#5F84BE"/>
<path d="M36.6024 44.1H39.1024C39.8024 44.1 40.4023 43.5 40.4023 42.8C40.4023 42.1 39.8024 41.5 39.1024 41.5H36.6024C35.9024 41.5 35.3023 42.1 35.3023 42.8C35.4023 43.5 36.0024 44.1 36.6024 44.1Z" fill="#5F84BE"/>
<path d="M19.0014 25.2001H30.4014C30.8014 25.2001 31.2014 25.0001 31.4014 24.7001C31.6014 24.4001 31.7014 24.0001 31.6014 23.6001L29.1014 16.0001C28.9014 15.5001 28.5014 15.1001 27.9014 15.1001H20.3014C19.7014 15.1001 19.2014 15.5001 19.1014 16.1001L17.9014 23.6001C17.9014 23.7001 17.9014 23.8001 17.9014 23.9001C17.8014 24.6001 18.4014 25.2001 19.0014 25.2001ZM28.7014 22.7001H20.6014L21.4014 17.7001H26.9014L28.7014 22.7001Z" fill="#5F84BE"/>
<path d="M50.5008 15.1C52.6008 15.1 54.3008 13.4 54.3008 11.3C54.3008 9.2 52.6008 7.5 50.5008 7.5C48.4008 7.5 46.7008 9.2 46.7008 11.3C46.7008 13.4 48.4008 15.1 50.5008 15.1ZM50.5008 10.1C51.2008 10.1 51.8008 10.7 51.8008 11.4C51.8008 12.1 51.2008 12.7 50.5008 12.7C49.8008 12.7 49.2008 12.1 49.2008 11.4C49.2008 10.6 49.8008 10.1 50.5008 10.1Z" fill="#5F84BE"/>
<path d="M41.1039 8.8C43.5039 8.8 45.5039 6.79999 45.5039 4.39999C45.5039 1.99999 43.5039 0 41.1039 0C38.7039 0 36.7039 1.99999 36.7039 4.39999C36.6039 6.79999 38.6039 8.8 41.1039 8.8ZM41.1039 2.5C42.1039 2.5 43.0039 3.29999 43.0039 4.39999C43.0039 5.49999 42.2039 6.3 41.1039 6.3C40.0039 6.3 39.2039 5.49999 39.2039 4.39999C39.2039 3.29999 40.1039 2.5 41.1039 2.5Z" fill="#5F84BE"/>
<path d="M29.1016 35.2998C30.7016 37.9998 31.7015 41.1998 31.7015 44.6998C31.7015 45.2998 31.7016 45.9998 31.6016 46.5998H43.1016C43.8016 42.4998 47.8016 39.4998 52.1016 40.3998C55.2016 40.9998 57.5016 43.4998 58.0016 46.5998H58.1016V35.2998H29.1016Z" fill="#E2F3FF"/>
<path d="M50.5023 56.6997C55.3024 56.6997 59.4023 52.7998 59.4023 47.7998C59.4023 45.9998 58.9023 44.2997 57.9023 42.9997C57.4023 42.1997 56.7024 41.4997 56.1024 40.9997C55.6024 40.5997 54.8023 40.6997 54.3023 41.1997C53.9023 41.6997 54.0023 42.4997 54.5023 42.9997L54.6024 43.0998C56.0024 44.2998 56.8023 45.9997 56.8023 47.8997C56.8023 51.2997 54.0023 54.2998 50.4023 54.2998C46.9023 54.2998 44.0023 51.4997 44.0023 47.8997C44.0023 46.4997 44.5023 45.1997 45.4023 43.9997C45.7023 43.5997 45.9023 43.3998 46.3023 43.0998C46.3023 43.0998 46.3023 43.0997 46.4023 42.9997C46.9023 42.5997 47.0024 41.7997 46.6024 41.1997C46.2024 40.6997 45.4023 40.5997 44.8023 40.9997C44.0023 41.6997 43.1024 42.6998 42.5023 43.7998C42.1024 44.5998 41.8023 45.4997 41.7023 46.3997C41.6023 46.8997 41.6024 47.3997 41.6024 47.8997C41.7024 52.6997 45.7023 56.6997 50.5023 56.6997Z" fill="#5F84BE"/>
<path d="M50.5008 51.6001C52.6008 51.6001 54.3008 49.9001 54.3008 47.8001C54.3008 45.7001 52.6008 44.1001 50.5008 44.1001C48.4008 44.1001 46.7008 45.8001 46.7008 47.9001C46.7008 50.0001 48.4008 51.6001 50.5008 51.6001ZM50.5008 46.6001C51.2008 46.6001 51.8008 47.2001 51.8008 47.9001C51.8008 48.6001 51.2008 49.2001 50.5008 49.2001C49.8008 49.2001 49.2008 48.6001 49.2008 47.9001C49.2008 47.2001 49.8008 46.6001 50.5008 46.6001Z" fill="#5F84BE"/>
<path d="M31.6008 47.9H43.1008C43.7008 47.9 44.2008 47.5 44.3008 46.9C44.9008 43.4 48.5008 40.7 52.5008 42C52.8008 42.1 53.2008 42.3 53.6008 42.5C53.8008 42.6 54.0008 42.7 54.2008 42.9C55.5008 43.8 56.4008 45.3 56.7008 46.9C56.8008 47.5 57.3008 47.9 57.9008 47.9H58.0008C58.7008 47.9 59.3008 47.3 59.3008 46.6V34.9C59.3008 31.6 56.6008 29 53.4008 29H40.5008C39.8008 29 39.2008 29.6 39.2008 30.3C39.2008 31 39.8008 31.6 40.5008 31.6H53.4008C55.3008 31.6 56.8008 33.1 56.8008 35V41.8C52.6008 37.5 45.4008 38.6 42.7008 43.9C42.4008 44.4 42.2008 44.9 42.1008 45.4H32.9008C32.9008 45.2 32.9008 45 32.9008 44.8C32.9008 41.3 31.9008 37.7 30.1008 34.7C28.8008 32.6 27.2008 30.8 25.3008 29.3C24.8008 28.9 24.0008 29 23.5008 29.5C23.1008 30 23.2008 30.8 23.7008 31.3C25.4008 32.6 26.8008 34.2 27.9008 36C29.5008 38.6 30.3008 41.6 30.3008 44.8C30.3008 45.4 30.3008 46 30.2008 46.5C30.2008 46.9 30.3008 47.2 30.5008 47.5C30.9008 47.7 31.2008 47.9 31.6008 47.9Z" fill="#5F84BE"/>
<path d="M29.1024 36.4999H58.1024C58.8024 36.4999 59.4023 35.8999 59.4023 35.1999C59.4023 34.4999 58.8024 33.8999 58.1024 33.8999H29.1024C28.4024 33.8999 27.8023 34.4999 27.8023 35.1999C27.8023 35.8999 28.5024 36.4999 29.1024 36.4999Z" fill="#5F84BE"/>
</svg>
