<svg width="56" height="59" viewBox="0 0 56 59" fill="none" xmlns="http://www.w3.org/2000/svg">
<path d="M39.2987 29.2704V18.4747C39.2988 18.3384 39.272 18.2034 39.2199 18.0774C39.1677 17.9515 39.0912 17.837 38.9947 17.7407L33.558 12.304C33.3639 12.1096 33.1005 12.0002 32.8258 12H12.7022C12.4274 12 12.1638 12.1092 11.9695 12.3035C11.7752 12.4978 11.666 12.7614 11.666 13.0362V45.5046C11.666 45.7795 11.7752 46.043 11.9695 46.2374C12.1638 46.4317 12.4274 46.5409 12.7022 46.5409H23.7553" fill="#FFDEC0"/>
<path d="M39.2987 29.2704V18.4747C39.2988 18.3384 39.272 18.2034 39.2199 18.0774C39.1677 17.9515 39.0912 17.837 38.9947 17.7407L33.558 12.304C33.3639 12.1096 33.1005 12.0002 32.8258 12H12.7022C12.4274 12 12.1638 12.1092 11.9695 12.3035C11.7752 12.4978 11.666 12.7614 11.666 13.0362V45.5046C11.666 45.7795 11.7752 46.043 11.9695 46.2374C12.1638 46.4317 12.4274 46.5409 12.7022 46.5409H23.7553" stroke="#FF8533" stroke-width="2" stroke-linecap="round" stroke-linejoin="round"/>
<path d="M32.3906 12V17.8719C32.3906 18.1468 32.4998 18.4103 32.6941 18.6047C32.8885 18.799 33.152 18.9082 33.4269 18.9082H39.2988" stroke="#FF8533" stroke-width="2" stroke-linecap="round" stroke-linejoin="round"/>
<mask id="mask0_2434_22192" style="mask-type:luminance" maskUnits="userSpaceOnUse" x="27" y="34" width="17" height="17">
<path d="M35.5989 39.6329C39.6867 39.6329 43.0005 38.6387 43.0005 37.4124C43.0005 36.186 39.6867 35.1919 35.5989 35.1919C31.5111 35.1919 28.1973 36.186 28.1973 37.4124C28.1973 38.6387 31.5111 39.6329 35.5989 39.6329Z" stroke="white" stroke-width="2" stroke-linecap="round" stroke-linejoin="round"/>
<path d="M30.7027 39.0776C29.1669 39.4847 28.1973 40.0798 28.1973 40.743C28.1973 41.9694 31.511 42.9635 35.5989 42.9635C39.6868 42.9635 43.0005 41.9694 43.0005 40.743C43.0005 40.0798 42.0313 39.4847 40.495 39.0776" stroke="white" stroke-width="2" stroke-linecap="round" stroke-linejoin="round"/>
<path d="M30.7027 42.4082C29.1669 42.8153 28.1973 43.4104 28.1973 44.0736C28.1973 45.3 31.511 46.2941 35.5989 46.2941C39.6868 46.2941 43.0005 45.3 43.0005 44.0736C43.0005 43.4104 42.0313 42.8153 40.495 42.4082" stroke="white" stroke-width="2" stroke-linecap="round" stroke-linejoin="round"/>
<path d="M30.7027 45.7393C29.1669 46.1463 28.1973 46.7414 28.1973 47.4046C28.1973 48.6311 31.511 49.6251 35.5989 49.6251C39.6868 49.6251 43.0005 48.6311 43.0005 47.4046C43.0005 46.7414 42.0313 46.1463 40.495 45.7393C39.1901 46.0849 37.4759 46.2944 35.5989 46.2944C33.7218 46.2944 32.008 46.0849 30.7027 45.7393Z" fill="#555555" stroke="white" stroke-width="2" stroke-linecap="round" stroke-linejoin="round"/>
</mask>
<g mask="url(#mask0_2434_22192)">
<path d="M26.7168 33.3413H44.4807V51.1052H26.7168V33.3413Z" fill="#FF8533"/>
</g>
<path d="M50.5205 19.5028C50.5205 19.5894 50.6072 19.7628 50.6072 19.8495C50.6072 20.2829 50.3471 20.7163 49.827 20.8896C49.2203 21.063 48.6135 20.8029 48.4402 20.1962C48.4402 20.1095 48.3535 19.9362 48.3535 19.8495C48.3535 19.4161 48.6135 18.9827 49.1336 18.8093C49.2203 18.8093 49.3937 18.7227 49.4803 18.7227C50.0004 18.7227 50.4338 19.0694 50.5205 19.5028Z" fill="#FF8533"/>
<path d="M46.1865 32.5916C46.1865 32.6783 46.2732 32.8517 46.2732 32.9383C46.2732 33.3717 46.0131 33.8051 45.4931 33.9785C44.8863 34.1519 44.2795 33.8918 44.1062 33.2851C44.1062 33.1984 44.0195 33.025 44.0195 32.9383C44.0195 32.5049 44.2796 32.0715 44.7996 31.8982C44.8863 31.8982 45.0597 31.8115 45.1464 31.8115C45.6664 31.8115 46.0998 32.1582 46.1865 32.5916Z" fill="#FF8533"/>
<path d="M37.3447 8.49446C37.3447 8.58114 37.4314 8.75452 37.4314 8.8412C37.4314 9.2746 37.1714 9.70798 36.6513 9.88134C36.0445 10.0547 35.4378 9.79467 35.2644 9.18792C35.2644 9.10124 35.1777 8.92788 35.1777 8.8412C35.1777 8.40781 35.4378 7.9744 35.9578 7.80104C36.0445 7.80104 36.2179 7.71436 36.3046 7.71436C36.8246 7.71436 37.258 8.06107 37.3447 8.49446Z" fill="#FF8533"/>
<path d="M27.5518 0.78011C27.5518 0.866789 27.6384 1.04014 27.6384 1.12682C27.6384 1.56022 27.3784 1.99363 26.8583 2.16699C26.2515 2.34034 25.6448 2.08032 25.4714 1.47356C25.4714 1.38688 25.3848 1.2135 25.3848 1.12682C25.3848 0.693425 25.6448 0.260044 26.1649 0.0866847C26.2516 0.0866847 26.4249 0 26.5116 0C26.945 0.0866794 27.3784 0.346712 27.5518 0.78011Z" fill="#FF8533"/>
<path d="M22.0029 7.368C22.0029 7.45468 22.0896 7.62803 22.0896 7.71471C22.0896 8.14811 21.8296 8.58152 21.3095 8.75488C20.7027 8.92823 20.096 8.66818 19.9226 8.06142C19.9226 7.97475 19.8359 7.80139 19.8359 7.71471C19.8359 7.28132 20.096 6.84793 20.6161 6.67458C20.7028 6.67458 20.8761 6.58789 20.9628 6.58789C21.4829 6.67457 21.9162 6.9346 22.0029 7.368Z" fill="#FF8533"/>
<path d="M7.9611 5.54736C9.17462 5.54736 10.1281 6.50084 10.1281 7.71435C10.1281 8.92786 9.17462 9.88133 7.9611 9.88133C6.74759 9.88133 5.79412 8.92786 5.79412 7.71435C5.70744 6.50084 6.74759 5.54736 7.9611 5.54736Z" fill="white"/>
<path d="M7.95985 11.0949C6.13958 11.0949 4.66602 9.6214 4.66602 7.80113C4.66602 5.98086 6.13958 4.50732 7.95985 4.50732C9.78012 4.50732 11.2537 5.98086 11.2537 7.80113C11.2537 9.53472 9.69344 11.0949 7.95985 11.0949ZM7.95985 6.67431C7.35309 6.67431 6.833 7.19438 6.833 7.80113C6.833 8.40789 7.35309 8.92795 7.95985 8.92795C8.56661 8.92795 9.08667 8.40789 9.08667 7.80113C8.99999 7.1077 8.47993 6.67431 7.95985 6.67431Z" fill="#FF8533"/>
<path d="M45.7541 16.4691C43.6738 16.4691 41.8535 14.7355 41.8535 12.5685C41.8535 10.4882 43.5871 8.66797 45.7541 8.66797C47.8344 8.66797 49.6547 10.4016 49.6547 12.5685C49.568 14.8222 47.8344 16.4691 45.7541 16.4691ZM45.7541 11.095C44.8873 11.095 44.1072 11.7884 44.1072 12.7419C44.1072 13.6954 44.8006 14.3888 45.7541 14.3888C46.6209 14.3888 47.401 13.6954 47.401 12.7419C47.401 11.7884 46.6209 11.095 45.7541 11.095Z" fill="#FF8533"/>
</svg>
