<svg width="56" height="56" viewBox="0 0 56 56" fill="none" xmlns="http://www.w3.org/2000/svg">
<g clip-path="url(#clip0_2434_22169)">
<path d="M46.3335 28.1667C46.3335 18.1333 38.2002 10 28.1667 10C18.1333 10 10 18.1333 10 28.1667C10 36.2146 15.232 43.038 22.4787 45.4252M22.7167 31.8001L28.1667 28.1667V18.4784" fill="#FFDEC0"/>
<path d="M46.3335 28.1667C46.3335 18.1333 38.2002 10 28.1667 10C18.1333 10 10 18.1333 10 28.1667C10 36.2146 15.232 43.038 22.4787 45.4252M22.7167 31.8001L28.1667 28.1667V18.4784" stroke="#FF8533" stroke-width="2" stroke-linecap="round" stroke-linejoin="round"/>
<path d="M29.9824 35.4331H33.6158C34.0976 35.4331 34.5597 35.6245 34.9004 35.9652C35.241 36.3059 35.4324 36.768 35.4324 37.2498V39.0665C35.4324 39.5483 35.241 40.0103 34.9004 40.351C34.5597 40.6917 34.0976 40.8831 33.6158 40.8831H31.7991C31.3173 40.8831 30.8552 41.0745 30.5145 41.4152C30.1738 41.7559 29.9824 42.218 29.9824 42.6998V44.5165C29.9824 44.9983 30.1738 45.4604 30.5145 45.8011C30.8552 46.1418 31.3173 46.3332 31.7991 46.3332H35.4324M46.3325 35.4331V40.8831M46.3325 40.8831H42.6991C42.2173 40.8831 41.7553 40.6917 41.4146 40.351C41.0739 40.0103 40.8825 39.5483 40.8825 39.0665V35.4331M46.3325 40.8831V46.3332" stroke="#FF8533" stroke-width="2" stroke-linecap="round" stroke-linejoin="round"/>
<path d="M53.0537 19.1034C53.0537 19.19 53.1404 19.3634 53.1404 19.4501C53.1404 19.8835 52.8803 20.3169 52.3603 20.4902C51.7535 20.6636 51.1467 20.4035 50.9734 19.7968C50.9734 19.7101 50.8867 19.5367 50.8867 19.4501C50.8867 19.0167 51.1468 18.5833 51.6668 18.4099C51.7535 18.4099 51.9269 18.3232 52.0135 18.3232C52.5336 18.3232 52.967 18.67 53.0537 19.1034Z" fill="#FF8533"/>
<path d="M48.2852 9.56885C49.7587 9.56885 50.9722 10.7824 50.9722 12.2559C50.9722 13.7295 49.7587 14.943 48.2852 14.943C46.8116 14.943 45.5981 13.7295 45.5981 12.2559C45.5114 10.7824 46.725 9.56885 48.2852 9.56885Z" fill="white"/>
<path d="M48.7197 32.1922C48.7197 32.2789 48.8064 32.4523 48.8064 32.5389C48.8064 32.9723 48.5463 33.4057 48.0263 33.5791C47.4195 33.7525 46.8128 33.4924 46.6394 32.8856C46.6394 32.799 46.5527 32.6256 46.5527 32.5389C46.5527 32.1055 46.8128 31.6721 47.3328 31.4988C47.4195 31.4988 47.5929 31.4121 47.6796 31.4121C48.1996 31.4121 48.633 31.7588 48.7197 32.1922Z" fill="#FF8533"/>
<path d="M39.8779 8.09505C39.8779 8.18173 39.9646 8.35511 39.9646 8.44179C39.9646 8.87519 39.7046 9.30857 39.1845 9.48193C38.5777 9.65529 37.971 9.39526 37.7976 8.7885C37.7976 8.70182 37.7109 8.52847 37.7109 8.44179C37.7109 8.00839 37.971 7.57498 38.491 7.40163C38.5777 7.40163 38.7511 7.31494 38.8378 7.31494C39.3578 7.31494 39.7912 7.66165 39.8779 8.09505Z" fill="#FF8533"/>
<path d="M30.085 0.380695C30.085 0.467375 30.1716 0.640728 30.1716 0.727408C30.1716 1.1608 29.9116 1.59421 29.3915 1.76757C28.7847 1.94093 28.178 1.6809 28.0046 1.07415C28.0046 0.987467 27.918 0.814087 27.918 0.727408C27.918 0.294011 28.178 -0.139371 28.6981 -0.312729C28.7848 -0.312729 28.9581 -0.399414 29.0448 -0.399414C29.4782 -0.312735 29.9116 -0.0527017 30.085 0.380695Z" fill="#FF8533"/>
<path d="M24.5361 6.96859C24.5361 7.05527 24.6228 7.22862 24.6228 7.3153C24.6228 7.7487 24.3628 8.1821 23.8427 8.35546C23.2359 8.52882 22.6292 8.26877 22.4558 7.66201C22.4558 7.57533 22.3691 7.40198 22.3691 7.3153C22.3691 6.8819 22.6292 6.44852 23.1493 6.27516C23.236 6.27516 23.4093 6.18848 23.496 6.18848C24.0161 6.27516 24.4494 6.53519 24.5361 6.96859Z" fill="#FF8533"/>
<path d="M10.4943 5.14795C11.7078 5.14795 12.6613 6.10142 12.6613 7.31493C12.6613 8.52845 11.7078 9.48192 10.4943 9.48192C9.2808 9.48192 8.32732 8.52845 8.32732 7.31493C8.24064 6.10142 9.2808 5.14795 10.4943 5.14795Z" fill="white"/>
<path d="M10.4931 10.6955C8.67278 10.6955 7.19922 9.22198 7.19922 7.40172C7.19922 5.58145 8.67278 4.10791 10.4931 4.10791C12.3133 4.10791 13.7869 5.58145 13.7869 7.40172C13.7869 9.13531 12.2266 10.6955 10.4931 10.6955ZM10.4931 6.2749C9.8863 6.2749 9.3662 6.79496 9.3662 7.40172C9.3662 8.00847 9.8863 8.52854 10.4931 8.52854C11.0998 8.52854 11.6199 8.00847 11.6199 7.40172C11.5332 6.70828 11.0131 6.2749 10.4931 6.2749Z" fill="#FF8533"/>
<path d="M48.2873 16.0697C46.207 16.0697 44.3867 14.3361 44.3867 12.1691C44.3867 10.0888 46.1203 8.26855 48.2873 8.26855C50.3676 8.26855 52.1879 10.0021 52.1879 12.1691C52.1012 14.4228 50.3676 16.0697 48.2873 16.0697ZM48.2873 10.6956C47.4205 10.6956 46.6404 11.389 46.6404 12.3425C46.6404 13.296 47.3338 13.9894 48.2873 13.9894C49.1541 13.9894 49.9342 13.296 49.9342 12.3425C49.9342 11.389 49.1541 10.6956 48.2873 10.6956Z" fill="#FF8533"/>
</g>
<defs>
<clipPath id="clip0_2434_22169">
<rect width="56" height="56" fill="white"/>
</clipPath>
</defs>
</svg>
