<svg width="56" height="56" viewBox="0 0 56 56" fill="none" xmlns="http://www.w3.org/2000/svg">
<g clip-path="url(#clip0_2431_22034)">
<path d="M11.1992 34.2546C11.1992 26.6198 11.1992 22.8024 13.5703 20.4297C15.9447 18.0586 19.7604 18.0586 27.3953 18.0586C35.0301 18.0586 38.8475 18.0586 41.2186 20.4297C43.5913 22.804 43.5913 26.6198 43.5913 34.2546C43.5913 41.8895 43.5913 45.7069 41.2186 48.078C38.8491 50.4507 35.0301 50.4507 27.3953 50.4507C19.7604 50.4507 15.943 50.4507 13.5703 48.078C11.1992 45.7085 11.1992 41.8895 11.1992 34.2546Z" fill="#E2F3FF" stroke="#5F84BE" stroke-width="2"/>
<path d="M17.6758 40.4093L19.527 42.3528L24.1542 37.494M17.6758 29.072L19.527 31.0156L24.1542 26.1567" stroke="#5F84BE" stroke-width="2" stroke-linecap="round" stroke-linejoin="round"/>
<path d="M29.0156 29.396H37.1136M29.0156 40.7332H37.1136" stroke="#5F84BE" stroke-width="2" stroke-linecap="round"/>
<path d="M53.0537 19.5614C53.0537 19.648 53.1404 19.8214 53.1404 19.9081C53.1404 20.3415 52.8803 20.7749 52.3603 20.9482C51.7535 21.1216 51.1467 20.8615 50.9734 20.2548C50.9734 20.1681 50.8867 19.9948 50.8867 19.9081C50.8867 19.4747 51.1468 19.0413 51.6668 18.8679C51.7535 18.8679 51.9269 18.7812 52.0135 18.7812C52.5336 18.7813 52.967 19.128 53.0537 19.5614Z" fill="#5F84BE"/>
<path d="M48.2852 10.0269C49.7587 10.0269 50.9722 11.2404 50.9722 12.7139C50.9722 14.1875 49.7587 15.401 48.2852 15.401C46.8116 15.401 45.5981 14.1875 45.5981 12.7139C45.5114 11.2404 46.725 10.0269 48.2852 10.0269Z" fill="white"/>
<path d="M48.7197 32.6502C48.7197 32.7369 48.8064 32.9103 48.8064 32.9969C48.8064 33.4303 48.5463 33.8637 48.0263 34.0371C47.4195 34.2105 46.8128 33.9504 46.6394 33.3437C46.6394 33.257 46.5527 33.0836 46.5527 32.9969C46.5527 32.5635 46.8128 32.1301 47.3328 31.9568C47.4195 31.9568 47.5929 31.8701 47.6796 31.8701C48.1996 31.8701 48.633 32.2168 48.7197 32.6502Z" fill="#5F84BE"/>
<path d="M39.8779 8.55306C39.8779 8.63974 39.9646 8.81312 39.9646 8.8998C39.9646 9.33319 39.7046 9.76658 39.1845 9.93993C38.5777 10.1133 37.971 9.85327 37.7976 9.24651C37.7976 9.15983 37.7109 8.98648 37.7109 8.8998C37.7109 8.4664 37.971 8.03299 38.491 7.85963C38.5777 7.85963 38.7511 7.77295 38.8378 7.77295C39.3578 7.77295 39.7912 8.11966 39.8779 8.55306Z" fill="#5F84BE"/>
<path d="M30.085 0.838703C30.085 0.925383 30.1716 1.09874 30.1716 1.18542C30.1716 1.61881 29.9116 2.05222 29.3915 2.22558C28.7847 2.39894 28.178 2.13891 28.0046 1.53215C28.0046 1.44548 27.918 1.2721 27.918 1.18542C27.918 0.752019 28.178 0.318637 28.6981 0.145278C28.7848 0.145278 28.9581 0.0585938 29.0448 0.0585938C29.4782 0.145273 29.9116 0.405306 30.085 0.838703Z" fill="#5F84BE"/>
<path d="M24.5361 7.42659C24.5361 7.51327 24.6228 7.68663 24.6228 7.77331C24.6228 8.2067 24.3628 8.64011 23.8427 8.81347C23.2359 8.98683 22.6292 8.72677 22.4558 8.12002C22.4558 8.03334 22.3691 7.85999 22.3691 7.77331C22.3691 7.33991 22.6292 6.90653 23.1493 6.73317C23.236 6.73317 23.4093 6.64648 23.496 6.64648C24.0161 6.73316 24.4494 6.9932 24.5361 7.42659Z" fill="#5F84BE"/>
<path d="M10.4943 5.60596C11.7078 5.60596 12.6613 6.55943 12.6613 7.77294C12.6613 8.98645 11.7078 9.93993 10.4943 9.93993C9.2808 9.93993 8.32732 8.98645 8.32732 7.77294C8.24064 6.55943 9.2808 5.60596 10.4943 5.60596Z" fill="white"/>
<path d="M10.4931 11.1535C8.67278 11.1535 7.19922 9.67999 7.19922 7.85973C7.19922 6.03946 8.67278 4.56592 10.4931 4.56592C12.3133 4.56592 13.7869 6.03946 13.7869 7.85973C13.7869 9.59331 12.2266 11.1535 10.4931 11.1535ZM10.4931 6.7329C9.8863 6.7329 9.3662 7.25297 9.3662 7.85973C9.3662 8.46648 9.8863 8.98655 10.4931 8.98655C11.0998 8.98655 11.6199 8.46648 11.6199 7.85973C11.5332 7.16629 11.0131 6.7329 10.4931 6.7329Z" fill="#5F84BE"/>
<path d="M48.2873 16.5277C46.207 16.5277 44.3867 14.7941 44.3867 12.6271C44.3867 10.5468 46.1203 8.72656 48.2873 8.72656C50.3676 8.72656 52.1879 10.4602 52.1879 12.6271C52.1012 14.8808 50.3676 16.5277 48.2873 16.5277ZM48.2873 11.1536C47.4205 11.1536 46.6404 11.847 46.6404 12.8005C46.6404 13.754 47.3338 14.4474 48.2873 14.4474C49.1541 14.4474 49.9342 13.754 49.9342 12.8005C49.9342 11.847 49.1541 11.1536 48.2873 11.1536Z" fill="#5F84BE"/>
</g>
<defs>
<clipPath id="clip0_2431_22034">
<rect width="56" height="56" fill="white"/>
</clipPath>
</defs>
</svg>
