<svg width="59" height="56" viewBox="0 0 59 56" fill="none" xmlns="http://www.w3.org/2000/svg">
<path d="M47.0411 27.5914L40.9347 19.4951L33.1816 29.8556V32.5315V34.2468V45.4992H37.5041V36.854H44.4338V45.4992H48.8249V34.2468V29.8556L47.0411 27.5914Z" fill="#E2F3FF"/>
<path d="M40.936 25.6016C41.8965 25.6016 42.6512 26.3563 42.6512 27.3169C42.6512 28.2774 41.8965 29.0322 40.936 29.0322C39.9754 29.0322 39.2207 28.2774 39.2207 27.3169C39.2207 26.3563 39.9754 25.6016 40.936 25.6016Z" fill="white"/>
<path d="M37.5059 36.8545L40.9364 41.1771L37.5059 45.4996V36.8545Z" fill="white"/>
<path d="M44.4347 36.8545V45.4996L40.9355 41.1771L44.4347 36.8545Z" fill="white"/>
<path d="M40.9364 41.1768L44.4356 45.4993H37.5059L40.9364 41.1768Z" fill="white"/>
<path d="M44.4356 36.8545L40.9364 41.1771L37.5059 36.8545H44.4356Z" fill="white"/>
<path d="M8.89453 41.1775V29.8564H33.1828V32.4637V34.179V45.5687H8.89453V41.1775ZM30.5756 41.1775C30.5756 41.1089 30.5756 40.9716 30.507 40.903C30.3698 40.56 30.0267 40.2855 29.6836 40.2855C29.615 40.2855 29.4778 40.2855 29.4092 40.3541C29.0661 40.4914 28.7917 40.8344 28.7917 41.1775C28.7917 41.2461 28.7917 41.3833 28.8603 41.4519C28.9975 41.9322 29.4778 42.1381 29.9581 42.0008C30.3697 41.8636 30.5756 41.5205 30.5756 41.1775ZM14.9323 34.2476C14.9323 34.179 14.9323 34.0418 14.8637 33.9732C14.7265 33.6301 14.3834 33.3557 14.0404 33.3557C13.9717 33.3557 13.8345 33.3557 13.7659 33.4243C13.4229 33.5615 13.1484 33.9046 13.1484 34.2476C13.1484 34.3162 13.1484 34.4535 13.217 34.5221C13.3542 35.0024 13.8345 35.2082 14.3148 35.071C14.7265 34.9338 14.9323 34.5907 14.9323 34.2476Z" fill="white"/>
<path d="M16.6489 7.35059C17.6094 7.35059 18.3641 8.10532 18.3641 9.06589C18.3641 10.0265 17.6094 10.7812 16.6489 10.7812C15.6883 10.7812 14.9336 10.0265 14.9336 9.06589C14.9336 8.10532 15.6883 7.35059 16.6489 7.35059Z" fill="white"/>
<path d="M11.9123 15.1045C12.6671 15.1045 13.2159 15.722 13.2159 16.4081C13.2159 17.1629 12.5984 17.7118 11.9123 17.7118C11.1576 17.7118 10.6087 17.0942 10.6087 16.4081C10.5401 15.722 11.1576 15.1045 11.9123 15.1045Z" fill="white"/>
<path d="M40.1125 19.4951H40.9358L33.1828 29.8556H8.89453L14.9323 19.4951H21.0387H27.9684H30.5756H37.5053H40.1125Z" fill="white"/>
<path d="M47.043 19.4945V27.5908L40.9366 19.4945H40.1133V13.4566L43.6124 9.06543L47.043 13.4566V15.9953V19.4945Z" fill="white"/>
<path d="M37.5059 16.8872V19.4945H30.5762V15.1719V13.4566L34.0067 9.06543L37.5059 13.4566V16.8872Z" fill="white"/>
<path d="M48.7582 8.79231C48.7582 8.86092 48.8268 8.99815 48.8268 9.06677C48.8268 9.40983 48.621 9.75289 48.2094 9.89011C47.7291 10.0273 47.2488 9.8215 47.1116 9.34121C47.1116 9.2726 47.043 9.13538 47.043 9.06677C47.043 8.72371 47.2488 8.38065 47.6605 8.24342C47.7291 8.24342 47.8663 8.1748 47.9349 8.1748C48.278 8.24342 48.621 8.44925 48.7582 8.79231Z" fill="#5F84BE"/>
<path d="M31.3989 8.79231C31.3989 8.86092 31.4675 8.99815 31.4675 9.06677C31.4675 9.40983 31.2616 9.75289 30.85 9.89011C30.3697 10.0273 29.8894 9.8215 29.7522 9.34121C29.7522 9.2726 29.6836 9.13538 29.6836 9.06677C29.6836 8.72371 29.8894 8.38065 30.3011 8.24342C30.3697 8.24342 30.5069 8.1748 30.5755 8.1748C30.9186 8.24342 31.2616 8.44925 31.3989 8.79231Z" fill="#5F84BE"/>
<path d="M30.5063 40.9027C30.5063 40.9713 30.5749 41.1085 30.5749 41.1771C30.5749 41.5202 30.3691 41.8632 29.9574 42.0005C29.4771 42.1377 28.9969 41.9319 28.8596 41.4516C28.8596 41.383 28.791 41.2457 28.791 41.1771C28.791 40.8341 28.9968 40.491 29.4085 40.3538C29.4771 40.3538 29.6143 40.2852 29.683 40.2852C30.0946 40.2852 30.4377 40.491 30.5063 40.9027Z" fill="#5F84BE"/>
<path d="M18.3618 14.0062C18.3618 14.0748 18.4304 14.212 18.4304 14.2806C18.4304 14.6237 18.2245 14.9668 17.8129 15.104C17.3326 15.2412 16.8523 15.0354 16.7151 14.5551C16.7151 14.4865 16.6465 14.3492 16.6465 14.2806C16.6465 13.9376 16.8523 13.5945 17.264 13.4573C17.3326 13.4573 17.4698 13.3887 17.5384 13.3887C17.9501 13.4573 18.2931 13.6631 18.3618 14.0062Z" fill="#5F84BE"/>
<path d="M14.8637 33.973C14.8637 34.0416 14.9323 34.1788 14.9323 34.2474C14.9323 34.5905 14.7265 34.9336 14.3148 35.0708C13.8345 35.208 13.3543 35.0022 13.2171 34.5219C13.2171 34.4533 13.1484 34.316 13.1484 34.2474C13.1484 33.9044 13.3543 33.5613 13.7659 33.4241C13.8346 33.4241 13.9718 33.3555 14.0404 33.3555C14.452 33.3555 14.7951 33.5613 14.8637 33.973Z" fill="#5F84BE"/>
<path d="M33.1841 46.3914H8.89585C8.41557 46.3914 8.00391 45.9797 8.00391 45.4994V29.8558C8.00391 29.3755 8.41557 28.9639 8.89585 28.9639C9.37613 28.9639 9.78779 29.3755 9.78779 29.8558V44.6075H33.2527C33.733 44.6075 34.1447 45.0191 34.1447 45.4994C34.0075 45.9797 33.5958 46.3914 33.1841 46.3914Z" fill="#5F84BE"/>
<path d="M44.4352 46.391C43.9549 46.391 43.5432 45.9793 43.5432 45.499V37.7458H38.3288V45.5676C38.3288 46.0479 37.9171 46.4596 37.4369 46.4596C36.9566 46.4596 36.5449 46.0479 36.5449 45.5676V36.8539C36.5449 36.3736 36.9566 35.9619 37.4369 35.9619H44.3666C44.8468 35.9619 45.2585 36.3736 45.2585 36.8539V45.499C45.3271 45.9793 44.9155 46.391 44.4352 46.391Z" fill="#5F84BE"/>
<path d="M44.4356 46.3916C44.1611 46.3916 43.9553 46.2544 43.7494 46.0485L36.8197 37.4034C36.5453 37.0603 36.6139 36.5114 36.957 36.1684C37.3 35.8939 37.8489 35.9625 38.192 36.3056L45.1217 44.9508C45.3961 45.2938 45.3275 45.8427 44.9844 46.1858C44.8472 46.323 44.6414 46.3916 44.4356 46.3916Z" fill="#5F84BE"/>
<path d="M37.5058 46.3916C37.3 46.3916 37.1628 46.323 36.957 46.1858C36.6139 45.9113 36.5453 45.3624 36.8197 44.9508L43.7494 36.3056C44.0239 35.9625 44.5728 35.8939 44.9844 36.1684C45.3275 36.4428 45.3961 36.9917 45.1217 37.4034L38.192 46.0485C37.9861 46.2544 37.7803 46.3916 37.5058 46.3916Z" fill="#5F84BE"/>
<path d="M27.0777 41.9997H8.89585C8.41557 41.9997 8.00391 41.5881 8.00391 41.1078C8.00391 40.6275 8.41557 40.2158 8.89585 40.2158H27.1464C27.6266 40.2158 28.0383 40.6275 28.0383 41.1078C27.9697 41.5881 27.558 41.9997 27.0777 41.9997Z" fill="#5F84BE"/>
<path d="M33.183 35.071H16.6478C16.1675 35.071 15.7559 34.6593 15.7559 34.1791C15.7559 33.6988 16.1675 33.2871 16.6478 33.2871H33.183C33.6633 33.2871 34.075 33.6988 34.075 34.1791C34.075 34.6593 33.5947 35.071 33.183 35.071Z" fill="#5F84BE"/>
<path d="M47.0424 28.4147C46.5621 28.4147 46.1504 28.0031 46.1504 27.5228V13.6631L43.6118 10.4383L41.0046 13.7317V19.4951C41.0046 19.9754 40.5929 20.3871 40.1126 20.3871C39.6324 20.3871 39.2207 19.9754 39.2207 19.4951V13.3886C39.2207 13.1828 39.2893 12.977 39.4265 12.8397L42.9257 8.44853C43.0629 8.24269 43.3374 8.10547 43.6118 8.10547C43.8863 8.10547 44.0921 8.24269 44.2979 8.44853L47.7971 12.8397C47.9343 12.977 48.0029 13.1828 48.0029 13.3886V27.5228C47.9343 28.0717 47.5226 28.4147 47.0424 28.4147Z" fill="#5F84BE"/>
<path d="M37.5052 20.3871C37.025 20.3871 36.6133 19.9754 36.6133 19.4951V13.7317L34.0747 10.4383L31.4675 13.7317V19.4951C31.4675 19.9754 31.0558 20.3871 30.5755 20.3871C30.0953 20.3871 29.6836 19.9754 29.6836 19.4951V13.3886C29.6836 13.1828 29.7522 12.977 29.8894 12.8397L33.3886 8.44853C33.5258 8.24269 33.8002 8.10547 34.0747 8.10547C34.3491 8.10547 34.555 8.24269 34.7608 8.44853L38.26 12.8397C38.3972 12.977 38.4658 13.1828 38.4658 13.3886V19.4951C38.3972 19.9754 37.9855 20.3871 37.5052 20.3871Z" fill="#5F84BE"/>
<path d="M21.0384 20.3875C20.5582 20.3875 20.1465 19.9758 20.1465 19.4955V13.389C20.1465 12.9087 20.5582 12.4971 21.0384 12.4971C21.5187 12.4971 21.9304 12.9087 21.9304 13.389V19.4955C21.8618 19.9758 21.4501 20.3875 21.0384 20.3875Z" fill="#5F84BE"/>
<path d="M27.9681 20.3878C27.4878 20.3878 27.0761 19.9761 27.0761 19.4958V13.7324L24.5375 10.439L23.5084 11.7426C23.2339 12.0857 22.685 12.1543 22.2734 11.8799C21.9303 11.6054 21.8617 11.0565 22.1361 10.6449L23.8514 8.51787C23.9886 8.31203 24.2631 8.1748 24.5375 8.1748C24.812 8.1748 25.0178 8.31203 25.2236 8.51787L28.7228 12.9091C28.86 13.0463 28.9286 13.2521 28.9286 13.458V19.4958C28.7914 19.9761 28.3797 20.3878 27.9681 20.3878Z" fill="#5F84BE"/>
<path d="M33.183 30.8172H8.89475C8.62031 30.8172 8.27725 30.68 8.14003 30.4056C8.0028 30.1311 8.0028 29.7881 8.14003 29.5136L14.2464 19.0845C14.3836 18.8101 14.6581 18.6729 15.0011 18.6729H41.0047C41.4849 18.6729 41.8966 19.0845 41.8966 19.5648C41.8966 20.0451 41.4849 20.4568 41.0047 20.4568H15.4128L10.3356 29.1019H33.1144C33.5947 29.1019 34.0064 29.5136 34.0064 29.9939C34.0064 30.4742 33.5947 30.8172 33.183 30.8172Z" fill="#5F84BE"/>
<path d="M48.8262 46.3918H33.1829C32.7027 46.3918 32.291 45.9801 32.291 45.4998V29.8562C32.291 29.6504 32.3596 29.5131 32.4968 29.3073L40.3185 18.8782C40.4557 18.6724 40.7302 18.5352 41.0046 18.5352C41.279 18.5352 41.5535 18.6724 41.6907 18.8782L49.5124 29.3073C49.6496 29.4445 49.7182 29.6504 49.7182 29.7876V45.4312C49.6496 45.9801 49.2379 46.3918 48.8262 46.3918ZM34.0063 44.6765H47.8657V30.1993L40.936 20.9366L34.0063 30.1993V44.6765Z" fill="#5F84BE"/>
<path d="M47.0415 16.8884H43.5423C43.0621 16.8884 42.6504 16.4767 42.6504 15.9964C42.6504 15.5162 43.0621 15.1045 43.5423 15.1045H47.0415C47.5218 15.1045 47.9334 15.5162 47.9334 15.9964C47.9334 16.4767 47.5218 16.8884 47.0415 16.8884Z" fill="#5F84BE"/>
<path d="M33.1827 15.9968H30.5755C30.0953 15.9968 29.6836 15.5851 29.6836 15.1049C29.6836 14.6246 30.0953 14.2129 30.5755 14.2129H33.1827C33.663 14.2129 34.0747 14.6246 34.0747 15.1049C34.0747 15.5851 33.5944 15.9968 33.1827 15.9968Z" fill="#5F84BE"/>
<path d="M37.505 17.7126H34.8978C34.4175 17.7126 34.0059 17.301 34.0059 16.8207C34.0059 16.3404 34.4175 15.9287 34.8978 15.9287H37.505C37.9853 15.9287 38.397 16.3404 38.397 16.8207C38.397 17.301 37.9853 17.7126 37.505 17.7126Z" fill="#5F84BE"/>
<path d="M25.3631 15.9968H20.972C20.4917 15.9968 20.0801 15.5851 20.0801 15.1049C20.0801 14.6246 20.4917 14.2129 20.972 14.2129H25.3631C25.8434 14.2129 26.2551 14.6246 26.2551 15.1049C26.2551 15.5851 25.8434 15.9968 25.3631 15.9968Z" fill="#5F84BE"/>
<path d="M47.0428 20.3874H45.3275C44.8472 20.3874 44.4355 19.9758 44.4355 19.4955C44.4355 19.0152 44.8472 18.6035 45.3275 18.6035H47.0428C47.523 18.6035 47.9347 19.0152 47.9347 19.4955C47.9347 19.9758 47.523 20.3874 47.0428 20.3874Z" fill="#5F84BE"/>
<path d="M11.914 18.6026C10.7477 18.6026 9.78711 17.642 9.78711 16.4756C9.78711 15.3092 10.7477 14.3486 11.914 14.3486C13.0804 14.3486 14.041 15.3092 14.041 16.4756C14.041 17.642 13.0804 18.6026 11.914 18.6026ZM11.914 15.9953C11.7082 15.9953 11.5024 16.2012 11.5024 16.407C11.5024 16.6128 11.7082 16.8187 11.914 16.8187C12.1199 16.8187 12.3257 16.6128 12.3257 16.407C12.3943 16.2012 12.1885 15.9953 11.914 15.9953Z" fill="#5F84BE"/>
<path d="M16.6482 11.6735C15.2074 11.6735 14.041 10.5071 14.041 9.06626C14.041 7.6254 15.2074 6.45898 16.6482 6.45898C18.0891 6.45898 19.2555 7.6254 19.2555 9.06626C19.3241 10.5071 18.1577 11.6735 16.6482 11.6735ZM16.6482 8.24291C16.168 8.24291 15.7563 8.65458 15.7563 9.13486C15.7563 9.61515 16.168 10.0268 16.6482 10.0268C17.1285 10.0268 17.5402 9.61515 17.5402 9.13486C17.6088 8.58596 17.1285 8.24291 16.6482 8.24291Z" fill="#5F84BE"/>
<path d="M48.826 35.071H44.4349C43.9546 35.071 43.543 34.6593 43.543 34.1791C43.543 33.6988 43.9546 33.2871 44.4349 33.2871H48.826C49.3063 33.2871 49.718 33.6988 49.718 34.1791C49.718 34.6593 49.2377 35.071 48.826 35.071Z" fill="#5F84BE"/>
<path d="M37.5057 33.3552H33.1146C32.6343 33.3552 32.2227 32.9435 32.2227 32.4632C32.2227 31.983 32.6343 31.5713 33.1146 31.5713H37.5057C37.986 31.5713 38.3976 31.983 38.3976 32.4632C38.3976 32.9435 37.986 33.3552 37.5057 33.3552Z" fill="#5F84BE"/>
<path d="M40.9373 29.8552C39.4965 29.8552 38.3301 28.6888 38.3301 27.2479C38.3301 25.807 39.4965 24.6406 40.9373 24.6406C42.3781 24.6406 43.5445 25.807 43.5445 27.2479C43.6131 28.6888 42.4467 29.8552 40.9373 29.8552ZM40.9373 26.4246C40.457 26.4246 40.0454 26.8362 40.0454 27.3165C40.0454 27.7968 40.457 28.2085 40.9373 28.2085C41.4176 28.2085 41.8292 27.7968 41.8292 27.3165C41.8979 26.8362 41.4862 26.4246 40.9373 26.4246Z" fill="#5F84BE"/>
</svg>
