<svg width="56" height="61" viewBox="0 0 56 61" fill="none" xmlns="http://www.w3.org/2000/svg">
<path d="M44.1992 50.7349V52H12.1992V50.7349H19.437L23.9432 29.8975C24.0137 29.5728 24.1933 29.282 24.4521 29.0735C24.7109 28.865 25.0334 28.7515 25.3658 28.7517H27.4749V24.6628C26.7502 24.4945 26.1033 24.0875 25.6379 23.5073C25.1726 22.9271 24.9158 22.2074 24.909 21.4637C24.8958 21.0137 24.973 20.5656 25.1361 20.146C25.2993 19.7264 25.545 19.3437 25.8587 19.0208C26.1724 18.6978 26.5478 18.441 26.9625 18.2657C27.3773 18.0903 27.8231 18 28.2734 18C28.7237 18 29.1695 18.0903 29.5843 18.2657C29.999 18.441 30.3744 18.6978 30.6881 19.0208C31.0018 19.3437 31.2475 19.7264 31.4107 20.146C31.5738 20.5656 31.651 21.0137 31.6378 21.4637C31.6314 22.2323 31.358 22.9748 30.8645 23.5642C30.371 24.1535 29.688 24.5532 28.9323 24.6947V28.7517H31.0298C31.3626 28.7508 31.6858 28.8641 31.9452 29.0726C32.2046 29.2811 32.3846 29.5723 32.4552 29.8975L36.9556 50.7349H44.1992ZM30.9541 36.7348H25.4443L24.5047 41.0767H31.8967L30.9541 36.7348ZM24.1876 42.5308L23.2479 46.8786H33.1476L32.2079 42.5308H24.1876ZM26.5381 31.6599L25.7527 35.2807H30.6399L29.8574 31.6599H26.5381ZM22.413 50.7378H33.9825L33.4618 48.3327H22.9309L22.413 50.7378Z" fill="#5F84BE"/>
<path d="M39.2003 29.1883L40.4521 30C42.0676 27.7355 43.0079 25.0964 43.173 22.3636C43.338 19.6308 42.7217 16.9065 41.3894 14.4807L41.1173 14L39.799 14.708L40.053 15.1484C41.2571 17.3435 41.8137 19.8082 41.6635 22.2805C41.5134 24.7527 40.6621 27.1399 39.2003 29.1883Z" fill="#5F84BE"/>
<path d="M35.5175 16.4148C36.5731 17.9408 37.1346 19.7283 37.1321 21.5553C37.1353 23.4196 36.5496 25.2417 35.451 26.785L34.1992 25.9849C35.1173 24.6901 35.6124 23.1656 35.6221 21.6035C35.6318 20.0413 35.1556 18.5114 34.2536 17.2063L35.5175 16.4148Z" fill="#5F84BE"/>
<path d="M19.9353 21.5577C19.9276 23.1338 20.3524 24.677 21.1562 25.9927L20.0354 26.7907C19.0855 25.2357 18.5834 23.4118 18.5925 21.5491C18.6016 19.6865 19.1214 17.8684 20.0865 16.3243L21.1992 17.1367C20.3827 18.4433 19.9429 19.9816 19.9353 21.5577Z" fill="#5F84BE"/>
<path d="M14.548 22.0251C14.6206 24.5805 15.3487 27.064 16.6514 29.1991L15.5332 30C14.0923 27.6402 13.2866 24.8949 13.2059 22.0699C13.1253 19.2448 13.7728 16.4511 15.0763 14L16.2401 14.7254C15.0612 16.9427 14.4754 19.4697 14.548 22.0251Z" fill="#5F84BE"/>
<circle cx="28.1992" cy="22" r="3" fill="#E2F3FF" stroke="#4D80C9" stroke-width="2"/>
<path d="M54.0537 19.5028C54.0537 19.5894 54.1404 19.7628 54.1404 19.8495C54.1404 20.2829 53.8803 20.7163 53.3603 20.8896C52.7535 21.063 52.1467 20.8029 51.9734 20.1962C51.9734 20.1095 51.8867 19.9362 51.8867 19.8495C51.8867 19.4161 52.1468 18.9827 52.6668 18.8093C52.7535 18.8093 52.9269 18.7227 53.0135 18.7227C53.5336 18.7227 53.967 19.0694 54.0537 19.5028Z" fill="#5F84BE"/>
<path d="M49.2852 9.96826C50.7587 9.96826 51.9722 11.1818 51.9722 12.6553C51.9722 14.1289 50.7587 15.3424 49.2852 15.3424C47.8116 15.3424 46.5981 14.1289 46.5981 12.6553C46.5114 11.1818 47.725 9.96826 49.2852 9.96826Z" fill="white"/>
<path d="M49.7197 32.5916C49.7197 32.6783 49.8064 32.8517 49.8064 32.9383C49.8064 33.3717 49.5463 33.8051 49.0263 33.9785C48.4195 34.1519 47.8128 33.8918 47.6394 33.2851C47.6394 33.1984 47.5527 33.025 47.5527 32.9383C47.5527 32.5049 47.8128 32.0715 48.3328 31.8982C48.4195 31.8982 48.5929 31.8115 48.6796 31.8115C49.1996 31.8115 49.633 32.1582 49.7197 32.5916Z" fill="#5F84BE"/>
<path d="M40.8779 8.49446C40.8779 8.58114 40.9646 8.75452 40.9646 8.8412C40.9646 9.2746 40.7046 9.70798 40.1845 9.88134C39.5777 10.0547 38.971 9.79467 38.7976 9.18792C38.7976 9.10124 38.7109 8.92788 38.7109 8.8412C38.7109 8.40781 38.971 7.9744 39.491 7.80104C39.5777 7.80104 39.7511 7.71436 39.8378 7.71436C40.3578 7.71436 40.7912 8.06107 40.8779 8.49446Z" fill="#5F84BE"/>
<path d="M31.085 0.78011C31.085 0.866789 31.1716 1.04014 31.1716 1.12682C31.1716 1.56022 30.9116 1.99363 30.3915 2.16699C29.7847 2.34034 29.178 2.08032 29.0046 1.47356C29.0046 1.38688 28.918 1.2135 28.918 1.12682C28.918 0.693425 29.178 0.260044 29.6981 0.0866847C29.7848 0.0866847 29.9581 0 30.0448 0C30.4782 0.0866794 30.9116 0.346712 31.085 0.78011Z" fill="#5F84BE"/>
<path d="M25.5361 7.368C25.5361 7.45468 25.6228 7.62803 25.6228 7.71471C25.6228 8.14811 25.3628 8.58152 24.8427 8.75488C24.2359 8.92823 23.6292 8.66818 23.4558 8.06142C23.4558 7.97475 23.3691 7.80139 23.3691 7.71471C23.3691 7.28132 23.6292 6.84793 24.1493 6.67458C24.236 6.67458 24.4093 6.58789 24.496 6.58789C25.0161 6.67457 25.4494 6.9346 25.5361 7.368Z" fill="#5F84BE"/>
<path d="M11.4943 5.54736C12.7078 5.54736 13.6613 6.50084 13.6613 7.71435C13.6613 8.92786 12.7078 9.88133 11.4943 9.88133C10.2808 9.88133 9.32732 8.92786 9.32732 7.71435C9.24064 6.50084 10.2808 5.54736 11.4943 5.54736Z" fill="white"/>
<path d="M11.4931 11.0949C9.67278 11.0949 8.19922 9.6214 8.19922 7.80113C8.19922 5.98086 9.67278 4.50732 11.4931 4.50732C13.3133 4.50732 14.7869 5.98086 14.7869 7.80113C14.7869 9.53472 13.2266 11.0949 11.4931 11.0949ZM11.4931 6.67431C10.8863 6.67431 10.3662 7.19438 10.3662 7.80113C10.3662 8.40789 10.8863 8.92795 11.4931 8.92795C12.0998 8.92795 12.6199 8.40789 12.6199 7.80113C12.5332 7.1077 12.0131 6.67431 11.4931 6.67431Z" fill="#5F84BE"/>
<path d="M49.2873 16.4691C47.207 16.4691 45.3867 14.7355 45.3867 12.5685C45.3867 10.4882 47.1203 8.66797 49.2873 8.66797C51.3676 8.66797 53.1879 10.4016 53.1879 12.5685C53.1012 14.8222 51.3676 16.4691 49.2873 16.4691ZM49.2873 11.095C48.4205 11.095 47.6404 11.7884 47.6404 12.7419C47.6404 13.6954 48.3338 14.3888 49.2873 14.3888C50.1541 14.3888 50.9342 13.6954 50.9342 12.7419C50.9342 11.7884 50.1541 11.095 49.2873 11.095Z" fill="#5F84BE"/>
</svg>
