<svg width="56" height="56" viewBox="0 0 56 56" fill="none" xmlns="http://www.w3.org/2000/svg">
<g clip-path="url(#clip0_2434_22221)">
<path d="M8.67449 49.4586H16.3471C15.5984 48.8421 14.976 48.0915 14.5132 47.2468H8.80053C7.35848 47.2468 6.58846 46.5181 6.58846 45.1445V24.3558C6.58846 22.9957 7.34414 22.2119 8.80053 22.2119H23.4314C24.8316 22.2119 25.6297 22.9816 25.6297 24.3558V36.3368C26.4893 36.787 27.2541 37.3932 27.8836 38.1231V24.3142C27.8836 21.4427 26.4415 20 23.5437 20H8.67449C5.79038 20 4.33398 21.4562 4.33398 24.3147V45.1574C4.33398 48.0288 5.79038 49.4586 8.67449 49.4586ZM10.8167 27.8175H21.4296C21.9194 27.8175 22.2975 27.433 22.2975 26.9517C22.2975 26.485 21.9194 26.1274 21.4296 26.1274H10.8167C10.2987 26.1274 9.93434 26.485 9.93434 26.9517C9.93434 27.4324 10.2987 27.8175 10.8167 27.8175ZM10.8167 32.613H21.4296C21.9194 32.613 22.2975 32.2278 22.2975 31.7471C22.2975 31.2799 21.9194 30.9229 21.4296 30.9229H10.8167C10.2987 30.9229 9.93434 31.2805 9.93434 31.7471C9.93434 32.2278 10.2987 32.613 10.8167 32.613ZM21.5974 49.4581C22.8579 49.4581 24.0472 49.1004 25.0275 48.4556L28.1775 51.5603C28.5138 51.8763 28.8214 52 29.1996 52C29.8435 52 30.334 51.5052 30.334 50.8041C30.334 50.5022 30.1799 50.2002 29.9421 49.9663L26.7498 46.834C27.4897 45.7947 27.8856 44.5569 27.8836 43.289C27.8836 39.8677 25.0699 37.1059 21.5974 37.1059C18.1249 37.1059 15.2832 39.8953 15.2832 43.289C15.2832 46.6963 18.1249 49.4581 21.5974 49.4581ZM21.5974 47.493C19.2169 47.493 17.285 45.6111 17.285 43.289C17.285 40.9945 19.2169 39.0845 21.5974 39.0845C23.9355 39.0845 25.8674 40.9945 25.8674 43.289C25.8674 45.6106 23.9499 47.493 21.5974 47.493Z" fill="#FF8533"/>
<path d="M51.7084 12H33.6256C33.283 12 32.9545 12.1361 32.7123 12.3783C32.4701 12.6205 32.334 12.9491 32.334 13.2916V36.5409C32.334 36.8835 32.4701 37.212 32.7123 37.4542C32.9545 37.6964 33.283 37.8325 33.6256 37.8325H51.7084C52.0509 37.8325 52.3795 37.6964 52.6217 37.4542C52.8639 37.212 53 36.8835 53 36.5409V13.2916C53 12.9491 52.8639 12.6205 52.6217 12.3783C52.3795 12.1361 52.0509 12 51.7084 12ZM38.1463 28.7911H47.1877H38.1463ZM38.1463 32.666H42.667H38.1463Z" fill="#FFDEC0"/>
<path d="M38.1463 28.7911H47.1877M38.1463 32.666H42.667M51.7084 12H33.6256C33.283 12 32.9545 12.1361 32.7123 12.3783C32.4701 12.6205 32.334 12.9491 32.334 13.2916V36.5409C32.334 36.8835 32.4701 37.212 32.7123 37.4542C32.9545 37.6964 33.283 37.8325 33.6256 37.8325H51.7084C52.0509 37.8325 52.3795 37.6964 52.6217 37.4542C52.8639 37.212 53 36.8835 53 36.5409V13.2916C53 12.9491 52.8639 12.6205 52.6217 12.3783C52.3795 12.1361 52.0509 12 51.7084 12Z" stroke="#FF8533" stroke-width="2" stroke-linecap="round" stroke-linejoin="round"/>
<path d="M46.5427 17.8125L41.3762 22.979L38.793 20.3958" stroke="#FF8533" stroke-width="2" stroke-linecap="round" stroke-linejoin="round"/>
<path d="M49.833 40.7801C49.833 40.8668 49.9197 41.0401 49.9197 41.1268C49.9197 41.5602 49.6596 41.9936 49.1395 42.167C48.5328 42.3403 47.926 42.0803 47.7527 41.4735C47.7527 41.3869 47.666 41.2135 47.666 41.1268C47.666 40.6934 47.926 40.26 48.4461 40.0867C48.5328 40.0867 48.7062 40 48.7928 40C49.3129 40 49.7463 40.3467 49.833 40.7801Z" fill="#FF8533"/>
<path d="M45.501 53.869C45.501 53.9557 45.5876 54.129 45.5876 54.2157C45.5876 54.6491 45.3276 55.0825 44.8075 55.2559C44.2008 55.4292 43.594 55.1692 43.4206 54.5624C43.4206 54.4757 43.334 54.3024 43.334 54.2157C43.334 53.7823 43.594 53.3489 44.1141 53.1755C44.2008 53.1755 44.3741 53.0889 44.4608 53.0889C44.9809 53.0889 45.4143 53.4356 45.501 53.869Z" fill="#FF8533"/>
<path d="M37.0127 5.49446C37.0127 5.58114 37.0994 5.75452 37.0994 5.8412C37.0994 6.2746 36.8393 6.70798 36.3193 6.88134C35.7125 7.0547 35.1057 6.79467 34.9324 6.18792C34.9324 6.10124 34.8457 5.92788 34.8457 5.8412C34.8457 5.40781 35.1057 4.9744 35.6258 4.80104C35.7125 4.80104 35.8858 4.71436 35.9725 4.71436C36.4926 4.71436 36.926 5.06107 37.0127 5.49446Z" fill="#FF8533"/>
<path d="M21.6689 4.368C21.6689 4.45468 21.7556 4.62803 21.7556 4.71471C21.7556 5.14811 21.4956 5.58152 20.9755 5.75488C20.3688 5.92823 19.762 5.66818 19.5886 5.06142C19.5886 4.97475 19.502 4.80139 19.502 4.71471C19.502 4.28132 19.762 3.84793 20.2821 3.67458C20.3688 3.67458 20.5421 3.58789 20.6288 3.58789C21.1489 3.67457 21.5823 3.9346 21.6689 4.368Z" fill="#FF8533"/>
<path d="M7.62712 2.54736C8.84063 2.54736 9.79411 3.50084 9.79411 4.71435C9.79411 5.92786 8.84063 6.88133 7.62712 6.88133C6.41361 6.88133 5.46013 5.92786 5.46013 4.71435C5.37346 3.50084 6.41361 2.54736 7.62712 2.54736Z" fill="white"/>
<path d="M7.62782 8.09494C5.80755 8.09494 4.33398 6.6214 4.33398 4.80113C4.33398 2.98086 5.80755 1.50732 7.62782 1.50732C9.44809 1.50732 10.9216 2.98086 10.9216 4.80113C10.9216 6.53472 9.36141 8.09494 7.62782 8.09494ZM7.62782 3.67431C7.02106 3.67431 6.50097 4.19438 6.50097 4.80113C6.50097 5.40789 7.02106 5.92795 7.62782 5.92795C8.23457 5.92795 8.75464 5.40789 8.75464 4.80113C8.66796 4.1077 8.14789 3.67431 7.62782 3.67431Z" fill="#FF8533"/>
<path d="M16.334 15C15.2287 15 14.334 14.1053 14.334 13C14.334 11.8947 15.2287 11 16.334 11C17.4393 11 18.334 11.8947 18.334 13C18.334 14.0526 17.3866 15 16.334 15ZM16.334 12.3158C15.9656 12.3158 15.6498 12.6316 15.6498 13C15.6498 13.3684 15.9656 13.6842 16.334 13.6842C16.7024 13.6842 17.0182 13.3684 17.0182 13C16.9656 12.5789 16.6498 12.3158 16.334 12.3158Z" fill="#FF8533"/>
<path d="M37.334 46C36.2287 46 35.334 45.1053 35.334 44C35.334 42.8947 36.2287 42 37.334 42C38.4393 42 39.334 42.8947 39.334 44C39.334 45.0526 38.3866 46 37.334 46ZM37.334 43.3158C36.9656 43.3158 36.6498 43.6316 36.6498 44C36.6498 44.3684 36.9656 44.6842 37.334 44.6842C37.7024 44.6842 38.0182 44.3684 38.0182 44C37.9656 43.5789 37.6498 43.3158 37.334 43.3158Z" fill="#FF8533"/>
<path d="M47.2346 9.80115C45.1543 9.80115 43.334 8.06756 43.334 5.90057C43.334 3.82027 45.0676 2 47.2346 2C49.3149 2 51.1351 3.73359 51.1351 5.90057C51.0485 8.15424 49.3149 9.80115 47.2346 9.80115ZM47.2346 4.42701C46.3678 4.42701 45.5876 5.12047 45.5876 6.07394C45.5876 7.02742 46.2811 7.72085 47.2346 7.72085C48.1014 7.72085 48.8815 7.02742 48.8815 6.07394C48.8815 5.12047 48.1014 4.42701 47.2346 4.42701Z" fill="#FF8533"/>
</g>
<defs>
<clipPath id="clip0_2434_22221">
<rect width="56" height="56" fill="white"/>
</clipPath>
</defs>
</svg>
