<svg width="58" height="58" viewBox="0 0 58 58" fill="none" xmlns="http://www.w3.org/2000/svg">
<path d="M28.0471 21.6148C28.0471 18.5269 25.5202 16 22.4324 16H11.2012V36.2152H22.5015C28.0471 36.2152 28.0471 41.8316 28.0471 41.8316C28.0471 41.8316 28.0471 36.2152 33.6619 36.2152H44.8931V16H33.6619C32.1741 16.0044 30.7486 16.5974 29.6966 17.6494C28.6446 18.7014 28.0516 20.127 28.0471 21.6148Z" fill="#E2F3FF"/>
<path d="M28.0471 21.6148C28.0471 18.5269 25.5202 16 22.4324 16H11.2012V36.2152H22.5015C28.0471 36.2152 28.0471 41.8316 28.0471 41.8316M28.0471 21.6148C28.0471 18.5252 30.574 16 33.6619 16H44.8931V36.2152H33.6619C28.0471 36.2152 28.0471 41.8316 28.0471 41.8316M28.0471 21.6148V41.8316V21.6148ZM31.2058 43.7251C31.5573 42.9971 32.1048 42.3816 32.7869 41.9477C33.469 41.5138 34.2585 41.2788 35.0669 41.269H43.2085M24.8885 43.7251C24.5434 42.9922 23.9974 42.3723 23.3139 41.9375C22.6304 41.5027 21.8375 41.2709 21.0274 41.269H12.8858" fill="#E2F3FF"/>
<path d="M28.0471 21.6148C28.0471 18.5269 25.5202 16 22.4324 16H11.2012V36.2152H22.5015C28.0471 36.2152 28.0471 41.8316 28.0471 41.8316M28.0471 21.6148C28.0471 18.5252 30.574 16 33.6619 16H44.8931V36.2152H33.6619C28.0471 36.2152 28.0471 41.8316 28.0471 41.8316M28.0471 21.6148V41.8316M31.2058 43.7251C31.5573 42.9971 32.1048 42.3816 32.7869 41.9477C33.469 41.5138 34.2585 41.2788 35.0669 41.269H43.2085M24.8885 43.7251C24.5434 42.9922 23.9974 42.3723 23.3139 41.9375C22.6304 41.5027 21.8375 41.2709 21.0274 41.269H12.8858" stroke="#5F84BE" stroke-width="1.44394" stroke-miterlimit="10" stroke-linecap="round" stroke-linejoin="round"/>
<rect x="17.1992" y="21" width="21.2633" height="13" rx="1" fill="white"/>
<path d="M23.0664 29.3531V25.6495H25.2581L25.2328 26.193H23.7464V27.2447H25.1595V27.7832H23.7464V29.3531H23.0664Z" fill="#5F84BE"/>
<path d="M26.5447 28.8045H27.0351C27.4581 28.8045 27.78 28.6941 28.0008 28.4733C28.2215 28.2509 28.3319 27.9273 28.3319 27.5026C28.3319 27.0475 28.2182 26.7172 27.9907 26.5116C27.7632 26.3043 27.4202 26.2006 26.9618 26.2006H26.5447V28.8045ZM25.8597 29.3531V25.6495H26.9315C27.2551 25.6495 27.5449 25.6866 27.8011 25.7607C28.0572 25.8349 28.2772 25.947 28.4608 26.097C28.6462 26.2453 28.7878 26.4374 28.8855 26.6734C28.985 26.9076 29.0347 27.179 29.0347 27.4874C29.0347 28.0857 28.8543 28.5466 28.4937 28.8702C28.1331 29.1921 27.6334 29.3531 26.9947 29.3531H25.8597Z" fill="#5F84BE"/>
<path d="M29.1459 29.3531L30.5084 25.647H31.2541L32.5964 29.3531H31.8937L31.5271 28.3065H30.2303L29.8613 29.3531H29.1459ZM30.4022 27.7958H31.3527C31.0494 26.8234 30.8935 26.3211 30.8851 26.2891L30.4022 27.7958Z" fill="#5F84BE"/>
<path d="M56.0537 15.5028C56.0537 15.5894 56.1404 15.7628 56.1404 15.8495C56.1404 16.2829 55.8803 16.7163 55.3603 16.8896C54.7535 17.063 54.1467 16.8029 53.9734 16.1962C53.9734 16.1095 53.8867 15.9362 53.8867 15.8495C53.8867 15.4161 54.1468 14.9827 54.6668 14.8093C54.7535 14.8093 54.9269 14.7227 55.0135 14.7227C55.5336 14.7227 55.967 15.0694 56.0537 15.5028Z" fill="#5F84BE"/>
<path d="M54.1016 1.30029C55.5751 1.30029 56.7886 2.51381 56.7886 3.98736C56.7886 5.46091 55.5751 6.67443 54.1016 6.67443C52.628 6.67443 51.4145 5.46091 51.4145 3.98736C51.3278 2.51381 52.5414 1.30029 54.1016 1.30029Z" fill="white"/>
<path d="M51.7197 28.5916C51.7197 28.6783 51.8064 28.8517 51.8064 28.9383C51.8064 29.3717 51.5463 29.8051 51.0263 29.9785C50.4195 30.1519 49.8128 29.8918 49.6394 29.2851C49.6394 29.1984 49.5527 29.025 49.5527 28.9383C49.5527 28.5049 49.8128 28.0715 50.3328 27.8982C50.4195 27.8982 50.5929 27.8115 50.6796 27.8115C51.1996 27.8115 51.633 28.1582 51.7197 28.5916Z" fill="#5F84BE"/>
<path d="M42.8779 4.49446C42.8779 4.58114 42.9646 4.75452 42.9646 4.8412C42.9646 5.2746 42.7046 5.70798 42.1845 5.88134C41.5777 6.0547 40.971 5.79467 40.7976 5.18792C40.7976 5.10124 40.7109 4.92788 40.7109 4.8412C40.7109 4.40781 40.971 3.9744 41.491 3.80104C41.5777 3.80104 41.7511 3.71436 41.8378 3.71436C42.3578 3.71436 42.7912 4.06107 42.8779 4.49446Z" fill="#5F84BE"/>
<path d="M57.085 45.7801C57.085 45.8668 57.1716 46.0401 57.1716 46.1268C57.1716 46.5602 56.9116 46.9936 56.3915 47.167C55.7847 47.3403 55.178 47.0803 55.0046 46.4736C55.0046 46.3869 54.918 46.2135 54.918 46.1268C54.918 45.6934 55.178 45.26 55.6981 45.0867C55.7848 45.0867 55.9581 45 56.0448 45C56.4782 45.0867 56.9116 45.3467 57.085 45.7801Z" fill="#5F84BE"/>
<path d="M51.5361 52.368C51.5361 52.4547 51.6228 52.628 51.6228 52.7147C51.6228 53.1481 51.3628 53.5815 50.8427 53.7549C50.2359 53.9282 49.6292 53.6682 49.4558 53.0614C49.4558 52.9747 49.3691 52.8014 49.3691 52.7147C49.3691 52.2813 49.6292 51.8479 50.1493 51.6746C50.236 51.6746 50.4093 51.5879 50.496 51.5879C51.0161 51.6746 51.4494 51.9346 51.5361 52.368Z" fill="#5F84BE"/>
<path d="M13.4943 1.54736C14.7078 1.54736 15.6613 2.50084 15.6613 3.71435C15.6613 4.92786 14.7078 5.88133 13.4943 5.88133C12.2808 5.88133 11.3273 4.92786 11.3273 3.71435C11.2406 2.50084 12.2808 1.54736 13.4943 1.54736Z" fill="white"/>
<path d="M37.4931 56.0949C35.6728 56.0949 34.1992 54.6214 34.1992 52.8011C34.1992 50.9809 35.6728 49.5073 37.4931 49.5073C39.3133 49.5073 40.7869 50.9809 40.7869 52.8011C40.7869 54.5347 39.2266 56.0949 37.4931 56.0949ZM37.4931 51.6743C36.8863 51.6743 36.3662 52.1944 36.3662 52.8011C36.3662 53.4079 36.8863 53.928 37.4931 53.928C38.0998 53.928 38.6199 53.4079 38.6199 52.8011C38.5332 52.1077 38.0131 51.6743 37.4931 51.6743Z" fill="#5F84BE"/>
<path d="M54.0998 7.80115C52.0195 7.80115 50.1992 6.06756 50.1992 3.90057C50.1992 1.82027 51.9328 0 54.0998 0C56.1801 0 58.0004 1.73359 58.0004 3.90057C57.9137 6.15424 56.1801 7.80115 54.0998 7.80115ZM54.0998 2.42701C53.233 2.42701 52.4529 3.12047 52.4529 4.07394C52.4529 5.02742 53.1463 5.72085 54.0998 5.72085C54.9666 5.72085 55.7467 5.02742 55.7467 4.07394C55.7467 3.12047 54.9666 2.42701 54.0998 2.42701Z" fill="#5F84BE"/>
</svg>
