<svg width="56" height="56" viewBox="0 0 56 56" fill="none" xmlns="http://www.w3.org/2000/svg">
<g clip-path="url(#clip0_2431_22132)">
<path d="M40.3421 46.4584H35.4849C34.8408 46.4584 34.2231 46.1969 33.7677 45.7313C33.3122 45.2657 33.0564 44.6342 33.0564 43.9757V35.286H35.4849V43.9757H40.3421V32.8033H42.7706V25.355C42.7706 25.0258 42.6427 24.71 42.415 24.4772C42.1873 24.2444 41.8784 24.1136 41.5564 24.1136H33.7606L28.1992 34.0447L22.6378 24.1136H14.8421C14.52 24.1136 14.2112 24.2444 13.9834 24.4772C13.7557 24.71 13.6278 25.0258 13.6278 25.355V32.8033H16.0564V43.9757H20.9135V35.286H23.3421V43.9757C23.3421 44.6342 23.0862 45.2657 22.6308 45.7313C22.1753 46.1969 21.5576 46.4584 20.9135 46.4584H16.0564C15.4123 46.4584 14.7945 46.1969 14.3391 45.7313C13.8837 45.2657 13.6278 44.6342 13.6278 43.9757V35.286C12.9837 35.286 12.366 35.0245 11.9105 34.5588C11.4551 34.0932 11.1992 33.4617 11.1992 32.8033V25.355C11.1992 24.3673 11.583 23.42 12.2662 22.7216C12.9494 22.0232 13.8759 21.6309 14.8421 21.6309H24.0464L28.1992 29.0791L32.3521 21.6309H41.5564C42.5225 21.6309 43.4491 22.0232 44.1323 22.7216C44.8154 23.42 45.1992 24.3673 45.1992 25.355V32.8033C45.1992 33.4617 44.9434 34.0932 44.4879 34.5588C44.0325 35.0245 43.4147 35.286 42.7706 35.286V43.9757C42.7706 44.6342 42.5148 45.2657 42.0593 45.7313C41.6039 46.1969 40.9862 46.4584 40.3421 46.4584Z" fill="#5F84BE"/>
<path d="M54.0537 16.9618C54.0537 17.0484 54.1404 17.2218 54.1404 17.3085C54.1404 17.7419 53.8803 18.1753 53.3603 18.3486C52.7535 18.522 52.1467 18.2619 51.9734 17.6552C51.9734 17.5685 51.8867 17.3951 51.8867 17.3085C51.8867 16.8751 52.1468 16.4417 52.6668 16.2683C52.7535 16.2683 52.9269 16.1816 53.0135 16.1816C53.5336 16.1816 53.967 16.5284 54.0537 16.9618Z" fill="#5F84BE"/>
<path d="M49.2852 7.42773C50.7587 7.42773 51.9722 8.64125 51.9722 10.1148C51.9722 11.5884 50.7587 12.8019 49.2852 12.8019C47.8116 12.8019 46.5981 11.5884 46.5981 10.1148C46.5114 8.64125 47.725 7.42773 49.2852 7.42773Z" fill="white"/>
<path d="M49.7197 30.0496C49.7197 30.1363 49.8064 30.3097 49.8064 30.3964C49.8064 30.8298 49.5463 31.2632 49.0263 31.4365C48.4195 31.6099 47.8128 31.3498 47.6394 30.7431C47.6394 30.6564 47.5527 30.483 47.5527 30.3964C47.5527 29.963 47.8128 29.5295 48.3328 29.3562C48.4195 29.3562 48.5929 29.2695 48.6796 29.2695C49.1996 29.2695 49.633 29.6162 49.7197 30.0496Z" fill="#5F84BE"/>
<path d="M40.8779 5.95296C40.8779 6.03964 40.9646 6.21302 40.9646 6.2997C40.9646 6.7331 40.7046 7.16648 40.1845 7.33984C39.5777 7.5132 38.971 7.25317 38.7976 6.64641C38.7976 6.55973 38.7109 6.38638 38.7109 6.2997C38.7109 5.8663 38.971 5.4329 39.491 5.25954C39.5777 5.25954 39.7511 5.17285 39.8378 5.17285C40.3578 5.17285 40.7912 5.51956 40.8779 5.95296Z" fill="#5F84BE"/>
<path d="M25.5361 4.82698C25.5361 4.91366 25.6228 5.08702 25.6228 5.1737C25.6228 5.60709 25.3628 6.0405 24.8427 6.21386C24.2359 6.38722 23.6292 6.12717 23.4558 5.52041C23.4558 5.43373 23.3691 5.26038 23.3691 5.1737C23.3691 4.7403 23.6292 4.30692 24.1493 4.13356C24.236 4.13356 24.4093 4.04688 24.496 4.04688C25.0161 4.13355 25.4494 4.39359 25.5361 4.82698Z" fill="#5F84BE"/>
<path d="M11.4943 3.00586C12.7078 3.00586 13.6613 3.95933 13.6613 5.17284C13.6613 6.38636 12.7078 7.33983 11.4943 7.33983C10.2808 7.33983 9.32732 6.38636 9.32732 5.17284C9.24064 3.95933 10.2808 3.00586 11.4943 3.00586Z" fill="white"/>
<path d="M11.4931 8.55343C9.67278 8.55343 8.19922 7.0799 8.19922 5.25963C8.19922 3.43936 9.67278 1.96582 11.4931 1.96582C13.3133 1.96582 14.7869 3.43936 14.7869 5.25963C14.7869 6.99322 13.2266 8.55343 11.4931 8.55343ZM11.4931 4.13281C10.8863 4.13281 10.3662 4.65287 10.3662 5.25963C10.3662 5.86638 10.8863 6.38645 11.4931 6.38645C12.0998 6.38645 12.6199 5.86638 12.6199 5.25963C12.5332 4.56619 12.0131 4.13281 11.4931 4.13281Z" fill="#5F84BE"/>
<path d="M49.2873 13.9281C47.207 13.9281 45.3867 12.1945 45.3867 10.0275C45.3867 7.94722 47.1203 6.12695 49.2873 6.12695C51.3676 6.12695 53.1879 7.86054 53.1879 10.0275C53.1012 12.2812 51.3676 13.9281 49.2873 13.9281ZM49.2873 8.55397C48.4205 8.55397 47.6404 9.24742 47.6404 10.2009C47.6404 11.1544 48.3338 11.8478 49.2873 11.8478C50.1541 11.8478 50.9342 11.1544 50.9342 10.2009C50.9342 9.24742 50.1541 8.55397 49.2873 8.55397Z" fill="#5F84BE"/>
<circle cx="18.1992" cy="15.459" r="5" fill="#5F84BE"/>
<circle cx="38.1992" cy="15.459" r="5" fill="#5F84BE"/>
<rect x="35.1992" y="12.459" width="6" height="6" rx="3" fill="#E2F3FF"/>
<rect x="15.1992" y="12.459" width="6" height="6" rx="3" fill="#E2F3FF"/>
</g>
<defs>
<clipPath id="clip0_2431_22132">
<rect width="56" height="56" fill="white"/>
</clipPath>
</defs>
</svg>
