<svg width="59" height="59" viewBox="0 0 59 59" fill="none" xmlns="http://www.w3.org/2000/svg">
<path d="M27.6002 49.2002H14.7002C16.4002 49.2002 18.0002 48.6002 19.2002 47.4002C20.3002 46.2002 20.9002 44.7002 20.9002 43.2002H21.5002C21.5002 44.8002 22.0002 46.3002 23.2002 47.4002C24.3002 48.6002 25.9002 49.2002 27.6002 49.2002Z" fill="white"/>
<path d="M42.8004 49.2002H29.9004C31.6004 49.2002 33.2004 48.6002 34.4004 47.4002C35.5004 46.2002 36.1004 44.7002 36.1004 43.2002H36.7004C36.7004 44.8002 37.2004 46.3002 38.4004 47.4002C39.5004 48.6002 41.1004 49.2002 42.8004 49.2002Z" fill="white"/>
<path d="M5.09958 1.2998C6.49958 1.2998 7.59958 2.3998 7.59958 3.7998C7.59958 5.1998 6.49958 6.2998 5.09958 6.2998C3.69958 6.2998 2.59958 5.1998 2.59958 3.7998C2.49958 2.3998 3.69958 1.2998 5.09958 1.2998Z" fill="white"/>
<path d="M53.6998 8.8999C54.7998 8.8999 55.5998 9.7999 55.5998 10.7999C55.5998 11.8999 54.6998 12.6999 53.6998 12.6999C52.5998 12.6999 51.7998 11.7999 51.7998 10.7999C51.7998 9.6999 52.6998 8.8999 53.6998 8.8999Z" fill="white"/>
<path d="M45.0002 49.2002H42.8002H29.8002H27.6002H14.7002H12.4002H1.2002V53.2002V56.9002H56.9002V49.2002H45.0002Z" fill="white"/>
<path d="M1.2002 49.2001V31.6001H13.6002H17.1002H39.7002H43.3002H56.9002V49.2001H1.2002Z" fill="#E2F3FF"/>
<path d="M51.1001 41.9002C51.5001 43.9002 51.0001 45.9002 49.6001 47.5002C48.4001 48.7002 46.8001 49.3002 45.1001 49.3002C44.8001 49.3002 44.4001 49.3002 44.1001 49.2002C43.7001 47.2002 44.2001 45.2002 45.6001 43.6002C47.0001 42.2002 49.1001 41.5002 51.1001 41.9002Z" fill="white"/>
<path d="M35.9003 41.9001C36.0003 42.3001 36.0003 42.7001 36.0003 43.1001C36.0003 44.7001 35.5003 46.2001 34.3003 47.3001C33.1003 48.5001 31.5003 49.1001 29.8003 49.1001C29.5003 49.1001 29.1003 49.1001 28.8003 49.0001C28.4003 47.0001 28.9003 45.0001 30.3003 43.4001C31.9003 42.2001 33.9003 41.5001 35.9003 41.9001Z" fill="white"/>
<path d="M20.7001 41.9001C20.8001 42.3001 20.8001 42.7001 20.8001 43.1001C20.8001 44.7001 20.3001 46.2001 19.1001 47.3001C17.9001 48.5001 16.3001 49.1001 14.6001 49.1001C14.3001 49.1001 13.9001 49.1001 13.6001 49.0001C13.2001 47.0001 13.7001 45.0001 15.1001 43.4001C16.7001 42.2001 18.7001 41.5001 20.7001 41.9001Z" fill="white"/>
<path d="M42.2 43.6C43.6 45.1 44.1 47.1 43.7 49.2C43.4 49.2 43 49.3 42.7 49.3C41 49.3 39.4 48.7 38.2 47.5C37.1 46.3 36.5 44.8 36.5 43.3C36.5 42.9 36.5 42.5 36.6 42.1C38.8 41.5 40.8 42.2 42.2 43.6Z" fill="white"/>
<path d="M55.2 1.69983C55.4 1.89983 55.6 2.19982 55.6 2.59982C55.6 2.99982 55.5 3.29982 55.2 3.49982C54.9 3.69982 54.7 3.89981 54.3 3.89981C53.6 3.89981 53 3.29982 53 2.59982C53 2.29982 53.1 1.89983 53.4 1.69983C53.6 1.49983 53.9 1.2998 54.3 1.2998C54.7 1.2998 55 1.49983 55.2 1.69983Z" fill="#5F84BE"/>
<path d="M54.1004 18.3998C54.7004 21.9998 53.8004 25.6998 51.3004 28.2998C49.2004 30.4998 46.2004 31.5998 43.2004 31.5998C42.6004 31.5998 42.0004 31.5998 41.4004 31.4998V26.9998C41.8004 24.9998 42.7004 23.0998 44.2004 21.4998C44.7004 20.9998 45.2004 20.4998 45.8004 20.1998C48.3004 18.5998 51.2004 17.9998 54.1004 18.3998Z" fill="white"/>
<path d="M41.4999 7C44.4999 9.2 46.5999 12.8 46.5999 16.6C46.5999 17.9 46.3998 19.1 45.8998 20.3C45.2998 20.7 44.7999 21.1 44.2999 21.6C42.7999 23.1 41.8999 25 41.4999 27.1C41.0999 25.1 40.1999 23.2 38.6999 21.6C38.1999 21.1 37.6999 20.6 37.0999 20.2C36.6999 19 36.4999 17.8 36.4999 16.5C36.3999 12.6 38.2999 9.2 41.4999 7Z" fill="#E2F3FF"/>
<path d="M41.4996 27.0999V31.5999C40.8996 31.6999 40.2996 31.6999 39.6996 31.6999C36.6996 31.6999 33.6996 30.5999 31.5996 28.3999C29.5996 26.2999 28.5996 23.4999 28.5996 20.6999C28.5996 19.9999 28.6996 19.1999 28.7996 18.4999C31.6996 18.0999 34.6996 18.6999 36.9996 20.2999C37.5996 20.6999 38.0996 21.1999 38.5996 21.6999C40.1996 23.0999 41.0996 25.0999 41.4996 27.0999Z" fill="white"/>
<path d="M37.4998 2.89999C37.6998 3.09999 37.8998 3.39999 37.8998 3.79999C37.8998 4.09999 37.7998 4.50001 37.4998 4.70001C37.1998 4.90001 36.9998 5.10001 36.5998 5.10001C35.8998 5.10001 35.2998 4.49999 35.2998 3.79999C35.2998 3.49999 35.3998 3.09999 35.6998 2.89999C35.8998 2.69999 36.1998 2.5 36.5998 2.5C36.9998 2.5 37.2998 2.69999 37.4998 2.89999Z" fill="#5F84BE"/>
<path d="M36.2 52.2999C36.4 52.4999 36.6 52.7999 36.6 53.1999C36.6 53.4999 36.5 53.8999 36.2 54.0999C35.9 54.2999 35.7 54.4999 35.3 54.4999C34.6 54.4999 34 53.8999 34 53.1999C34 52.8999 34.1 52.4999 34.4 52.2999C34.6 52.0999 34.9 51.8999 35.3 51.8999C35.7 51.8999 36 52.0999 36.2 52.2999Z" fill="#5F84BE"/>
<path d="M33.7 35.7999C33.9 35.9999 34.1 36.2999 34.1 36.6999C34.1 37.0999 34 37.3999 33.7 37.5999C33.4 37.7999 33.2 37.9999 32.8 37.9999C32.1 37.9999 31.5 37.3999 31.5 36.6999C31.5 36.3999 31.6 35.9999 31.9 35.7999C32.1 35.5999 32.4 35.3999 32.8 35.3999C33.2 35.3999 33.5 35.5999 33.7 35.7999Z" fill="#5F84BE"/>
<path d="M26.9998 43.6C28.3998 45.1 28.8998 47.1 28.4998 49.2C28.1998 49.2 27.7998 49.3 27.4998 49.3C25.7998 49.3 24.1998 48.7 22.9998 47.5C21.8998 46.3 21.2998 44.8 21.2998 43.3C21.2998 42.9 21.2998 42.5 21.3998 42.1C23.5998 41.5 25.5998 42.2 26.9998 43.6Z" fill="white"/>
<path d="M27.9002 18.3998C28.0002 19.0998 28.1002 19.8998 28.1002 20.5998C28.1002 23.3998 27.1002 26.1998 25.1002 28.2998C23.0002 30.4998 20.0002 31.5998 17.0002 31.5998C16.4002 31.5998 15.8002 31.5998 15.2002 31.4998V26.9998C15.6002 24.9998 16.5002 23.0998 18.0002 21.4998C18.5002 20.9998 19.0002 20.4998 19.6002 20.1998C22.1002 18.5998 25.0002 17.9998 27.9002 18.3998Z" fill="white"/>
<path d="M27.4002 6.80003C27.6002 7.00003 27.8002 7.30006 27.8002 7.70006C27.8002 8.00006 27.7002 8.40005 27.4002 8.60005C27.1002 8.80005 26.9002 9.00004 26.5002 9.00004C25.8002 9.00004 25.2002 8.40006 25.2002 7.70006C25.2002 7.40006 25.3002 7.00003 25.6002 6.80003C25.9002 6.60003 26.1002 6.40004 26.5002 6.40004C26.9002 6.30004 27.2002 6.50003 27.4002 6.80003Z" fill="#5F84BE"/>
<path d="M22.4002 0.399994C22.6002 0.599994 22.8002 0.899988 22.8002 1.29999C22.8002 1.69999 22.7002 2.00001 22.4002 2.20001C22.1002 2.40001 21.9002 2.60001 21.5002 2.60001C20.8002 2.60001 20.2002 1.99999 20.2002 1.29999C20.2002 0.999988 20.3002 0.599994 20.6002 0.399994C20.8002 0.199994 21.1002 0 21.5002 0C21.9002 0 22.2002 0.199994 22.4002 0.399994Z" fill="#5F84BE"/>
<path d="M15.3005 7C18.3005 9.2 20.4005 12.8 20.4005 16.6C20.4005 17.9 20.2005 19.1 19.7005 20.3C19.1005 20.7 18.6005 21.1 18.1005 21.6C16.6005 23.1 15.7005 25 15.3005 27.1C14.9005 25.1 14.0005 23.2 12.5005 21.6C12.0005 21.1 11.4005 20.6 10.9005 20.2C10.5005 19 10.3005 17.8 10.3005 16.5C10.2005 12.6 12.2005 9.2 15.3005 7Z" fill="#E2F3FF"/>
<path d="M15.3001 27.0999V31.5999C14.7001 31.6999 14.1001 31.6999 13.5001 31.6999C10.5001 31.6999 7.5001 30.5999 5.4001 28.3999C2.9001 25.7999 2.00011 22.0999 2.60011 18.4999C5.50011 18.0999 8.5001 18.6999 10.8001 20.2999C11.4001 20.6999 11.9001 21.1999 12.4001 21.6999C14.1001 23.0999 15.0001 25.0999 15.3001 27.0999Z" fill="white"/>
<path d="M11.8003 43.6002C13.2003 45.1002 13.7003 47.1002 13.3003 49.2002C13.0003 49.2002 12.6003 49.3002 12.3003 49.3002C10.6003 49.3002 9.00033 48.7002 7.80033 47.5002C6.40033 46.0002 5.90033 44.0002 6.30033 41.9002C8.40033 41.5002 10.4003 42.2002 11.8003 43.6002Z" fill="white"/>
<path d="M3.29961 11.7999C3.49961 11.9999 3.6996 12.2999 3.6996 12.6999C3.6996 12.9999 3.59961 13.3999 3.29961 13.5999C3.09961 13.7999 2.7996 13.9999 2.3996 13.9999C1.6996 13.9999 1.09961 13.3999 1.09961 12.6999C1.09961 12.3999 1.1996 11.9999 1.4996 11.7999C1.6996 11.5999 1.9996 11.3999 2.3996 11.3999C2.7996 11.3999 3.09961 11.5999 3.29961 11.7999Z" fill="#5F84BE"/>
<path d="M56.9 58.1998H1.3C0.600003 58.1998 0 57.5998 0 56.8998V31.5998C0 30.8998 0.600003 30.2998 1.3 30.2998H56.9C57.6 30.2998 58.2 30.8998 58.2 31.5998V56.8998C58.2 57.5998 57.6 58.1998 56.9 58.1998ZM2.5 55.6998H55.6V32.8998H2.5V55.6998Z" fill="#5F84BE"/>
<path d="M12.3996 50.5C10.2996 50.5 8.39958 49.7 6.99958 48.3C5.39958 46.6 4.69958 44.2 5.09958 41.6C5.19958 41.1 5.59957 40.7 6.19957 40.6C6.59957 40.5 6.99957 40.5 7.39957 40.5C9.49957 40.5 11.3996 41.3 12.7996 42.7C14.3996 44.4 15.0996 46.8 14.6996 49.4C14.5996 49.9 14.1996 50.3 13.5996 50.4C13.2996 50.5 12.8996 50.5 12.3996 50.5ZM7.59958 43.1C7.59958 44.4 7.99957 45.6 8.89957 46.5C9.79957 47.4 10.9996 47.9 12.2996 47.9C12.2996 46.6 11.8996 45.4 10.9996 44.5C10.0996 43.6 8.89958 43.1 7.59958 43.1Z" fill="#5F84BE"/>
<path d="M14.7005 50.5C14.3005 50.5 13.9005 50.5 13.5005 50.4C13.0005 50.3 12.5005 49.9 12.4005 49.4C12.0005 46.9 12.6005 44.4 14.3005 42.7C15.7005 41.3 17.6005 40.5 19.7005 40.5C20.1005 40.5 20.5005 40.5 20.9005 40.6C21.4005 40.7 21.9005 41.1 22.0005 41.6C22.1005 42.1 22.1005 42.6 22.1005 43.1C22.1005 45.1 21.4005 46.9 20.1005 48.3C18.7005 49.7 16.8005 50.5 14.7005 50.5ZM19.6005 43.1C18.3005 43.1 17.1005 43.6 16.2005 44.5C15.3005 45.4 14.9005 46.6 14.9005 47.9C16.2005 47.9 17.4005 47.4 18.3005 46.5C19.1005 45.6 19.6005 44.5 19.6005 43.1Z" fill="#5F84BE"/>
<path d="M27.6002 50.5C25.5002 50.5 23.6002 49.7 22.2002 48.3C20.9002 47 20.2002 45.1 20.2002 43.1C20.2002 42.6 20.2002 42.1 20.3002 41.6C20.4002 41.1 20.8002 40.7 21.4002 40.6C21.8002 40.5 22.2002 40.5 22.6002 40.5C24.7002 40.5 26.6002 41.3 28.0002 42.7C29.6002 44.4 30.3002 46.8 29.9002 49.4C29.8002 49.9 29.4002 50.3 28.8002 50.4C28.4002 50.5 28.0002 50.5 27.6002 50.5ZM22.8002 43.1C22.8002 44.5 23.2002 45.7 24.1002 46.5C25.0002 47.4 26.2002 47.9 27.5002 47.9C27.5002 46.6 27.1002 45.4 26.2002 44.5C25.3002 43.6 24.1002 43.1 22.8002 43.1Z" fill="#5F84BE"/>
<path d="M29.8001 50.5C29.4001 50.5 29.0001 50.5 28.6001 50.4C28.1001 50.3 27.6001 49.9 27.5001 49.4C27.1001 46.9 27.7001 44.4 29.4001 42.7C30.8001 41.3 32.7001 40.5 34.8001 40.5C35.2001 40.5 35.6001 40.5 36.0001 40.6C36.5001 40.7 37.0001 41.1 37.1001 41.6C37.2001 42.1 37.2001 42.6 37.2001 43.1C37.2001 45.1 36.5001 46.9 35.2001 48.3C33.9001 49.7 32.0001 50.5 29.8001 50.5ZM34.8001 43.1C33.5001 43.1 32.3001 43.6 31.4001 44.5C30.5001 45.4 30.1001 46.6 30.1001 47.9C31.4001 47.9 32.6001 47.4 33.5001 46.5C34.3001 45.6 34.8001 44.5 34.8001 43.1Z" fill="#5F84BE"/>
<path d="M42.8004 50.5C40.7004 50.5 38.8004 49.7 37.4004 48.3C36.1004 47 35.4004 45.1 35.4004 43.1C35.4004 42.6 35.4004 42.1 35.5004 41.6C35.6004 41.1 36.0004 40.7 36.6004 40.6C37.0004 40.5 37.4004 40.5 37.8004 40.5C39.9004 40.5 41.8004 41.3 43.2004 42.7C44.8004 44.4 45.5004 46.8 45.1004 49.4C45.0004 49.9 44.6004 50.3 44.0004 50.4C43.6004 50.5 43.2004 50.5 42.8004 50.5ZM37.9004 43.1C37.9004 44.5 38.3004 45.7 39.2004 46.5C40.1004 47.4 41.3004 47.9 42.6004 47.9C42.6004 46.6 42.2004 45.4 41.3004 44.5C40.5004 43.6 39.3004 43.1 37.9004 43.1Z" fill="#5F84BE"/>
<path d="M45.0003 50.5C44.6003 50.5 44.2003 50.5 43.8003 50.4C43.3003 50.3 42.8003 49.9 42.7003 49.4C42.3003 46.9 42.9003 44.4 44.6003 42.7C46.0003 41.3 47.9003 40.5 50.0003 40.5C50.4003 40.5 50.8003 40.5 51.2003 40.6C51.7003 40.7 52.2003 41.1 52.3003 41.6C52.7003 44.1 52.1003 46.6 50.4003 48.3C49.1003 49.7 47.1003 50.5 45.0003 50.5ZM50.0003 43.1C48.7003 43.1 47.5003 43.6 46.6003 44.5C45.7003 45.4 45.3003 46.6 45.3003 47.9C46.6003 47.9 47.8003 47.4 48.7003 46.5C49.6003 45.6 50.0003 44.4 50.0003 43.1Z" fill="#5F84BE"/>
<path d="M56.9 50.4999H1.3C0.600003 50.4999 0 49.8999 0 49.1999C0 48.4999 0.600003 47.8999 1.3 47.8999H56.9C57.6 47.8999 58.2 48.4999 58.2 49.1999C58.2 49.8999 57.6 50.4999 56.9 50.4999Z" fill="#5F84BE"/>
<path d="M28.9998 37.9999H10.0998C9.39981 37.9999 8.7998 37.3999 8.7998 36.6999C8.7998 35.9999 9.39981 35.3999 10.0998 35.3999H28.9998C29.6998 35.3999 30.2998 35.9999 30.2998 36.6999C30.3998 37.3999 29.6998 37.9999 28.9998 37.9999Z" fill="#5F84BE"/>
<path d="M45.4998 37.9999H36.5998C35.8998 37.9999 35.2998 37.3999 35.2998 36.6999C35.2998 35.9999 35.8998 35.3999 36.5998 35.3999H45.4998C46.1998 35.3999 46.7998 35.9999 46.7998 36.6999C46.7998 37.3999 46.0998 37.9999 45.4998 37.9999Z" fill="#5F84BE"/>
<path d="M17.1 32.9998C16.5 32.9998 15.9 32.9998 15.3 32.8998C14.7 32.9998 14.1 32.9998 13.5 32.9998C10 32.9998 6.8 31.6998 4.5 29.3998C1.8 26.5998 0.699997 22.4998 1.4 18.3998C1.5 17.8998 1.9 17.4998 2.5 17.3998C3.1 17.2998 3.8 17.2998 4.4 17.2998C7 17.2998 9.5 17.9998 11.5 19.3998C12.2 19.7998 12.8 20.3998 13.3 20.8998C14 21.6998 14.7 22.4998 15.2 23.4998C15.7 22.5998 16.3 21.6998 17.1 20.8998C17.6 20.2998 18.2 19.7998 18.9 19.3998C20.9 17.9998 23.5 17.2998 26.1 17.2998C26.7 17.2998 27.4 17.2998 28 17.3998C28.5 17.4998 29 17.8998 29.1 18.3998C29.2 19.1998 29.3 19.9998 29.3 20.8998C29.3 24.0998 28.1 27.2998 26 29.4998C23.8 31.5998 20.6 32.9998 17.1 32.9998ZM15.7 30.2998C16.2 30.3998 16.7 30.3998 17.2 30.3998C20 30.3998 22.6 29.3998 24.4 27.4998C26.1 25.6998 27 23.3998 27 20.6998C27 20.2998 27 19.9998 26.9 19.5998C24.5 19.4998 22.2 19.9998 20.5 21.2998C20 21.5998 19.5 21.9998 19.1 22.4998C17.9 23.7998 17 25.4998 16.7 27.3998C16.6 27.9998 16.1 28.3998 15.5 28.3998C14.9 28.3998 14.4 27.9998 14.3 27.3998C13.8 25.4998 12.9 23.7998 11.7 22.3998C11.3 21.8998 10.8 21.4998 10.3 21.1998C8.50001 19.9998 6.3 19.3998 3.9 19.5998C3.6 22.5998 4.5 25.4998 6.5 27.4998C8.3 29.3998 10.8 30.3998 13.7 30.3998C14.2 30.3998 14.7 30.3998 15.2 30.2998C15.4 30.2998 15.5 30.1998 15.7 30.2998C15.6 30.2998 15.6 30.2998 15.7 30.2998Z" fill="#5F84BE"/>
<path d="M19.6996 21.4999C19.5996 21.4999 19.3996 21.4999 19.2996 21.3999C18.6996 21.1999 18.2996 20.3999 18.5996 19.7999C18.9996 18.7999 19.1996 17.6999 19.1996 16.5999C19.1996 13.6999 17.7996 10.6999 15.3996 8.59991C12.9996 10.5999 11.6996 13.4999 11.5996 16.4999C11.5996 17.5999 11.7996 18.6999 12.1996 19.7999C12.3996 20.3999 12.0996 21.1999 11.3996 21.3999C10.7996 21.5999 9.99961 21.2999 9.79961 20.5999C9.29961 19.2999 9.09961 17.8999 9.09961 16.4999C9.09961 12.3999 11.1996 8.3999 14.6996 5.9999C15.0996 5.6999 15.6996 5.6999 16.1996 5.9999C19.6996 8.5999 21.7996 12.5999 21.7996 16.5999C21.7996 17.9999 21.4996 19.3999 21.0996 20.6999C20.6996 21.0999 20.1996 21.4999 19.6996 21.4999Z" fill="#5F84BE"/>
<path d="M15.3 32.7001C14.6 32.7001 14 32.1001 14 31.4001V26.9001C14 26.2001 14.6 25.6001 15.3 25.6001C16 25.6001 16.6 26.2001 16.6 26.9001V31.5001C16.6 32.2001 16 32.7001 15.3 32.7001Z" fill="#5F84BE"/>
<path d="M45.8002 21.4999C45.7002 21.4999 45.5002 21.4999 45.4002 21.3999C44.8002 21.1999 44.4002 20.3999 44.7002 19.7999C45.1002 18.7999 45.3002 17.6999 45.3002 16.5999C45.3002 13.6999 43.9002 10.6999 41.5002 8.59991C39.1002 10.5999 37.8002 13.4999 37.7002 16.4999C37.7002 17.5999 37.9002 18.6999 38.3002 19.7999C38.5002 20.3999 38.2002 21.1999 37.5002 21.3999C36.9002 21.5999 36.1002 21.2999 35.9002 20.5999C35.4002 19.2999 35.2002 17.8999 35.2002 16.4999C35.2002 12.3999 37.3002 8.3999 40.8002 5.9999C41.2002 5.6999 41.8002 5.6999 42.3002 5.9999C45.8002 8.5999 47.9002 12.5999 47.9002 16.5999C47.9002 17.9999 47.6002 19.3999 47.1002 20.6999C46.8002 21.0999 46.3002 21.4999 45.8002 21.4999Z" fill="#5F84BE"/>
<path d="M41.5002 32.7001C40.8002 32.7001 40.2002 32.1001 40.2002 31.4001V26.9001C40.2002 26.2001 40.8002 25.6001 41.5002 25.6001C42.2002 25.6001 42.8002 26.2001 42.8002 26.9001V31.5001C42.8002 32.2001 42.2002 32.7001 41.5002 32.7001Z" fill="#5F84BE"/>
<path d="M5.09981 7.7001C2.99981 7.7001 1.2998 6.00009 1.2998 3.90009C1.2998 1.80009 2.99981 0.100098 5.09981 0.100098C7.19981 0.100098 8.8998 1.80009 8.8998 3.90009C8.8998 5.90009 7.09981 7.7001 5.09981 7.7001ZM5.09981 2.6001C4.39981 2.6001 3.7998 3.20009 3.7998 3.90009C3.7998 4.60009 4.39981 5.2001 5.09981 5.2001C5.79981 5.2001 6.3998 4.60009 6.3998 3.90009C6.2998 3.10009 5.69981 2.6001 5.09981 2.6001Z" fill="#5F84BE"/>
<path d="M53.6996 13.9002C51.9996 13.9002 50.5996 12.5002 50.5996 10.8002C50.5996 9.10017 51.9996 7.7002 53.6996 7.7002C55.3996 7.7002 56.7996 9.10017 56.7996 10.8002C56.7996 12.5002 55.3996 13.9002 53.6996 13.9002ZM53.6996 10.2002C53.3996 10.2002 53.0996 10.5002 53.0996 10.8002C53.0996 11.1002 53.3996 11.4002 53.6996 11.4002C53.9996 11.4002 54.2996 11.1002 54.2996 10.8002C54.2996 10.5002 53.9996 10.2002 53.6996 10.2002Z" fill="#5F84BE"/>
<path d="M30.4 54.3998H1.3C0.600003 54.3998 0 53.7998 0 53.0998C0 52.3998 0.600003 51.7998 1.3 51.7998H30.4C31.1 51.7998 31.7 52.3998 31.7 53.0998C31.6 53.8998 31 54.3998 30.4 54.3998Z" fill="#5F84BE"/>
<path d="M43.3004 32.9998C42.7004 32.9998 42.1004 32.9998 41.5004 32.8998C40.9004 32.9998 40.3004 32.9998 39.7004 32.9998C36.2004 32.9998 33.0004 31.6998 30.7004 29.3998C28.6004 27.1998 27.4004 24.0997 27.4004 20.7997C27.4004 19.9997 27.5004 19.1997 27.6004 18.2997C27.7004 17.7997 28.1004 17.3997 28.7004 17.2997C32.0004 16.7997 35.3004 17.4997 37.8004 19.2997C38.5004 19.6997 39.1004 20.2997 39.6004 20.7997C40.3004 21.5997 41.0004 22.3998 41.5004 23.3998C42.0004 22.4998 42.6004 21.5997 43.4004 20.7997C43.9004 20.1997 44.5004 19.6997 45.2004 19.2997C47.7004 17.5997 51.0004 16.7997 54.3004 17.2997C54.8004 17.3997 55.3004 17.7997 55.4004 18.2997C56.1004 22.3997 55.0004 26.4997 52.3004 29.2997C50.0004 31.5997 46.7004 32.9998 43.3004 32.9998ZM41.8004 30.2997C42.3004 30.3997 42.8004 30.3998 43.3004 30.3998C46.1004 30.3998 48.7004 29.3998 50.5004 27.4998C52.4004 25.4998 53.4004 22.5998 53.1004 19.5998C50.8004 19.4998 48.4004 19.9997 46.7004 21.2997C46.2004 21.5997 45.7004 21.9998 45.3004 22.4998C44.1004 23.7998 43.2004 25.3998 42.9004 27.3998C42.8004 27.9998 42.3004 28.3998 41.7004 28.3998C41.1004 28.3998 40.6004 27.8997 40.5004 27.2997C40.2004 25.4997 39.3004 23.7998 38.1004 22.3998C37.7004 21.8998 37.2004 21.4998 36.7004 21.1998C34.9004 19.9998 32.7004 19.3998 30.3004 19.5998C30.3004 19.9998 30.2004 20.2998 30.2004 20.6998C30.2004 23.2998 31.1004 25.7998 32.8004 27.4998C34.6004 29.3998 37.1004 30.3998 40.0004 30.3998C40.5004 30.3998 41.0004 30.3997 41.5004 30.2997C41.4004 30.1997 41.6004 30.1997 41.8004 30.2997Z" fill="#5F84BE"/>
</svg>
