<svg width="57" height="58" viewBox="0 0 57 58" fill="none" xmlns="http://www.w3.org/2000/svg">
<path d="M12.7008 35.812L15.2008 48.412H14.0008C11.9008 48.412 10.2008 50.112 10.2008 52.212V55.912H3.80078L5.1008 43.612C5.1008 40.712 6.9008 38.012 9.6008 36.912L12.7008 35.812Z" fill="white"/>
<path d="M37.8984 33.312L36.5984 48.412H20.1984L18.8984 33.412L19.1984 33.312L28.4984 40.112L37.8984 33.312Z" fill="white"/>
<path d="M51.7015 43.1116L53.0016 55.9116H46.6016V52.2116C46.6016 50.1116 44.9015 48.4116 42.8015 48.4116H41.6016L44.1016 35.4116L46.8015 36.3116C49.8015 37.3116 51.7015 40.0116 51.7015 43.1116Z" fill="white"/>
<path d="M46.6992 52.2116V55.9116H10.1992V52.2116C10.1992 50.1116 11.8992 48.4116 13.9992 48.4116H15.1992H20.1992H36.5992H41.5992H42.7992C44.8992 48.4116 46.6992 50.1116 46.6992 52.2116Z" fill="#E2F3FF"/>
<path d="M44.1016 35.412L41.6016 48.412H36.6016L37.9016 33.312L44.1016 35.412Z" fill="#E2F3FF"/>
<path d="M18.8992 33.4116L20.1992 48.4116H15.1992L12.6992 35.8116L18.8992 33.4116Z" fill="#E2F3FF"/>
<path d="M3.09924 30.2119C4.09924 30.2119 4.99924 31.0119 4.99924 32.1119C4.99924 33.2119 4.19924 34.0119 3.09924 34.0119C1.99924 34.0119 1.19922 33.2119 1.19922 32.1119C1.19922 31.0119 1.99924 30.2119 3.09924 30.2119Z" fill="white"/>
<path d="M8.79928 5.01172C10.1993 5.01172 11.2993 6.11172 11.2993 7.51172C11.2993 8.91172 10.1993 10.0117 8.79928 10.0117C7.39928 10.0117 6.29928 8.91172 6.29928 7.51172C6.19928 6.11172 7.29928 5.01172 8.79928 5.01172Z" fill="white"/>
<path d="M52.2015 25.2119C53.9015 25.2119 55.3015 26.6119 55.3015 28.3119C55.3015 30.0119 53.9015 31.4119 52.2015 31.4119C50.5015 31.4119 49.1016 30.1119 49.1016 28.3119C49.1016 26.5119 50.5015 25.2119 52.2015 25.2119Z" fill="white"/>
<path d="M40.3015 12.6119V16.4119H17.6016V12.6119C17.6016 6.31191 22.6016 1.21191 29.0016 1.21191C35.4016 1.21191 40.3015 6.31191 40.3015 12.6119Z" fill="white"/>
<path d="M40.3015 16.4116C40.3015 16.5116 40.3015 16.6116 40.3015 16.7116C40.3015 22.6116 36.2015 30.8116 28.7015 30.8116C21.3015 30.8116 17.6016 22.6116 17.6016 16.7116C17.6016 16.6116 17.6016 16.5116 17.6016 16.4116H40.3015Z" fill="#E2F3FF"/>
<path d="M53.3302 12.6073L51.5625 14.375L53.3302 16.1427L55.098 14.375L53.3302 12.6073Z" fill="#5F84BE"/>
<path d="M42.2482 -0.00017181L40.4805 1.76758L42.2482 3.53533L44.016 1.76758L42.2482 -0.00017181Z" fill="#5F84BE"/>
<path d="M10.7052 25.1815L8.9375 26.9492L10.7052 28.717L12.473 26.9492L10.7052 25.1815Z" fill="#5F84BE"/>
<path d="M15.1996 49.7119C14.5996 49.7119 14.0996 49.3119 13.9996 48.7119L11.4996 36.1119C11.3996 35.4119 11.7996 34.8119 12.4996 34.6119C13.1996 34.5119 13.7996 34.9119 13.9996 35.6119L16.4996 48.2119C16.5996 48.9119 16.1996 49.5119 15.4996 49.7119C15.2996 49.7119 15.2996 49.7119 15.1996 49.7119Z" fill="#5F84BE"/>
<path d="M20.1985 49.7118C19.5985 49.7118 18.9985 49.2118 18.9985 48.6118L17.6985 33.6118C17.5985 32.9118 18.1985 32.3118 18.7985 32.3118C19.4985 32.2118 20.0985 32.8118 20.0985 33.4118L21.3985 48.4118C21.4985 49.1118 20.8985 49.7118 20.2985 49.7118C20.1985 49.7118 20.1985 49.7118 20.1985 49.7118Z" fill="#5F84BE"/>
<path d="M41.601 49.712C41.501 49.712 41.401 49.712 41.401 49.712C40.701 49.612 40.301 48.912 40.401 48.212L42.701 36.312L39.001 35.012L37.901 48.512C37.801 49.212 37.201 49.712 36.601 49.612C35.901 49.512 35.401 48.912 35.501 48.312L36.701 33.212C36.701 32.812 36.901 32.512 37.201 32.312C37.501 32.112 37.901 32.012 38.301 32.112L44.601 34.212C45.101 34.412 45.501 34.812 45.501 35.412C45.501 35.512 45.501 35.612 45.501 35.612L43.001 48.612C42.701 49.312 42.201 49.712 41.601 49.712Z" fill="#5F84BE"/>
<path d="M53.0016 57.312H46.6016C45.9016 57.312 45.3016 56.7119 45.3016 56.0119C45.3016 55.3119 45.9016 54.712 46.6016 54.712H51.5016L50.4016 43.212V43.112C50.4016 40.612 48.8016 38.412 46.4016 37.612L38.0016 34.812L29.1016 41.312C28.7016 41.612 28.1016 41.612 27.6016 41.312L18.8016 34.812L9.9016 38.212C7.7016 39.112 6.20159 41.312 6.20159 43.712V43.812L5.10161 54.712H10.0016C10.7016 54.712 11.3016 55.3119 11.3016 56.0119C11.3016 56.7119 10.7016 57.312 10.0016 57.312H3.60161C3.20161 57.312 2.90159 57.212 2.70159 56.912C2.50159 56.612 2.3016 56.312 2.4016 55.912L3.60161 43.612C3.60161 40.212 5.8016 37.012 8.9016 35.812L18.4016 32.212C18.8016 32.012 19.2016 32.112 19.6016 32.412L28.2016 38.812L36.9016 32.412C37.2016 32.212 37.7016 32.112 38.0016 32.212L47.0016 35.212C50.4016 36.312 52.7016 39.512 52.7016 43.212L53.9016 56.0119C53.9016 56.4119 53.8016 56.7119 53.6016 57.0119C53.7016 57.1119 53.3016 57.312 53.0016 57.312Z" fill="#5F84BE"/>
<path d="M28.7008 32.1119C25.0008 32.1119 21.6008 30.2119 19.3008 26.8119C17.4008 24.0119 16.3008 20.2119 16.3008 16.8119C16.3008 16.7119 16.3008 16.6119 16.3008 16.4119C16.3008 15.7119 16.9008 15.2119 17.6008 15.2119C18.3008 15.2119 18.8008 15.8119 18.8008 16.5119C18.8008 16.6119 18.8008 16.7119 18.8008 16.8119C18.8008 22.1119 22.2008 29.6119 28.7008 29.6119C35.4008 29.6119 39.0008 22.0119 39.0008 16.8119C39.0008 16.7119 39.0008 16.6119 39.0008 16.5119C39.0008 15.8119 39.5008 15.2119 40.2008 15.2119C40.9008 15.2119 41.5008 15.7119 41.5008 16.4119C41.5008 16.5119 41.5008 16.6119 41.5008 16.7119C41.5008 20.1119 40.3008 23.9119 38.3008 26.7119C35.9008 30.1119 32.4008 32.1119 28.7008 32.1119Z" fill="#5F84BE"/>
<path d="M46.6984 57.3119H10.1984C9.49843 57.3119 8.89844 56.7119 8.89844 56.0119V52.2119C8.89844 49.4119 11.1984 47.2119 13.8984 47.2119H42.7984C45.5984 47.2119 47.7984 49.5119 47.7984 52.2119V55.9119C47.9984 56.7119 47.3984 57.3119 46.6984 57.3119ZM11.3984 54.7119H45.4984V52.2119C45.4984 50.8119 44.3984 49.7119 42.9984 49.7119H14.0984C12.6984 49.7119 11.5984 50.8119 11.5984 52.2119V54.7119H11.3984Z" fill="#5F84BE"/>
<path d="M40.2992 17.6117C39.5992 17.6117 38.9992 17.0117 38.9992 16.3117V12.6117C38.9992 7.11172 34.4992 2.51172 28.8992 2.51172C23.3992 2.51172 18.7992 7.01172 18.7992 12.6117V16.4117C18.7992 17.1117 18.1992 17.7117 17.4992 17.7117C16.7992 17.7117 16.1992 17.1117 16.1992 16.4117V12.6117C16.1992 5.61172 21.7992 0.0117188 28.7992 0.0117188C35.7992 0.0117188 41.3992 5.61172 41.3992 12.6117V16.4117C41.4992 17.0117 40.8992 17.6117 40.2992 17.6117Z" fill="#5F84BE"/>
<path d="M45.4008 17.6117H12.6008C11.9008 17.6117 11.3008 17.0117 11.3008 16.3117C11.3008 15.6117 11.9008 15.0117 12.6008 15.0117H45.4008C46.1008 15.0117 46.7008 15.6117 46.7008 16.3117C46.6008 17.0117 46.0008 17.6117 45.4008 17.6117Z" fill="#5F84BE"/>
<path d="M33.9984 22.7118H32.6984C31.9984 22.7118 31.3984 22.1118 31.3984 21.4118C31.3984 20.7118 31.9984 20.1118 32.6984 20.1118H33.9984C34.6984 20.1118 35.2984 20.7118 35.2984 21.4118C35.2984 22.1118 34.6984 22.7118 33.9984 22.7118Z" fill="#5F84BE"/>
<path d="M25.2015 22.7118H23.9016C23.2016 22.7118 22.6016 22.1118 22.6016 21.4118C22.6016 20.7118 23.2016 20.1118 23.9016 20.1118H25.2015C25.9015 20.1118 26.5016 20.7118 26.5016 21.4118C26.4016 22.1118 25.8015 22.7118 25.2015 22.7118Z" fill="#5F84BE"/>
<path d="M8.79999 11.412C6.69999 11.412 5 9.712 5 7.612C5 5.512 6.69999 3.81201 8.79999 3.81201C10.9 3.81201 12.6 5.512 12.6 7.612C12.6 9.712 10.9 11.412 8.79999 11.412ZM8.79999 6.31201C8.09999 6.31201 7.5 6.912 7.5 7.612C7.5 8.312 8.09999 8.91202 8.79999 8.91202C9.49999 8.91202 10.1 8.312 10.1 7.612C10.1 6.812 9.49999 6.31201 8.79999 6.31201Z" fill="#5F84BE"/>
<path d="M3.10001 35.3118C1.40001 35.3118 0 33.9118 0 32.2118C0 30.5118 1.40001 29.1118 3.10001 29.1118C4.80001 29.1118 6.19998 30.5118 6.19998 32.2118C6.19998 33.9118 4.80001 35.3118 3.10001 35.3118ZM3.10001 31.5118C2.80001 31.5118 2.5 31.8118 2.5 32.1118C2.5 32.4118 2.70001 32.7118 3.10001 32.7118C3.50001 32.7118 3.69998 32.4118 3.69998 32.1118C3.69998 31.9118 3.40001 31.5118 3.10001 31.5118Z" fill="#5F84BE"/>
<path d="M52.2008 32.8117C49.8008 32.8117 47.8008 30.8117 47.8008 28.4117C47.8008 26.0117 49.8008 24.0117 52.2008 24.0117C54.6008 24.0117 56.6008 26.0117 56.6008 28.4117C56.6008 30.7117 54.6008 32.8117 52.2008 32.8117ZM52.2008 26.5117C51.2008 26.5117 50.3008 27.3117 50.3008 28.4117C50.3008 29.4117 51.1008 30.3117 52.2008 30.3117C53.2008 30.3117 54.1008 29.5117 54.1008 28.4117C54.1008 27.3117 53.3008 26.5117 52.2008 26.5117Z" fill="#5F84BE"/>
<path d="M32.3999 24.7117C31.9999 24.2117 31.1999 24.1117 30.5999 24.5117C30.5999 24.5117 30.5999 24.5117 30.4999 24.5117C28.8999 25.8117 27.4999 24.7117 27.1999 24.5117C26.6999 24.1117 25.8999 24.1117 25.3999 24.7117C24.9999 25.2117 24.9999 26.0117 25.5999 26.5117C26.7999 27.4117 28.0999 27.9117 29.4999 27.7117C30.4999 27.6117 31.3999 27.1117 32.1999 26.5117C32.6999 26.0117 32.8999 25.2117 32.3999 24.7117Z" fill="#5F84BE"/>
</svg>
