<svg width="61" height="60" viewBox="0 0 61 60" fill="none" xmlns="http://www.w3.org/2000/svg">
<path d="M30.4004 8.69992V45.3C44.1004 41.7 46.1004 45.8999 54.4004 44.0999V12.3999V8.59994C46.1004 10.4999 44.0004 4.99992 30.4004 8.69992Z" fill="#E2F3FF"/>
<path d="M30.3998 45.3002V8.70018C16.6998 5.10018 14.6998 10.5002 6.2998 8.70018V12.5002V44.2002C14.6998 45.9002 16.6998 41.7002 30.3998 45.3002Z" fill="#E2F3FF"/>
<path d="M51.1998 1.1001C52.2998 1.1001 53.0998 2.00012 53.0998 3.00012C53.0998 4.00012 52.1998 4.90009 51.1998 4.90009C50.0998 4.90009 49.2998 4.00012 49.2998 3.00012C49.2998 2.00012 50.1998 1.1001 51.1998 1.1001Z" fill="white"/>
<path d="M10.8004 58.0002C11.8497 58.0002 12.7004 57.1496 12.7004 56.1002C12.7004 55.0509 11.8497 54.2002 10.8004 54.2002C9.75105 54.2002 8.90039 55.0509 8.90039 56.1002C8.90039 57.1496 9.75105 58.0002 10.8004 58.0002Z" fill="white"/>
<path d="M17.6996 33.9999H15.1996C12.3996 33.9999 10.0996 31.7999 10.0996 28.8999H12.5996C15.4996 28.8999 17.6996 31.0999 17.6996 33.9999Z" fill="white"/>
<path d="M22.7998 20H25.2998C25.2998 21.4 24.6998 22.6 23.7998 23.5C22.8998 24.4 21.5998 25 20.2998 25H17.7998C17.7998 23.6 18.3998 22.4 19.2998 21.5C20.1998 20.6 21.3998 20 22.7998 20Z" fill="white"/>
<path d="M22.7998 28.8999H25.2998C25.2998 30.2999 24.6998 31.4999 23.7998 32.3999C22.8998 33.2999 21.5998 33.8999 20.2998 33.8999H17.7998C17.7998 32.4999 18.3998 31.2999 19.2998 30.3999C20.1998 29.4999 21.3998 28.8999 22.7998 28.8999Z" fill="white"/>
<path d="M17.6996 25.1H15.1996C12.3996 25.1 10.0996 22.9 10.0996 20H12.5996C15.4996 20 17.6996 22.3 17.6996 25.1Z" fill="white"/>
<path d="M40.5002 12.3999C42.6002 12.3999 44.3002 14.0999 44.3002 16.1999C44.3002 18.2999 42.6002 19.9999 40.5002 19.9999C38.4002 19.9999 36.7002 18.2999 36.7002 16.1999C36.7002 14.0999 38.4002 12.3999 40.5002 12.3999Z" fill="white"/>
<path d="M50.5996 25.1V28.9C44.9996 28.9 40.4996 33.5 40.4996 39H34.0996V25H50.5996V25.1Z" fill="white"/>
<path d="M59.5004 12.3999V45.0999C59.5004 47.2999 57.7004 48.9999 55.6004 48.9999H38.5004C37.9004 48.9999 37.4004 49.0999 36.9004 49.2999C36.4004 49.4999 35.9004 49.7999 35.5004 50.1999C34.7004 50.9999 33.6004 51.4999 32.5004 51.4999H28.5004C27.9004 51.4999 27.4004 51.3999 26.9004 51.1999C26.4004 50.9999 25.9004 50.6999 25.5004 50.2999C24.7004 49.4999 23.6004 48.9999 22.5004 48.9999H5.30039C3.10039 48.9999 1.40039 47.1999 1.40039 45.0999V12.3999H6.50039V44.0999C14.9004 45.8999 16.9004 41.6999 30.6004 45.2999C44.3004 41.6999 46.3004 45.8999 54.6004 44.0999V12.3999H59.5004Z" fill="white"/>
<path d="M51.7998 56.2999C51.7998 56.3999 51.8998 56.5999 51.8998 56.6999C51.8998 57.1999 51.5998 57.6999 50.9998 57.8999C50.2998 58.0999 49.5998 57.7999 49.3998 57.0999C49.3998 56.9999 49.2998 56.7999 49.2998 56.6999C49.2998 56.1999 49.5998 55.6999 50.1998 55.4999C50.2998 55.4999 50.4998 55.3999 50.5998 55.3999C51.0998 55.3999 51.5998 55.7999 51.7998 56.2999Z" fill="#5F84BE"/>
<path d="M50.6002 32.7002V39.1002H44.2002C44.3002 35.5002 47.1002 32.7002 50.6002 32.7002Z" fill="white"/>
<path d="M50.6 28.8999V32.6999C47.1 32.6999 44.2 35.4999 44.2 39.0999H40.5C40.5 33.4999 45 28.8999 50.6 28.8999Z" fill="white"/>
<path d="M44.2002 53.7999C44.2002 53.8999 44.3002 54.0999 44.3002 54.1999C44.3002 54.6999 44.0002 55.1999 43.4002 55.3999C42.7002 55.5999 42.0002 55.2999 41.8002 54.5999C41.8002 54.4999 41.7002 54.2999 41.7002 54.1999C41.7002 53.6999 42.0002 53.1999 42.6002 52.9999C42.7002 52.9999 42.9002 52.8999 43.0002 52.8999C43.5002 52.8999 44.0002 53.2999 44.2002 53.7999Z" fill="#5F84BE"/>
<path d="M31.5996 1.89996C31.5996 1.99996 31.6996 2.19999 31.6996 2.29999C31.6996 2.79999 31.3996 3.3 30.7996 3.5C30.0996 3.7 29.3996 3.39995 29.1996 2.69995C29.1996 2.59995 29.0996 2.39999 29.0996 2.29999C29.0996 1.79999 29.3996 1.29998 29.9996 1.09998C30.0996 1.09998 30.2996 1 30.3996 1C30.8996 1.1 31.3996 1.39996 31.5996 1.89996Z" fill="#5F84BE"/>
<path d="M20.2002 53.7999C20.2002 53.8999 20.3002 54.0999 20.3002 54.1999C20.3002 54.6999 20.0002 55.1999 19.4002 55.3999C18.7002 55.5999 18.0002 55.2999 17.8002 54.5999C17.8002 54.4999 17.7002 54.2999 17.7002 54.1999C17.7002 53.6999 18.0002 53.1999 18.6002 52.9999C18.7002 52.9999 18.9002 52.8999 19.0002 52.8999C19.6002 52.8999 20.1002 53.2999 20.2002 53.7999Z" fill="#5F84BE"/>
<path d="M18.9004 13.2999C18.9004 13.3999 19.0004 13.5999 19.0004 13.6999C19.0004 14.1999 18.7004 14.6999 18.1004 14.8999C17.4004 15.0999 16.7004 14.7999 16.5004 14.0999C16.5004 13.9999 16.4004 13.7999 16.4004 13.6999C16.4004 13.1999 16.7004 12.6999 17.3004 12.4999C17.4004 12.4999 17.6004 12.3999 17.7004 12.3999C18.2004 12.3999 18.7004 12.7999 18.9004 13.2999Z" fill="#5F84BE"/>
<path d="M10 3.19977C10 3.29977 10.1 3.49979 10.1 3.59979C10.1 4.09979 9.8 4.5998 9.2 4.7998C8.5 4.9998 7.80001 4.69982 7.60001 3.99982C7.60001 3.89982 7.5 3.69979 7.5 3.59979C7.5 3.09979 7.8 2.59978 8.4 2.39978C8.5 2.39978 8.7 2.2998 8.8 2.2998C9.4 2.2998 9.9 2.69977 10 3.19977Z" fill="#5F84BE"/>
<path d="M6.3996 45.2998C5.6996 45.2998 5.09961 44.6998 5.09961 43.9998V8.59982C5.09961 8.19982 5.29961 7.89982 5.59961 7.59982C5.89961 7.39982 6.29961 7.29981 6.69961 7.39981C9.89961 8.09981 12.1996 7.59984 14.7996 6.99984C18.4996 6.19984 22.6996 5.19981 30.7996 7.39981C31.4996 7.59981 31.8996 8.29981 31.6996 8.89981C31.4996 9.59981 30.7996 9.99983 30.1996 9.79983C22.6996 7.79983 18.9996 8.59981 15.3996 9.39981C13.0996 9.89981 10.6996 10.3998 7.69961 9.99984V43.8998C7.59961 44.7998 6.9996 45.2998 6.3996 45.2998Z" fill="#5F84BE"/>
<path d="M30.3999 46.6002C30.2999 46.6002 30.1999 46.6002 30.0999 46.6002C22.4999 44.6002 18.5999 45.1002 15.0999 45.5002C12.3999 45.9002 9.79992 46.2001 6.09992 45.4001C5.39992 45.3001 4.99992 44.6001 5.19992 43.9001C5.29992 43.2001 5.99992 42.8002 6.69992 43.0002C9.99992 43.7002 12.2999 43.4002 14.8999 43.1002C18.4999 42.6002 22.7999 42.1001 30.8999 44.2001C31.5999 44.4001 31.9999 45.1001 31.7999 45.7001C31.4999 46.2001 30.9999 46.6002 30.3999 46.6002Z" fill="#5F84BE"/>
<path d="M30.3996 46.6C29.6996 46.6 29.0996 46.0001 29.0996 45.3001C29.0996 44.7001 29.4996 44.2 30.0996 44.1C38.1996 42 42.2996 42.5001 45.9996 43.0001C48.5996 43.3001 50.8996 43.6 54.1996 42.9C54.8996 42.8 55.4996 43.2001 55.6996 43.8001C55.7996 44.5001 55.3996 45.1001 54.7996 45.3001C51.0996 46.1001 48.4996 45.8 45.7996 45.4C42.3996 45 38.3996 44.4001 30.7996 46.5001H30.6996C30.5996 46.6001 30.4996 46.6 30.3996 46.6Z" fill="#5F84BE"/>
<path d="M30.3996 46.5999C29.6996 46.5999 29.0996 45.9999 29.0996 45.2999V8.69988C29.0996 8.09988 29.4996 7.59993 29.9996 7.49993C38.0996 5.29993 42.2996 6.29991 45.9996 7.09991C48.4996 7.69991 50.7996 8.19993 54.0996 7.49993C54.4996 7.39993 54.8996 7.49988 55.1996 7.69988C55.4996 7.89988 55.6996 8.29988 55.6996 8.69988V44.0999C55.6996 44.7999 55.0996 45.3999 54.3996 45.3999C53.6996 45.3999 53.0996 44.7999 53.0996 44.0999V10.1999C50.0996 10.5999 47.7996 10.0999 45.3996 9.59991C41.9996 8.79991 38.3996 7.99988 31.4996 9.69988V45.3999C31.6996 45.9999 31.0996 46.5999 30.3996 46.5999Z" fill="#5F84BE"/>
<path d="M32.4 52.9001H28.4C27.7 52.9001 27 52.8001 26.3 52.5001C25.6 52.2001 25 51.8001 24.5 51.3001C23.9 50.7001 23.2 50.4001 22.4 50.4001H5.3C2.4 50.4001 0 48.1001 0 45.1001V12.4001C0 11.7001 0.600003 11.1001 1.3 11.1001H6.4C7.1 11.1001 7.7 11.7001 7.7 12.4001C7.7 13.1001 7.1 13.7001 6.4 13.7001H2.60001V45.2001C2.60001 46.7001 3.8 47.9001 5.3 47.9001H22.3C23.8 47.9001 25.2 48.5001 26.2 49.5001C26.5 49.8001 26.8 50.0001 27.2 50.2001C27.6 50.4001 28 50.4001 28.4 50.4001H32.4C33.2 50.4001 34 50.1001 34.5 49.5001C35 49.0001 35.6 48.6001 36.3 48.3001C37 48.0001 37.7 47.9001 38.4 47.9001H55.4C56.9 47.9001 58.1 46.7001 58.1 45.2001V13.7001H54.3C53.6 13.7001 53 13.1001 53 12.4001C53 11.7001 53.6 11.1001 54.3 11.1001H59.4C60.1 11.1001 60.7 11.7001 60.7 12.4001V45.1001C60.7 48.0001 58.4 50.4001 55.4 50.4001H38.3C37.9 50.4001 37.5 50.5001 37.1 50.6001C36.7 50.8001 36.4 51.0001 36.1 51.3001C35.3 52.3001 33.8 52.9001 32.4 52.9001Z" fill="#5F84BE"/>
<path d="M17.6998 26.4002H15.1998C11.7998 26.4002 8.7998 23.6002 8.7998 20.0002C8.7998 19.3002 9.39981 18.7002 10.0998 18.7002H12.5998C15.9998 18.7002 18.8998 21.5002 18.8998 25.0002V25.1002C18.9998 25.8002 18.3998 26.4002 17.6998 26.4002ZM11.6998 21.3002C12.1998 22.8002 13.5998 23.8002 15.1998 23.8002H16.1998C15.6998 22.3002 14.2998 21.3002 12.6998 21.3002H11.6998Z" fill="#5F84BE"/>
<path d="M20.3 26.3998H17.8C17.1 26.3998 16.5 25.7998 16.5 25.0998C16.5 23.3998 17.2 21.8998 18.3 20.5998C19.5 19.3998 21.1 18.7998 22.8 18.7998H25.3C26 18.7998 26.6 19.3998 26.6 20.0998C26.6 21.7998 25.9 23.2998 24.8 24.5998C23.5 25.6998 22 26.3998 20.3 26.3998ZM19.3 23.8998H20.3C21.3 23.8998 22.2 23.4998 23 22.7998C23.4 22.3998 23.7 21.8998 23.9 21.3998H22.9C21.9 21.3998 21 21.7998 20.2 22.4998C19.7 22.7998 19.4 23.3998 19.3 23.8998Z" fill="#5F84BE"/>
<path d="M17.6998 35.2H15.1998C11.7998 35.2 8.7998 32.4 8.7998 28.8C8.7998 28.1 9.39981 27.5 10.0998 27.5H12.5998C15.9998 27.5 18.8998 30.3 18.8998 33.8V33.9C18.9998 34.7 18.3998 35.2 17.6998 35.2ZM11.6998 30.1C12.1998 31.6 13.5998 32.6 15.1998 32.6H16.1998C15.6998 31.1 14.2998 30.1 12.6998 30.1H11.6998Z" fill="#5F84BE"/>
<path d="M20.3 35.2001H17.8C17.1 35.2001 16.5 34.6001 16.5 33.9001C16.5 32.2001 17.2 30.7001 18.3 29.4001C19.5 28.2001 21.1 27.6001 22.8 27.6001H25.3C26 27.6001 26.6 28.2001 26.6 28.9001C26.6 30.6001 25.9 32.1001 24.8 33.4001C23.5 34.6001 22 35.2001 20.3 35.2001ZM19.3 32.7001H20.3C21.3 32.7001 22.2 32.3001 23 31.6001C23.4 31.2001 23.7 30.7001 23.9 30.2001H22.9C21.9 30.2001 21 30.6001 20.2 31.3001C19.7 31.6001 19.4 32.2001 19.3 32.7001Z" fill="#5F84BE"/>
<path d="M17.7004 39.0002C17.0004 39.0002 16.4004 38.4002 16.4004 37.7002V17.5002C16.4004 16.8002 17.0004 16.2002 17.7004 16.2002C18.4004 16.2002 19.0004 16.8002 19.0004 17.5002V37.7002C19.0004 38.4002 18.4004 39.0002 17.7004 39.0002Z" fill="#5F84BE"/>
<path d="M22.8004 38.9999H12.7004C12.0004 38.9999 11.4004 38.3999 11.4004 37.6999C11.4004 36.9999 12.0004 36.3999 12.7004 36.3999H22.8004C23.5004 36.3999 24.1004 36.9999 24.1004 37.6999C24.1004 38.3999 23.5004 38.9999 22.8004 38.9999Z" fill="#5F84BE"/>
<path d="M40.5002 40.2C39.8002 40.2 39.2002 39.6 39.2002 38.9C39.2002 32.6 44.3002 27.5 50.6002 27.5C51.3002 27.5 51.9002 28.1 51.9002 28.8C51.9002 29.5 51.3002 30.1 50.6002 30.1C45.7002 30.1 41.7002 34 41.7002 39C41.8002 39.7 41.2002 40.2 40.5002 40.2Z" fill="#5F84BE"/>
<path d="M44.3 40.1998C43.6 40.1998 43 39.5998 43 38.8998C43 34.7998 46.4 31.2998 50.6 31.2998C51.3 31.2998 51.9 31.8998 51.9 32.5998C51.9 33.2998 51.3 33.8998 50.6 33.8998C47.8 33.8998 45.5 36.0998 45.5 38.9998C45.6 39.6998 44.9 40.1998 44.3 40.1998Z" fill="#5F84BE"/>
<path d="M50.6004 40.2002H34.2004C33.5004 40.2002 32.9004 39.6002 32.9004 38.9002V25.0002C32.9004 24.3002 33.5004 23.7002 34.2004 23.7002H50.6004C51.3004 23.7002 51.9004 24.3002 51.9004 25.0002V39.0002C51.9004 39.7002 51.3004 40.2002 50.6004 40.2002ZM35.4004 37.7002H49.4004V26.4002H35.4004V37.7002Z" fill="#5F84BE"/>
<path d="M40.5004 21.3001C37.7004 21.3001 35.4004 19.1001 35.4004 16.2001C35.4004 13.4001 37.6004 11.1001 40.5004 11.1001C43.4004 11.1001 45.6004 13.3001 45.6004 16.2001C45.6004 19.1001 43.3004 21.3001 40.5004 21.3001ZM40.5004 13.7001C39.1004 13.7001 38.0004 14.8001 38.0004 16.2001C38.0004 17.6001 39.1004 18.7001 40.5004 18.7001C41.9004 18.7001 43.0004 17.6001 43.0004 16.2001C43.0004 14.9001 41.9004 13.7001 40.5004 13.7001Z" fill="#5F84BE"/>
<path d="M10.8002 59.3001C9.10019 59.3001 7.7002 57.9001 7.7002 56.2001C7.7002 54.5001 9.10019 53.1001 10.8002 53.1001C12.5002 53.1001 13.9002 54.5001 13.9002 56.2001C14.0002 57.8001 12.5002 59.3001 10.8002 59.3001ZM10.8002 55.4001C10.5002 55.4001 10.2002 55.7001 10.2002 56.0001C10.2002 56.3001 10.5002 56.6001 10.8002 56.6001C11.1002 56.6001 11.4002 56.3001 11.4002 56.0001C11.5002 55.7001 11.2002 55.4001 10.8002 55.4001Z" fill="#5F84BE"/>
<path d="M51.1996 6.19995C49.4996 6.19995 48.0996 4.79998 48.0996 3.09998C48.0996 1.39998 49.4996 0 51.1996 0C52.8996 0 54.2996 1.39998 54.2996 3.09998C54.2996 4.79998 52.8996 6.19995 51.1996 6.19995ZM51.1996 2.29999C50.8996 2.29999 50.5996 2.59996 50.5996 2.89996C50.5996 3.19996 50.8996 3.5 51.1996 3.5C51.4996 3.5 51.7996 3.19996 51.7996 2.89996C51.7996 2.59996 51.5996 2.29999 51.1996 2.29999Z" fill="#5F84BE"/>
</svg>
