<svg width="71" height="41" viewBox="0 0 71 41" fill="none" xmlns="http://www.w3.org/2000/svg">
<path d="M19.9653 9.96432C20.4316 9.95579 20.8979 9.94727 21.3783 9.93849C21.8786 9.93563 22.3789 9.93278 22.8943 9.92983C23.6732 9.92261 23.6732 9.92261 24.4678 9.91525C25.5664 9.90752 26.665 9.90278 27.7636 9.90081C29.4356 9.89448 31.1064 9.86828 32.7781 9.84134C33.8477 9.83629 34.9172 9.83244 35.9867 9.82989C36.4827 9.81948 36.9786 9.80907 37.4896 9.79834C40.884 9.82159 43.2872 10.476 45.8393 12.7927C47.4836 15.1484 47.6814 17.3345 47.6695 20.1364C47.6723 20.5253 47.6751 20.9142 47.678 21.3148C47.6814 22.1332 47.6807 22.9517 47.6761 23.7701C47.6716 25.0138 47.6869 26.2562 47.7038 27.4998C47.7047 28.299 47.7044 29.0982 47.7028 29.8974C47.7088 30.2645 47.7148 30.6316 47.7209 31.0099C47.6714 34.5023 46.4539 36.5247 44.1922 39.1264C41.8427 40.4148 39.6519 40.2818 37.0132 40.2601C36.4685 40.2622 35.9238 40.2642 35.3626 40.2663C34.2125 40.2677 33.0624 40.2638 31.9124 40.2549C30.1563 40.2435 28.4013 40.2548 26.6453 40.2684C25.5261 40.267 24.407 40.2643 23.2878 40.2601C22.7647 40.2644 22.2416 40.2687 21.7026 40.2732C17.8639 40.2208 15.9624 39.3342 13.145 36.664C11.9553 34.6713 11.9329 32.8773 11.9382 30.6199C11.9336 30.1829 11.929 29.746 11.9243 29.2958C11.9182 28.3738 11.9177 27.4518 11.9223 26.5298C11.9257 25.1265 11.9007 23.7256 11.8736 22.3226C11.8712 21.4238 11.8705 20.5251 11.8715 19.6263C11.8617 19.2108 11.8519 18.7954 11.8418 18.3674C11.8894 15.5219 12.6395 14.0361 14.5628 11.9487C16.2908 10.4896 17.7167 9.99553 19.9653 9.96432Z" fill="#E7EEF8"/>
<path d="M19.9653 9.96432C20.4316 9.95579 20.8979 9.94727 21.3783 9.93849C21.8786 9.93563 22.3789 9.93278 22.8943 9.92983C23.6732 9.92261 23.6732 9.92261 24.4678 9.91525C25.5664 9.90752 26.665 9.90278 27.7636 9.90081C29.4356 9.89448 31.1064 9.86828 32.7781 9.84134C33.8477 9.83629 34.9172 9.83244 35.9867 9.82989C36.4827 9.81948 36.9786 9.80907 37.4896 9.79834C40.884 9.82159 43.2872 10.476 45.8393 12.7927C47.4836 15.1484 47.6814 17.3345 47.6695 20.1364C47.6723 20.5253 47.6751 20.9142 47.678 21.3148C47.6814 22.1332 47.6807 22.9517 47.6761 23.7701C47.6716 25.0138 47.6869 26.2562 47.7038 27.4998C47.7047 28.299 47.7044 29.0982 47.7028 29.8974C47.7088 30.2645 47.7148 30.6316 47.7209 31.0099C47.6714 34.5023 46.4539 36.5247 44.1922 39.1264C41.8427 40.4148 39.6519 40.2818 37.0132 40.2601C36.4685 40.2622 35.9238 40.2642 35.3626 40.2663C34.2125 40.2677 33.0624 40.2638 31.9124 40.2549C30.1563 40.2435 28.4013 40.2548 26.6453 40.2684C25.5261 40.267 24.407 40.2643 23.2878 40.2601C22.7647 40.2644 22.2416 40.2687 21.7026 40.2732C17.8639 40.2208 15.9624 39.3342 13.145 36.664C11.9553 34.6713 11.9329 32.8773 11.9382 30.6199C11.9336 30.1829 11.929 29.746 11.9243 29.2958C11.9182 28.3738 11.9177 27.4518 11.9223 26.5298C11.9257 25.1265 11.9007 23.7256 11.8736 22.3226C11.8712 21.4238 11.8705 20.5251 11.8715 19.6263C11.8617 19.2108 11.8519 18.7954 11.8418 18.3674C11.8894 15.5219 12.6395 14.0361 14.5628 11.9487C16.2908 10.4896 17.7167 9.99553 19.9653 9.96432ZM15.457 15.4579C15.2811 15.6338 15.1052 15.8097 14.9239 15.9909C14.8569 17.2647 14.8234 18.5224 14.8157 19.797C14.8126 20.1804 14.8096 20.5637 14.8065 20.9587C14.8014 21.7724 14.7979 22.5861 14.7959 23.3999C14.7907 24.6401 14.7742 25.8798 14.7574 27.1198C14.7539 27.9103 14.7511 28.7009 14.749 29.4914C14.7425 29.8607 14.7359 30.23 14.7291 30.6105C14.7397 32.9362 15.098 34.3958 16.523 36.2458C17.7557 36.8621 18.4969 36.859 19.8696 36.8816C20.3412 36.8902 20.8127 36.8987 21.2985 36.9076C23.456 36.9312 25.6134 36.9531 27.771 36.9654C28.909 36.9742 30.0469 36.9888 31.1847 37.0091C32.8251 37.0383 34.4648 37.05 36.1054 37.0578C36.8667 37.0759 36.8667 37.0759 37.6435 37.0944C39.9894 37.0869 41.2286 37.0064 43.2262 35.6943C44.4872 33.7287 44.6348 32.1342 44.6129 29.8662C44.6167 29.4622 44.6206 29.0582 44.6245 28.6419C44.6286 27.7908 44.626 26.9395 44.617 26.0884C44.6067 24.789 44.6277 23.4927 44.6515 22.1935C44.6516 21.3642 44.6499 20.5348 44.6462 19.7054C44.6544 19.3194 44.6625 18.9335 44.6709 18.5358C44.6229 16.4386 44.285 15.5123 42.9428 13.882C40.7325 12.3206 38.4315 12.4091 35.8097 12.4388C35.3118 12.4362 34.8139 12.4337 34.301 12.4311C33.2522 12.4293 32.2034 12.4341 31.1547 12.4453C29.5516 12.4596 27.9505 12.4454 26.3475 12.4284C25.3262 12.4301 24.3049 12.4336 23.2837 12.4388C22.5673 12.4307 22.5673 12.4307 21.8365 12.4224C18.782 12.4797 17.423 12.9256 15.457 15.4579Z" fill="#3777CB"/>
<path d="M21.3201 19.1885C23.2445 19.8818 24.7189 20.7291 26.3505 21.9535C28.2054 23.1982 28.2054 23.1982 30.3815 23.5859C32.3372 22.7711 33.9377 21.6662 35.6326 20.4024C36.7778 19.7215 36.7778 19.7215 38.9099 19.7215C38.7333 21.294 38.4539 21.7871 37.2338 22.8405C36.7645 23.1525 36.2952 23.4644 35.8117 23.7858C35.114 24.2578 35.114 24.2578 34.4021 24.7394C33.9548 25.0184 33.5075 25.2973 33.0466 25.5848C32.5324 25.9207 32.5324 25.9207 32.0077 26.2635C30.3963 26.8344 29.3544 26.5602 27.7164 26.1178C26.159 25.287 26.159 25.287 24.6515 24.2855C24.1486 23.9564 23.6456 23.6273 23.1274 23.2882C21.8532 22.3866 21.8532 22.3866 20.7871 21.3206C20.987 20.1879 20.987 20.1879 21.3201 19.1885Z" fill="#3974C8"/>
<path d="M69.2932 13.8582C70.3592 14.9242 70.3592 14.9242 70.5258 16.4567C70.3451 18.263 69.9711 18.9426 68.7601 20.2544C65.1622 19.8547 65.1622 19.8547 63.9629 18.6554C63.6733 15.4694 63.6733 15.4694 64.5293 13.8582C66.1987 12.9965 67.5192 13.4389 69.2932 13.8582Z" fill="#3973C4"/>
<path d="M66.0938 14.9248C66.7974 14.9248 67.501 14.9248 68.2259 14.9248C68.4018 15.9802 68.5777 17.0356 68.7589 18.1229C67.8761 18.3267 66.9868 18.5035 66.0938 18.656C65.5608 18.1229 65.5608 18.1229 65.4941 16.7904C65.5608 15.4578 65.5608 15.4578 66.0938 14.9248Z" fill="#E1EBF5"/>
<path d="M67.4942 13.4253C68.3847 13.6397 68.3847 13.6397 69.2931 13.8584C69.469 14.2102 69.6449 14.562 69.8261 14.9244C69.4744 14.9244 69.1226 14.9244 68.7601 14.9244C68.5842 15.2762 68.4083 15.628 68.2271 15.9905C68.2271 15.6387 68.2271 15.2869 68.2271 14.9244C67.1877 15.0282 67.1877 15.0282 66.095 15.4574C65.4104 16.5148 65.4104 16.5148 65.0289 17.5895C65.0289 16.8859 65.0289 16.1823 65.0289 15.4574C64.6771 15.2815 64.3253 15.1056 63.9629 14.9244C65.0655 13.3029 65.4724 13.3207 67.4942 13.4253Z" fill="#477EC8"/>
<path d="M62.3631 34.647C63.0667 34.647 63.7703 34.647 64.4952 34.647C64.4952 35.5265 64.4952 36.406 64.4952 37.3121C63.6157 37.3121 62.7362 37.3121 61.8301 37.3121C62.006 36.4326 62.1819 35.5531 62.3631 34.647Z" fill="#3D7BD3"/>
<path d="M63.9629 15.457C64.3147 15.457 64.6665 15.457 65.0289 15.457C65.6988 17.006 66.095 18.0134 66.095 19.7212C65.3914 19.3694 64.6878 19.0176 63.9629 18.6552C63.9629 17.5998 63.9629 16.5444 63.9629 15.457Z" fill="#2262BC"/>
<path d="M0.533023 0C1.06072 0 1.58841 0 2.13209 0C2.13209 0.879489 2.13209 1.75898 2.13209 2.66512C1.4285 2.66512 0.724912 2.66512 0 2.66512C0.175898 1.78563 0.351795 0.90614 0.533023 0Z" fill="#3C7BD1"/>
<path d="M36.7791 19.7222C37.4827 19.7222 38.1863 19.7222 38.9112 19.7222C38.7353 20.4258 38.5594 21.1293 38.3782 21.8543C37.8505 21.8543 37.3228 21.8543 36.7791 21.8543C36.6032 21.3266 36.4273 20.7989 36.2461 20.2552C36.422 20.0793 36.5979 19.9034 36.7791 19.7222Z" fill="#4078CD"/>
</svg>
