<svg width="72" height="40" viewBox="0 0 72 40" fill="none" xmlns="http://www.w3.org/2000/svg">
<path d="M37.0441 7.49438C39.4273 8.87965 41.0918 10.5265 42.6409 12.7913C42.9707 13.253 43.3005 13.7148 43.6403 14.1905C45.105 18.5845 44.5697 23.1593 42.8095 27.3849C40.329 32.3238 36.5581 37.3026 31.4266 39.6507C29.8483 39.9755 29.8483 39.9755 28.6553 39.5674C23.645 35.9819 19.9708 31.8218 17.5888 26.1169C17.3579 25.6112 17.127 25.1055 16.8892 24.5844C16.0408 20.7281 15.8792 17.208 17.8553 13.6908C22.3432 7.10213 29.3306 3.9361 37.0441 7.49438Z" fill="#E6EEF9"/>
<path d="M37.0441 7.49438C39.4273 8.87965 41.0918 10.5265 42.6409 12.7913C42.9707 13.253 43.3005 13.7148 43.6403 14.1905C45.105 18.5845 44.5697 23.1593 42.8095 27.3849C40.329 32.3238 36.5581 37.3026 31.4266 39.6507C29.8483 39.9755 29.8483 39.9755 28.6553 39.5674C23.645 35.9819 19.9708 31.8218 17.5888 26.1169C17.3579 25.6112 17.127 25.1055 16.8892 24.5844C16.0408 20.7281 15.8792 17.208 17.8553 13.6908C22.3432 7.10213 29.3306 3.9361 37.0441 7.49438ZM20.9264 13.9739C19.0593 16.6098 18.9348 18.692 19.1878 21.8527C20.2562 27.2918 23.5649 32.1053 27.7162 35.7113C29.3179 36.4817 29.3179 36.4817 30.9144 36.7774C35.5867 34.6443 38.9046 29.6679 41.0002 25.1487C42.1449 21.7686 42.342 18.4676 41.0189 15.1129C39.2482 12.122 36.904 10.1143 33.5795 9.06013C27.8951 8.23117 24.557 9.59734 20.9264 13.9739Z" fill="#2B6FC7"/>
<path d="M33.0467 14.3913C34.5156 15.5542 35.4112 16.4551 36.2449 18.1225C36.608 21.7539 36.608 21.7539 35.6869 23.3591C34.7372 24.5126 33.859 25.4452 32.5137 26.1179C28.7556 26.4259 28.7556 26.4259 26.7171 25.1851C25.0541 23.4242 24.5985 22.472 24.2852 20.0547C24.5946 17.4907 25.3786 16.7292 27.1835 14.9244C29.0345 13.9989 31.0276 14.0705 33.0467 14.3913Z" fill="#2F6FC5"/>
<path d="M31.981 17.0559C33.2803 17.9221 33.2803 17.9221 34.1131 19.188C34.0798 20.8537 34.0798 20.8537 33.5801 22.3861C31.7309 23.6189 30.9565 23.6786 28.7829 23.4522C27.7835 22.8525 27.7835 22.8525 27.1838 21.8531C26.974 20.1745 26.9021 19.1245 27.7835 17.6555C29.2756 16.7602 30.2743 16.8121 31.981 17.0559Z" fill="#E5EDF8"/>
<path d="M67.8933 15.3237C69.8255 15.457 69.8255 15.457 70.8915 16.0566C71.7056 17.5831 71.3408 18.6301 70.8915 20.2542C69.8255 21.3202 69.8255 21.3202 68.2597 21.4868C66.6273 21.3202 66.6273 21.3202 65.5946 20.7539C64.6915 19.1071 65.1671 17.7638 65.5613 15.99C66.0943 15.457 66.0943 15.457 67.8933 15.3237Z" fill="#508BD9"/>
<path d="M27.1829 14.9238C28.3155 15.1237 28.3155 15.1237 29.315 15.4569C29.315 15.8086 29.315 16.1604 29.315 16.5229C30.0186 16.6988 30.7222 16.8747 31.4471 17.0559C30.9414 17.1659 30.4357 17.2758 29.9146 17.3891C28.0935 17.9665 28.0935 17.9665 27.516 19.7877C27.4061 20.2934 27.2961 20.7991 27.1829 21.3201C27.007 21.3201 26.8311 21.3201 26.6499 21.3201C26.6499 20.4406 26.6499 19.5611 26.6499 18.655C26.1222 18.4791 25.5945 18.3032 25.0508 18.122C25.6647 16.8065 26.1423 15.9644 27.1829 14.9238Z" fill="#3D77C4"/>
<path d="M69.2926 15.99C68.2372 16.5177 68.2372 16.5177 67.1605 17.0561C67.3364 17.9356 67.5123 18.8151 67.6935 19.7212C68.3971 19.8971 69.1007 20.073 69.8256 20.2542C69.8256 20.606 69.8256 20.9578 69.8256 21.3203C66.9321 21.5132 66.9321 21.5132 65.6281 20.6873C64.8169 19.3804 64.7962 18.5655 65.0284 17.0561C66.749 15.909 67.3119 15.883 69.2926 15.99Z" fill="#3377CA"/>
<path d="M43.1733 17.0562C43.3492 17.0562 43.5251 17.0562 43.7063 17.0562C43.7063 19.1669 43.7063 21.2777 43.7063 23.4524C42.6509 23.9801 42.6509 23.9801 41.5742 24.5185C41.6349 23.4743 41.7029 22.4305 41.7741 21.387C41.8112 20.8057 41.8483 20.2244 41.8865 19.6255C42.1072 18.1222 42.1072 18.1222 43.1733 17.0562Z" fill="#2069CA"/>
<path d="M33.5802 21.3208C33.932 21.6726 34.2838 22.0244 34.6463 22.3868C34.4704 22.7167 34.2945 23.0465 34.1133 23.3863C33.5046 24.4711 33.5046 24.4711 33.5802 25.585C31.8668 26.4417 30.1496 26.1487 28.25 26.118C28.25 25.9421 28.25 25.7662 28.25 25.585C29.025 25.3706 29.025 25.3706 29.8158 25.1519C30.6238 24.8386 30.6238 24.8386 31.4481 24.5189C31.624 23.9912 31.7999 23.4636 31.9812 22.9199C32.814 22.0204 32.814 22.0204 33.5802 21.3208Z" fill="#3A77C6"/>
<path d="M62.3633 34.646C63.6825 34.9098 63.6825 34.9098 65.0284 35.179C64.8525 36.0585 64.6766 36.938 64.4954 37.8441C63.7918 37.6682 63.0882 37.4923 62.3633 37.3111C62.3633 36.4316 62.3633 35.5521 62.3633 34.646Z" fill="#3C7CCB"/>
<path d="M66.627 17.0562C67.5064 17.0562 68.3859 17.0562 69.2921 17.0562C69.468 17.7597 69.6439 18.4633 69.8251 19.1882C68.9456 19.3641 68.0661 19.54 67.16 19.7213C66.9841 18.8418 66.8082 17.9623 66.627 17.0562Z" fill="#EEF4F9"/>
<path d="M70.3585 17.0562C70.7103 17.0562 71.0621 17.0562 71.4245 17.0562C71.2246 18.6219 71.2246 18.6219 70.8915 20.2543C70.3638 20.5181 70.3638 20.5181 69.8255 20.7873C68.6928 20.2876 68.6928 20.2876 67.6934 19.7213C68.0342 19.5784 68.375 19.4354 68.7261 19.2882C70.0021 18.7156 70.0021 18.7156 70.3585 17.0562Z" fill="#4682D7"/>
<path d="M0.533023 0C1.58841 0.263847 1.58841 0.263847 2.66512 0.533023C2.66512 1.06072 2.66512 1.58841 2.66512 2.13209C1.78563 2.13209 0.90614 2.13209 0 2.13209C0.175898 1.4285 0.351795 0.724912 0.533023 0Z" fill="#3A7FDB"/>
</svg>
