<svg width="86" height="41" viewBox="0 0 86 41" fill="none" xmlns="http://www.w3.org/2000/svg">
<path d="M34.1133 6.39584C36.5583 8.43258 38.5159 11.0366 39.9766 13.8582C39.8053 17.2276 39.8053 17.2276 38.3775 18.6554C38.6011 21.7295 40.4788 23.5584 42.6417 25.5847C44.0906 26.4009 44.0906 26.4009 45.3068 26.6507C45.5707 26.255 45.5707 26.255 45.8399 25.8512C47.1946 24.8351 48.3311 24.732 50.0041 24.7935C52.2412 25.2888 53.7624 26.7562 55.4343 28.2498C55.962 28.6676 56.4897 29.0853 57.0334 29.5157C58.3009 31.1794 58.4681 32.1073 58.318 34.1547C57.8736 36.2371 56.756 37.3013 55.0449 38.4793C52.3642 40.0149 49.9507 40.6311 46.9059 39.9763C37.732 36.6638 30.5896 29.6798 26.118 21.1206C24.756 17.8601 24.3269 14.6708 25.0519 11.1931C27.0682 7.76118 29.928 5.24505 34.1133 6.39584Z" fill="#3071C8"/>
<path d="M33.0491 9.06066C34.2609 10.2683 34.2609 10.2683 35.3811 11.859C35.759 12.3785 36.1369 12.8979 36.5263 13.4331C37.3133 14.9239 37.3133 14.9239 37.2196 16.1336C36.7803 17.056 36.7803 17.056 35.9474 17.8222C35.0806 18.6171 35.0806 18.6171 34.9584 19.8356C35.2778 21.9639 36.5282 23.104 37.9796 24.585C38.2414 24.8646 38.5032 25.1443 38.7729 25.4324C41.2344 28.18 41.2344 28.18 44.5091 29.5154C45.8855 29.4237 45.8855 29.4237 46.8744 28.4827C47.9738 27.7165 47.9738 27.7165 49.4396 27.6499C51.8824 28.4954 53.8449 29.9291 55.4361 31.9807C55.636 33.3632 55.636 33.3632 55.4361 34.6458C54.0064 36.0002 52.6684 37.2675 50.641 37.3588C43.0638 36.886 37.8839 31.7202 32.9159 26.4506C29.7987 22.8149 27.2959 18.8693 27.0547 13.9828C27.2618 12.1025 28.0778 10.9755 29.318 9.59369C30.7232 8.89106 31.489 8.83055 33.0491 9.06066Z" fill="#E4ECF8"/>
<path d="M34.1148 6.39555C36.5597 8.43228 38.5174 11.0363 39.978 13.8579C39.8067 17.2273 39.8067 17.2273 38.379 18.6551C38.5313 20.8053 39.2331 21.9298 40.6776 23.4856C41.0116 23.8491 41.3455 24.2126 41.6895 24.5871C42.7028 25.6468 43.7174 26.701 44.7752 27.7165C44.2475 27.9803 44.2475 27.9803 43.7092 28.2495C43.7092 28.6013 43.7092 28.9531 43.7092 29.3156C41.4827 28.5839 40.2009 27.5953 38.5788 25.9175C38.1762 25.5066 37.7736 25.0958 37.3587 24.6724C34.7295 21.7872 34.7295 21.7872 34.4146 19.9876C34.6478 18.6551 34.6478 18.6551 35.7472 17.589C36.9055 16.6262 36.9055 16.6262 36.8465 15.3237C35.9533 13.1402 34.5276 11.4162 33.0487 9.59369C30.3828 9.71245 30.3828 9.71245 28.2515 11.1594C27.2356 14.2708 28.0531 17.6526 28.7845 20.7872C27.5186 20.6539 27.5186 20.6539 26.1194 20.2542C24.3274 17.6251 24.5687 14.2087 25.0534 11.1928C27.0392 7.74994 29.9507 5.25061 34.1148 6.39555Z" fill="#2F6FC7"/>
<path d="M30.3823 6.9292C30.5156 8.1285 30.5156 8.1285 30.3823 9.59432C29.3496 10.7603 29.3496 10.7603 28.2502 11.7264C27.0127 14.2015 28.1739 18.1764 28.7832 20.7878C27.5173 20.6546 27.5173 20.6546 26.1181 20.2548C24.3249 17.6239 24.5712 14.2115 25.0521 11.1934C26.3182 8.91503 27.6493 6.9292 30.3823 6.9292Z" fill="#2068C4"/>
<path d="M36.2457 18.6558C36.5975 18.8317 36.9493 19.0076 37.3118 19.1888C37.3118 19.7165 37.3118 20.2442 37.3118 20.7879C37.8395 20.9638 38.3672 21.1397 38.9109 21.3209C39.8082 22.2308 39.8082 22.2308 40.7431 23.353C42.0327 24.8749 43.3334 26.3341 44.7741 27.7172C44.4223 27.8931 44.0705 28.069 43.7081 28.2502C43.7081 28.602 43.7081 28.9538 43.7081 29.3162C41.4653 28.5819 40.1777 27.5736 38.5444 25.8849C38.1356 25.4678 37.7267 25.0508 37.3055 24.621C36.2457 23.453 36.2457 23.453 35.1797 21.8539C35.4678 19.4337 35.4678 19.4337 36.2457 18.6558Z" fill="#2768BF"/>
<path d="M2.69843 21.8203C3.47348 21.8368 3.47348 21.8368 4.26419 21.8536C4.26419 22.2054 4.26419 22.5572 4.26419 22.9197C3.92339 22.9746 3.58258 23.0296 3.23145 23.0862C2.86867 23.2072 2.50588 23.3281 2.13209 23.4527C1.9562 23.9804 1.7803 24.5081 1.59907 25.0518C2.47856 25.0518 3.35805 25.0518 4.26419 25.0518C4.44009 24.5241 4.61598 23.9964 4.79721 23.4527C4.81998 24.3408 4.81887 25.2297 4.79721 26.1178C4.26419 26.6508 4.26419 26.6508 2.69843 26.7508C1.06605 26.6508 1.06605 26.6508 0 25.5848C0.379301 21.8676 0.379301 21.8676 2.69843 21.8203Z" fill="#3374C9"/>
<path d="M77.8219 14.9243C79.2211 15.1242 79.2211 15.1242 80.487 15.4573C80.3111 16.6886 80.1352 17.9199 79.954 19.1885C79.0745 19.0126 78.195 18.8367 77.2889 18.6555C76.9557 17.3895 76.9557 17.3895 76.7559 15.9904C77.1077 15.6386 77.4595 15.2868 77.8219 14.9243Z" fill="#5B8DCE"/>
<path d="M82.619 14.9243C84.6844 15.9237 84.6844 15.9237 85.2841 16.5234C85.3058 17.5892 85.3068 18.6557 85.2841 19.7215C84.5805 19.8974 83.8769 20.0733 83.152 20.2546C83.152 19.7269 83.152 19.1992 83.152 18.6555C83.5038 18.6555 83.8556 18.6555 84.218 18.6555C84.218 18.3037 84.218 17.9519 84.218 17.5894C83.5144 17.2376 82.8108 16.8858 82.0859 16.5234C82.2618 15.9957 82.4377 15.468 82.619 14.9243Z" fill="#407ED4"/>
<path d="M5.33077 22.92C5.15488 23.6235 4.97898 24.3271 4.79775 25.052C3.74236 25.052 2.68698 25.052 1.59961 25.052C1.77551 24.3485 1.9514 23.6449 2.13263 22.92C4.13147 22.3203 4.13147 22.3203 5.33077 22.92Z" fill="#9CBDE4"/>
<path d="M10.1289 0C10.8325 0.175898 11.5361 0.351795 12.261 0.533023C12.0851 1.23661 11.9092 1.94021 11.728 2.66512C11.2003 2.66512 10.6726 2.66512 10.1289 2.66512C10.1289 1.78563 10.1289 0.90614 10.1289 0Z" fill="#3979D3"/>
</svg>
