<svg width="78" height="32" viewBox="0 0 78 32" fill="none" xmlns="http://www.w3.org/2000/svg">
<path d="M76.0284 9.47143C74.0993 12.0996 70.4982 12.6252 67.926 10.6541C65.3539 8.68298 64.8395 5.00355 66.7686 2.37538C68.6977 -0.252782 72.2987 -0.778418 74.8709 1.19271C77.4431 3.16383 77.9575 6.84327 76.0284 9.47143Z" fill="#CC5500"/>
<path d="M71.5266 1.58676C72.5555 1.58676 73.7129 1.98098 74.4846 2.76943C76.1565 4.47774 76.1565 7.10591 74.4846 8.81422L55.1934 28.3941C53.5215 30.1024 50.9493 30.1024 49.2774 28.3941C47.6055 26.6858 47.6055 24.0576 49.2774 22.3493L68.44 2.76943C69.3403 1.98098 70.3692 1.58676 71.5266 1.58676Z" fill="#CC5500"/>
<path d="M56.7475 29.1833C54.8184 31.8115 51.2173 32.3371 48.6452 30.366C46.073 28.3949 45.5586 24.7155 47.4878 22.0873C49.4169 19.4591 53.0179 18.9335 55.59 20.9046C58.1622 22.8757 58.5481 26.5552 56.7475 29.1833Z" fill="#CC5500"/>
<path d="M48.3662 1.58676C49.3951 1.58676 50.5525 1.98098 51.3242 2.76943C52.9961 4.47774 52.9961 7.10591 51.3242 8.81422L32.033 28.3941C30.3611 30.1024 27.7889 30.1024 26.117 28.3941C24.4451 26.6858 24.4451 24.0576 26.117 22.3493L45.2796 2.76943C46.1799 1.98098 47.2088 1.58676 48.3662 1.58676Z" fill="#FF6A00"/>
<path d="M52.8797 9.47143C50.9506 12.0996 47.3495 12.6252 44.7774 10.6541C42.2052 8.68298 41.6908 5.00355 43.6199 2.37538C45.5491 -0.252782 49.1501 -0.778418 51.7222 1.19271C54.2944 3.16383 54.8088 6.84327 52.8797 9.47143Z" fill="#FF6A00"/>
<path d="M33.5793 29.1833C31.6502 31.8115 28.0491 32.3371 25.477 30.366C22.9048 28.3949 22.3904 24.7155 24.3195 22.0873C26.2487 19.4591 29.8497 18.9335 32.4218 20.9046C34.994 22.8757 35.3798 26.5552 33.5793 29.1833Z" fill="#FF6A00"/>
<path d="M25.2256 1.58676C26.2545 1.58676 27.4119 1.98098 28.1836 2.76943C29.8555 4.47774 29.8555 7.10591 28.1836 8.81422L8.89237 28.3941C7.22046 30.1024 4.64825 30.1024 2.97635 28.3941C1.30445 26.6858 1.30445 24.0576 2.97635 22.3493L22.139 2.76943C23.0392 1.98098 24.0681 1.58676 25.2256 1.58676Z" fill="#FF8533"/>
<path d="M29.7196 9.47143C27.7905 12.0996 24.1894 12.6252 21.6172 10.6541C19.045 8.68298 18.5307 5.00355 20.4598 2.37538C22.3889 -0.252782 25.9899 -0.778418 28.5621 1.19271C31.1342 3.16383 31.6487 6.84327 29.7196 9.47143Z" fill="#FF8533"/>
<path d="M10.427 29.1833C8.49787 31.8115 4.89678 32.3371 2.32462 30.366C-0.247537 28.3949 -0.761922 24.7155 1.1672 22.0873C3.09632 19.4591 6.69733 18.9335 9.26949 20.9046C11.8416 22.8757 12.2275 26.5552 10.427 29.1833Z" fill="#FF8533"/>
</svg>
